<?xml version="1.0" standalone="no"?><!DOCTYPE svg PUBLIC "-//W3C//DTD SVG 1.1//EN" "http://www.w3.org/Graphics/SVG/1.1/DTD/svg11.dtd" ><svg xmlns="http://www.w3.org/2000/svg"><metadata></metadata><defs><font id="fonteditor" horiz-adv-x="1272"><font-face font-family="vivo Sans" font-weight="400" font-stretch="normal" units-per-em="1000" panose-1="2 0 5 0 0 0 0 0 0 0" ascent="928" descent="-244" x-height="0" bbox="-40 -295 1233 922" underline-thickness="0" underline-position="0" unicode-range="U+0021-ffe5" /><missing-glyph horiz-adv-x="1000"  /><glyph glyph-name="A" unicode="a" d="M111 -37 L13 -37 L307 731 L408 731 L696 -37 L594 -37 L519 172 L187 172 L111 -37 ZM217 251 L490 251 Q484 268 474 298 Q408 480 354 645 Q298 473 234 298 Q226 275 217 251 Z" /><glyph glyph-name="B" unicode="b" d="M91 731 L346 731 Q445 731 504 684 Q563 637 563 553 Q563 489 529 442 Q493 393 427 372 Q510 360 554 309 Q598 258 598 177 Q596 -34 322 -37 L91 -37 L91 731 ZM182 42 L336 42 Q504 42 504 179 Q504 322 321 322 L182 322 L182 42 ZM182 401 L309 401 Q383 401 426 437 Q468 472 468 535 Q468 653 318 653 L182 653 L182 401 Z" /><glyph glyph-name="C" unicode="c" d="M416 -49 Q256 -49 154 44 Q41 148 40 339 Q39 527 152 638 Q262 745 441 745 Q547 745 633 695 L603 622 Q526 661 442 661 Q306 661 224 582 Q137 498 137 351 Q137 187 228 105 Q306 34 435 34 Q524 34 603 67 L632 -2 Q551 -49 416 -49 Z" /><glyph glyph-name="D" unicode="d" d="M91 731 L287 731 Q502 731 602 650 Q712 561 712 357 Q712 148 587 49 Q479 -37 279 -37 L91 -37 L91 731 ZM182 46 L278 46 Q440 46 521 108 Q618 182 618 355 Q618 522 525 591 Q447 649 285 649 L182 649 L182 46 Z" /><glyph glyph-name="E" unicode="e" d="M91 731 L524 731 L524 653 L182 653 L182 393 L481 393 L481 312 L182 312 L182 45 L536 45 L536 -37 L91 -37 L91 731 Z" /><glyph glyph-name="F" unicode="f" d="M91 731 L525 731 L525 653 L182 653 L182 367 L483 367 L483 287 L182 287 L182 -37 L91 -37 L91 731 Z" /><glyph glyph-name="G" unicode="g" d="M40 341 Q39 520 155 633 Q271 745 451 745 Q558 745 655 694 L622 619 Q543 659 455 659 Q315 659 227 576 Q137 491 137 348 Q137 190 240 103 Q328 29 453 29 Q525 29 583 48 L583 284 L403 284 L403 365 L674 365 L674 7 Q590 -49 439 -49 Q274 -49 165 44 Q41 150 40 341 Z" /><glyph glyph-name="H" unicode="h" d="M591 315 L182 315 L182 -37 L91 -37 L91 731 L182 731 L182 395 L591 395 L591 731 L682 731 L682 -37 L591 -37 L591 315 Z" /><glyph glyph-name="I" unicode="i" d="M91 731 L182 731 L182 -37 L91 -37 L91 731 Z" /><glyph glyph-name="J" unicode="j" d="M204 -48 Q126 -48 74 -8 Q19 35 -1 119 L75 144 Q105 33 204 33 Q326 33 326 193 L326 732 L418 732 L418 194 Q418 76 362 14 Q306 -48 204 -48 Z" /><glyph glyph-name="K" unicode="k" d="M91 731 L182 731 L182 366 L515 731 L632 731 L275 349 L648 -37 L516 -37 L182 319 L182 -37 L91 -37 L91 731 Z" /><glyph glyph-name="L" unicode="l" d="M91 731 L182 731 L182 45 L549 45 L549 -37 L91 -37 L91 731 Z" /><glyph glyph-name="M" unicode="m" d="M454 268 L441 268 L284 451 Q248 493 184 571 L182 571 L182 -37 L91 -37 L91 731 L169 731 L321 544 Q385 466 449 389 Q476 420 519 477 Q558 530 572 546 L716 731 L791 731 L791 -37 L699 -37 L699 571 L697 571 Q648 510 599 449 L454 268 Z" /><glyph glyph-name="N" unicode="n" d="M91 -37 L91 731 L163 731 L454 336 Q515 255 604 127 L606 127 L606 731 L696 731 L696 -37 L622 -37 L388 274 Q265 438 181 560 L181 -37 L91 -37 Z" /><glyph glyph-name="O" unicode="o" d="M403 -50 Q245 -50 145 54 Q40 163 40 347 Q40 530 148 641 Q250 746 403 746 Q556 745 660 641 Q763 537 767 347 Q767 162 663 54 Q563 -50 403 -50 ZM137 347 Q137 197 213 113 Q285 33 403 33 Q521 33 594 113 Q671 198 671 347 Q671 497 594 582 Q522 662 403 662 Q285 662 213 582 Q137 497 137 347 Z" /><glyph glyph-name="P" unicode="p" d="M91 731 L340 731 Q467 731 534 670 Q599 611 599 503 Q599 386 521 319 Q447 255 324 255 L182 255 L182 -37 L91 -37 L91 731 ZM182 335 L314 335 Q406 335 455 377 Q503 418 503 497 Q503 574 457 614 Q412 653 324 653 L182 653 L182 335 Z" /><glyph glyph-name="Q" unicode="q" d="M403 -50 Q245 -50 145 54 Q40 163 40 347 Q40 530 148 641 Q250 746 403 746 Q556 745 660 641 Q763 537 767 347 Q767 145 645 36 L742 -90 L647 -90 L582 -7 Q505 -50 403 -50 ZM137 347 Q137 197 213 113 Q285 33 403 33 Q475 33 527 62 L402 221 L501 221 L589 108 Q671 193 671 347 Q671 497 594 582 Q522 662 403 662 Q285 662 213 582 Q137 497 137 347 Z" /><glyph glyph-name="R" unicode="r" d="M91 731 L302 731 Q450 731 515 679 Q579 628 579 514 Q579 354 438 302 L621 -37 L512 -37 L346 282 Q316 280 297 280 L182 280 L182 -37 L91 -37 L91 731 ZM182 354 L290 354 Q403 354 449 393 Q488 426 488 504 Q488 586 445 621 Q401 657 293 657 L182 657 L182 354 Z" /><glyph glyph-name="S" unicode="s" d="M306 -49 Q142 -49 34 46 L73 131 Q181 37 310 37 Q379 37 416 66 Q454 96 454 153 Q454 213 419 245 Q385 276 294 306 Q177 345 122 396 Q65 450 64 526 Q63 628 137 688 Q207 745 317 745 Q432 745 520 680 L484 598 Q404 658 313 658 Q244 658 203 626 Q163 595 163 542 Q163 492 200 460 Q237 428 328 398 Q451 356 500 309 Q554 256 554 165 Q554 63 479 4 Q411 -49 306 -49 Z" /><glyph glyph-name="T" unicode="t" d="M2 650 L2 731 L604 731 L604 650 L348 650 L348 -37 L256 -37 L256 650 L2 650 Z" /><glyph glyph-name="U" unicode="u" d="M364 -50 Q222 -50 151 24 Q76 102 76 270 L76 731 L169 731 L169 259 Q169 138 216 85 Q262 33 364 33 Q465 33 511 85 Q558 138 558 259 L558 731 L651 731 L651 270 Q651 102 576 24 Q505 -50 364 -50 Z" /><glyph glyph-name="V" unicode="v" d="M579 731 L676 731 L394 -37 L294 -37 L8 731 L107 731 L231 388 Q299 200 346 45 L349 45 Q374 129 462 388 L579 731 Z" /><glyph glyph-name="W" unicode="w" d="M884 731 L976 731 L767 -37 L657 -37 L493 623 L323 -37 L212 -37 L6 731 L107 731 L270 63 L442 731 L547 731 L719 64 L884 731 Z" /><glyph glyph-name="X" unicode="x" d="M639 -37 L524 -37 L325 274 L131 -37 L19 -37 L272 341 L19 731 L136 731 L331 411 L531 731 L643 731 L383 343 L639 -37 Z" /><glyph glyph-name="Y" unicode="y" d="M528 731 L626 731 L358 254 L358 -37 L268 -37 L268 252 L2 731 L104 731 L237 491 Q269 432 318 335 Q344 393 398 492 L528 731 Z" /><glyph glyph-name="Z" unicode="z" d="M20 -37 L20 9 L455 649 L36 649 L36 731 L581 731 L581 685 L142 46 L586 46 L586 -37 L20 -37 Z" /><glyph glyph-name="a" unicode="a" d="M388 54 Q345 -46 213 -49 Q136 -49 86 -7 Q32 39 32 117 Q32 210 108 258 Q173 299 277 299 Q332 299 380 289 L380 299 Q382 452 248 451 Q168 451 96 391 L56 452 Q144 525 255 525 Q362 525 417 465 Q468 410 468 311 L468 -37 L388 -37 L388 54 ZM380 159 L380 226 Q340 236 277 236 Q206 236 164 208 Q120 179 120 125 Q120 78 153 52 Q184 27 235 27 Q293 27 334 60 Q380 97 380 159 Z" /><glyph glyph-name="aacute" unicode="á" d="M388 54 Q345 -46 213 -49 Q136 -49 86 -7 Q32 39 32 117 Q32 210 108 258 Q173 299 277 299 Q332 299 380 289 L380 299 Q382 452 248 451 Q168 451 96 391 L56 452 Q144 525 255 525 Q362 525 417 465 Q468 410 468 311 L468 -37 L388 -37 L388 54 ZM380 159 L380 226 Q340 236 277 236 Q206 236 164 208 Q120 179 120 125 Q120 78 153 52 Q184 27 235 27 Q293 27 334 60 Q380 97 380 159 ZM256 568 L188 568 L305 742 L396 742 L256 568 Z" /><glyph glyph-name="uni1CE" unicode="&#x1ce;" d="M388 54 Q345 -46 213 -49 Q136 -49 86 -7 Q32 39 32 117 Q32 210 108 258 Q173 299 277 299 Q332 299 380 289 L380 299 Q382 452 248 451 Q168 451 96 391 L56 452 Q144 525 255 525 Q362 525 417 465 Q468 410 468 311 L468 -37 L388 -37 L388 54 ZM380 159 L380 226 Q340 236 277 236 Q206 236 164 208 Q120 179 120 125 Q120 78 153 52 Q184 27 235 27 Q293 27 334 60 Q380 97 380 159 ZM226 570 L113 746 L177 746 L263 625 L352 746 L412 746 L299 570 L226 570 Z" /><glyph glyph-name="agrave" unicode="à" d="M388 54 Q345 -46 213 -49 Q136 -49 86 -7 Q32 39 32 117 Q32 210 108 258 Q173 299 277 299 Q332 299 380 289 L380 299 Q382 452 248 451 Q168 451 96 391 L56 452 Q144 525 255 525 Q362 525 417 465 Q468 410 468 311 L468 -37 L388 -37 L388 54 ZM380 159 L380 226 Q340 236 277 236 Q206 236 164 208 Q120 179 120 125 Q120 78 153 52 Q184 27 235 27 Q293 27 334 60 Q380 97 380 159 ZM268 568 L128 742 L219 742 L335 568 L268 568 Z" /><glyph glyph-name="uni251" unicode="&#x251;" d="M470 -37 L467 55 Q446 9 397 -19 Q345 -49 278 -49 Q170 -49 103 22 Q31 98 32 233 Q33 370 115 451 Q189 525 296 525 Q350 525 399 498 Q443 474 464 439 L470 513 L548 513 L548 -37 L470 -37 ZM123 238 Q123 139 171 81 Q218 24 296 24 Q370 24 418 78 Q468 134 468 226 L468 248 Q468 342 420 398 Q373 452 298 452 Q221 452 173 396 Q123 338 123 238 Z" /><glyph glyph-name="uni101" unicode="&#x101;" d="M388 54 Q345 -46 213 -49 Q136 -49 86 -7 Q32 39 32 117 Q32 210 108 258 Q173 299 277 299 Q332 299 380 289 L380 299 Q382 452 248 451 Q168 451 96 391 L56 452 Q144 525 255 525 Q362 525 417 465 Q468 410 468 311 L468 -37 L388 -37 L388 54 ZM380 159 L380 226 Q340 236 277 236 Q206 236 164 208 Q120 179 120 125 Q120 78 153 52 Q184 27 235 27 Q293 27 334 60 Q380 97 380 159 ZM126 600 L126 659 L398 659 L398 600 L126 600 Z" /><glyph glyph-name="b" unicode="b" d="M581 239 Q580 106 510 27 Q443 -49 337 -49 Q277 -49 226 -24 Q178 -1 151 37 L149 37 L146 -37 L66 -37 L66 763 L153 763 L153 425 Q182 470 231 497 Q283 525 344 525 Q445 525 511 452 Q582 373 581 239 ZM146 245 L146 222 Q146 129 196 74 Q245 20 329 20 Q400 20 446 81 Q492 142 492 242 Q492 339 445 396 Q400 451 327 451 Q250 451 199 395 Q146 337 146 245 Z" /><glyph glyph-name="c" unicode="c" d="M319 449 Q234 449 179 396 Q119 338 119 240 Q119 144 171 85 Q225 24 316 24 Q377 24 431 51 L459 -12 Q391 -49 306 -49 Q175 -49 102 30 Q32 106 32 232 Q32 366 112 446 Q191 525 320 525 Q403 525 461 491 L430 423 Q377 449 319 449 Z" /><glyph glyph-name="d" unicode="d" d="M472 -37 L469 59 Q450 12 399 -18 Q346 -49 278 -49 Q170 -49 103 22 Q31 98 32 233 Q33 370 115 451 Q189 525 296 525 Q349 525 397 499 Q440 476 462 441 L462 763 L550 763 L550 -37 L472 -37 ZM123 238 Q123 139 171 81 Q218 24 296 24 Q370 24 418 78 Q468 134 468 226 L468 248 Q468 342 420 398 Q373 452 298 452 Q221 452 173 396 Q123 338 123 238 Z" /><glyph glyph-name="e" unicode="e" d="M119 223 L119 217 Q131 29 321 25 Q405 25 462 60 L489 -1 Q417 -49 309 -49 Q183 -49 109 24 Q32 100 32 239 Q32 370 105 449 Q176 525 290 525 Q391 525 452 462 Q518 394 518 270 Q518 245 515 223 L119 223 ZM430 291 L430 299 Q419 452 290 453 Q225 453 182 414 Q134 371 123 291 L430 291 Z" /><glyph glyph-name="eacute" unicode="é" d="M119 223 L119 217 Q131 29 321 25 Q405 25 462 60 L489 -1 Q417 -49 309 -49 Q183 -49 109 24 Q32 100 32 239 Q32 370 105 449 Q176 525 290 525 Q391 525 452 462 Q518 394 518 270 Q518 245 515 223 L119 223 ZM430 291 L430 299 Q419 452 290 453 Q225 453 182 414 Q134 371 123 291 L430 291 ZM270 568 L202 568 L318 742 L410 742 L270 568 Z" /><glyph glyph-name="uni11B" unicode="&#x11b;" d="M119 223 L119 217 Q131 29 321 25 Q405 25 462 60 L489 -1 Q417 -49 309 -49 Q183 -49 109 24 Q32 100 32 239 Q32 370 105 449 Q176 525 290 525 Q391 525 452 462 Q518 394 518 270 Q518 245 515 223 L119 223 ZM430 291 L430 299 Q419 452 290 453 Q225 453 182 414 Q134 371 123 291 L430 291 ZM127 746 L190 746 L277 625 L365 746 L425 746 L313 570 L240 570 L127 746 Z" /><glyph glyph-name="ecircumflex" unicode="ê" d="M119 223 L119 217 Q131 29 321 25 Q405 25 462 60 L489 -1 Q417 -49 309 -49 Q183 -49 109 24 Q32 100 32 239 Q32 370 105 449 Q176 525 290 525 Q391 525 452 462 Q518 394 518 270 Q518 245 515 223 L119 223 ZM430 291 L430 299 Q419 452 290 453 Q225 453 182 414 Q134 371 123 291 L430 291 ZM122 568 L240 742 L313 742 L429 568 L365 568 L276 689 L182 568 L122 568 Z" /><glyph glyph-name="egrave" unicode="è" d="M119 223 L119 217 Q131 29 321 25 Q405 25 462 60 L489 -1 Q417 -49 309 -49 Q183 -49 109 24 Q32 100 32 239 Q32 370 105 449 Q176 525 290 525 Q391 525 452 462 Q518 394 518 270 Q518 245 515 223 L119 223 ZM430 291 L430 299 Q419 452 290 453 Q225 453 182 414 Q134 371 123 291 L430 291 ZM281 568 L141 742 L233 742 L349 568 L281 568 Z" /><glyph glyph-name="uni113" unicode="&#x113;" d="M119 223 L119 217 Q131 29 321 25 Q405 25 462 60 L489 -1 Q417 -49 309 -49 Q183 -49 109 24 Q32 100 32 239 Q32 370 105 449 Q176 525 290 525 Q391 525 452 462 Q518 394 518 270 Q518 245 515 223 L119 223 ZM430 291 L430 299 Q419 452 290 453 Q225 453 182 414 Q134 371 123 291 L430 291 ZM139 600 L139 659 L412 659 L412 600 L139 600 Z" /><glyph glyph-name="f" unicode="f" d="M96 -37 L96 438 L16 438 L16 513 L96 513 L96 575 Q96 673 141 725 Q185 776 264 776 Q305 776 340 759 L327 685 Q296 699 268 699 Q228 699 209 674 Q186 644 186 578 L186 513 L313 513 L313 438 L186 438 L186 -37 L96 -37 Z" /><glyph glyph-name="g" unicode="g" d="M122 254 Q122 160 170 105 Q217 51 296 51 Q371 51 418 102 Q467 155 467 242 L467 263 Q467 354 420 407 Q374 458 298 458 Q221 458 173 405 Q122 349 122 254 ZM468 437 L470 512 L549 512 L549 36 Q545 -249 274 -249 Q147 -249 54 -184 L90 -110 Q177 -170 279 -170 Q460 -170 460 30 L460 67 Q438 29 390 6 Q341 -18 278 -18 Q171 -18 104 49 Q31 122 32 249 Q37 384 113 455 Q191 527 296 527 Q355 527 404 499 Q448 474 468 437 Z" /><glyph glyph-name="h" unicode="h" d="M66 -37 L66 763 L150 763 L150 404 Q170 458 220 491 Q272 525 339 525 Q430 525 483 463 Q537 400 537 288 L537 -37 L446 -37 L446 257 Q446 359 414 406 Q384 450 321 450 Q248 450 202 395 Q157 341 157 257 L157 -37 L66 -37 Z" /><glyph glyph-name="i" unicode="i" d="M66 -37 L66 514 L157 514 L157 -37 L66 -37 ZM46 662 Q46 691 63 708 Q80 725 108 725 Q137 725 154 708 Q171 691 171 662 Q171 633 154 616 Q136 598 108 598 Q80 598 63 616 Q46 634 46 662 Z" /><glyph glyph-name="iacute" unicode="í" d="M66 -37 L66 514 L157 514 L157 -37 L66 -37 ZM36 569 L152 743 L244 743 L104 569 L36 569 Z" /><glyph glyph-name="uni1D0" unicode="&#x1d0;" d="M66 -37 L66 514 L157 514 L157 -37 L66 -37 ZM-40 748 L25 748 L110 625 L199 748 L259 748 L146 571 L74 571 L-40 748 Z" /><glyph glyph-name="igrave" unicode="ì" d="M66 -37 L66 514 L157 514 L157 -37 L66 -37 ZM-26 743 L66 743 L183 569 L114 569 L-26 743 Z" /><glyph glyph-name="uni12B" unicode="&#x12b;" d="M66 -37 L66 514 L157 514 L157 -37 L66 -37 ZM-28 599 L-28 659 L245 659 L245 599 L-28 599 Z" /><glyph glyph-name="j" unicode="j" d="M-19 -245 L-8 -163 Q8 -168 31 -168 Q63 -168 76 -148 Q89 -128 89 -76 L89 512 L179 512 L179 -71 Q179 -159 145 -203 Q109 -249 32 -249 Q5 -249 -19 -245 ZM70 662 Q70 691 87 708 Q104 725 133 725 Q161 725 178 708 Q195 691 195 662 Q195 634 178 616 Q161 598 133 598 Q105 598 87 616 Q70 633 70 662 Z" /><glyph glyph-name="k" unicode="k" d="M156 -37 L66 -37 L66 763 L156 763 L156 252 L398 513 L510 513 L254 250 L521 -37 L401 -37 L156 238 L156 -37 Z" /><glyph glyph-name="l" unicode="l" d="M156 -37 L66 -37 L66 763 L156 763 L156 -37 Z" /><glyph glyph-name="m" unicode="m" d="M508 258 L508 -37 L418 -37 L418 268 Q418 363 395 404 Q370 449 311 449 Q243 449 201 400 Q157 348 157 258 L157 -37 L67 -37 L67 512 L151 512 L151 408 Q174 459 217 490 Q265 525 328 525 Q385 525 428 493 Q472 460 492 402 Q515 455 559 487 Q611 525 677 525 Q760 525 809 465 Q859 404 859 301 L859 -37 L769 -37 L769 268 Q774 450 661 449 Q593 449 552 400 Q508 348 508 258 Z" /><glyph glyph-name="n" unicode="n" d="M157 258 L157 -37 L67 -37 L67 512 L151 512 L151 403 Q170 456 221 490 Q274 525 340 525 Q430 525 483 462 Q537 398 537 288 L537 -37 L447 -37 L447 258 Q447 358 414 406 Q383 451 321 451 Q247 451 202 396 Q157 342 157 258 Z" /><glyph glyph-name="uni144" unicode="&#x144;" d="M305 568 L236 568 L353 743 L445 743 L305 568 ZM157 258 L157 -37 L67 -37 L67 512 L151 512 L151 403 Q170 456 221 490 Q274 525 340 525 Q430 525 483 462 Q537 398 537 288 L537 -37 L447 -37 L447 258 Q447 358 414 406 Q383 451 321 451 Q247 451 202 396 Q157 342 157 258 Z" /><glyph glyph-name="uni148" unicode="&#x148;" d="M161 747 L224 747 L311 626 L399 747 L459 747 L347 571 L274 571 L161 747 ZM157 258 L157 -37 L67 -37 L67 512 L151 512 L151 403 Q170 456 221 490 Q274 525 340 525 Q430 525 483 462 Q537 398 537 288 L537 -37 L447 -37 L447 258 Q447 358 414 406 Q383 451 321 451 Q247 451 202 396 Q157 342 157 258 Z" /><glyph glyph-name="uni1F9" unicode="&#x1f9;" d="M315 568 L175 743 L267 743 L383 568 L315 568 ZM157 258 L157 -37 L67 -37 L67 512 L151 512 L151 403 Q170 456 221 490 Q274 525 340 525 Q430 525 483 462 Q537 398 537 288 L537 -37 L447 -37 L447 258 Q447 358 414 406 Q383 451 321 451 Q247 451 202 396 Q157 342 157 258 Z" /><glyph glyph-name="o" unicode="o" d="M296 452 Q213 452 167 393 Q122 336 122 238 Q122 140 167 83 Q213 24 296 24 Q377 24 423 83 Q469 141 469 238 Q469 335 423 393 Q377 452 296 452 ZM32 238 Q32 370 107 449 Q180 525 296 525 Q413 525 485 449 Q559 371 559 238 Q559 106 484 27 Q411 -49 296 -49 Q177 -49 105 27 Q32 104 32 238 Z" /><glyph glyph-name="oacute" unicode="ó" d="M296 452 Q213 452 167 393 Q122 336 122 238 Q122 140 167 83 Q213 24 296 24 Q377 24 423 83 Q469 141 469 238 Q469 335 423 393 Q377 452 296 452 ZM32 238 Q32 370 107 449 Q180 525 296 525 Q413 525 485 449 Q559 371 559 238 Q559 106 484 27 Q411 -49 296 -49 Q177 -49 105 27 Q32 104 32 238 ZM233 569 L349 743 L441 743 L301 569 L233 569 Z" /><glyph glyph-name="uni1D2" unicode="&#x1d2;" d="M296 452 Q213 452 167 393 Q122 336 122 238 Q122 140 167 83 Q213 24 296 24 Q377 24 423 83 Q469 141 469 238 Q469 335 423 393 Q377 452 296 452 ZM32 238 Q32 370 107 449 Q180 525 296 525 Q413 525 485 449 Q559 371 559 238 Q559 106 484 27 Q411 -49 296 -49 Q177 -49 105 27 Q32 104 32 238 ZM157 748 L221 748 L307 625 L396 748 L455 748 L343 571 L271 571 L157 748 Z" /><glyph glyph-name="ograve" unicode="ò" d="M296 452 Q213 452 167 393 Q122 336 122 238 Q122 140 167 83 Q213 24 296 24 Q377 24 423 83 Q469 141 469 238 Q469 335 423 393 Q377 452 296 452 ZM32 238 Q32 370 107 449 Q180 525 296 525 Q413 525 485 449 Q559 371 559 238 Q559 106 484 27 Q411 -49 296 -49 Q177 -49 105 27 Q32 104 32 238 ZM172 743 L263 743 L380 569 L311 569 L172 743 Z" /><glyph glyph-name="uni14D" unicode="&#x14d;" d="M296 452 Q213 452 167 393 Q122 336 122 238 Q122 140 167 83 Q213 24 296 24 Q377 24 423 83 Q469 141 469 238 Q469 335 423 393 Q377 452 296 452 ZM32 238 Q32 370 107 449 Q180 525 296 525 Q413 525 485 449 Q559 371 559 238 Q559 106 484 27 Q411 -49 296 -49 Q177 -49 105 27 Q32 104 32 238 ZM170 599 L170 659 L442 659 L442 599 L170 599 Z" /><glyph glyph-name="p" unicode="p" d="M346 525 Q447 525 513 452 Q584 373 583 239 Q582 106 512 27 Q445 -49 339 -49 Q281 -49 231 -25 Q184 -3 156 34 L156 -237 L66 -237 L66 513 L147 513 L150 419 L150 417 Q178 468 233 497 Q287 526 346 525 ZM148 245 L148 222 Q148 129 198 74 Q247 20 331 20 Q402 20 448 81 Q494 142 494 242 Q494 339 447 396 Q402 451 329 451 Q252 451 201 395 Q148 337 148 245 Z" /><glyph glyph-name="q" unicode="q" d="M123 238 Q123 139 171 81 Q218 24 296 24 Q370 24 418 78 Q468 134 468 226 L468 248 Q468 342 420 398 Q373 452 298 452 Q221 452 173 396 Q123 338 123 238 ZM32 233 Q33 370 115 451 Q189 525 296 525 Q355 525 404 496 Q448 470 468 431 L471 513 L551 513 L551 -237 L462 -237 L462 45 Q440 4 392 -22 Q341 -49 278 -49 Q170 -49 103 22 Q31 98 32 233 Z" /><glyph glyph-name="r" unicode="r" d="M363 515 L344 427 Q329 434 304 434 Q242 434 199 370 Q157 307 157 216 L157 -37 L66 -37 L66 513 L147 513 L151 379 Q170 450 219 490 Q262 525 311 525 Q338 525 363 515 Z" /><glyph glyph-name="s" unicode="s" d="M227 -48 Q111 -48 37 12 L68 83 Q144 27 229 27 Q278 27 305 47 Q332 67 332 104 Q332 137 308 159 Q283 182 222 205 Q132 237 94 275 Q56 313 56 370 Q56 439 109 482 Q161 525 245 525 Q331 525 407 478 L377 406 Q310 450 242 450 Q196 450 171 431 Q145 412 145 377 Q145 348 169 328 Q193 307 253 286 Q344 252 383 213 Q422 173 422 114 Q422 39 370 -4 Q317 -48 227 -48 Z" /><glyph glyph-name="t" unicode="t" d="M109 658 L199 658 L199 513 L347 513 L347 438 L199 438 L199 136 Q199 78 218 53 Q235 30 273 30 Q308 30 341 44 L353 -24 Q319 -49 253 -49 Q182 -49 145 -6 Q109 36 109 113 L109 438 L21 438 L21 513 L109 513 L109 658 Z" /><glyph glyph-name="u" unicode="u" d="M517 514 L517 -37 L433 -37 L430 56 Q411 10 362 -19 Q312 -49 249 -49 Q161 -49 108 11 Q55 71 55 174 L55 514 L145 514 L145 208 Q145 115 174 72 Q204 28 268 28 Q337 28 380 77 Q426 129 426 218 L426 514 L517 514 Z" /><glyph glyph-name="uacute" unicode="ú" d="M517 514 L517 -37 L433 -37 L430 56 Q411 10 362 -19 Q312 -49 249 -49 Q161 -49 108 11 Q55 71 55 174 L55 514 L145 514 L145 208 Q145 115 174 72 Q204 28 268 28 Q337 28 380 77 Q426 129 426 218 L426 514 L517 514 ZM213 569 L331 743 L422 743 L282 569 L213 569 Z" /><glyph glyph-name="uni1D4" unicode="&#x1d4;" d="M517 514 L517 -37 L433 -37 L430 56 Q411 10 362 -19 Q312 -49 249 -49 Q161 -49 108 11 Q55 71 55 174 L55 514 L145 514 L145 208 Q145 115 174 72 Q204 28 268 28 Q337 28 380 77 Q426 129 426 218 L426 514 L517 514 ZM138 748 L202 748 L288 625 L377 748 L437 748 L324 571 L251 571 L138 748 Z" /><glyph glyph-name="udieresis" unicode="ü" d="M517 514 L517 -37 L433 -37 L430 56 Q411 10 362 -19 Q312 -49 249 -49 Q161 -49 108 11 Q55 71 55 174 L55 514 L145 514 L145 208 Q145 115 174 72 Q204 28 268 28 Q337 28 380 77 Q426 129 426 218 L426 514 L517 514 ZM132 654 Q132 676 147 691 Q163 707 185 707 Q206 707 222 691 Q238 675 238 654 Q238 632 222 615 Q207 599 185 599 Q162 599 147 615 Q132 631 132 654 ZM337 654 Q337 675 352 691 Q367 707 389 707 Q411 707 427 691 Q443 675 443 654 Q443 631 427 615 Q411 599 389 599 Q367 599 352 615 Q337 631 337 654 Z" /><glyph glyph-name="uni1D8" unicode="&#x1d8;" d="M517 514 L517 -37 L433 -37 L430 56 Q411 10 362 -19 Q312 -49 249 -49 Q161 -49 108 11 Q55 71 55 174 L55 514 L145 514 L145 208 Q145 115 174 72 Q204 28 268 28 Q337 28 380 77 Q426 129 426 218 L426 514 L517 514 ZM132 654 Q132 676 147 691 Q163 707 185 707 Q206 707 222 691 Q238 675 238 654 Q238 632 222 615 Q207 599 185 599 Q162 599 147 615 Q132 631 132 654 ZM213 757 L331 904 L422 904 L282 757 L213 757 ZM337 654 Q337 675 352 691 Q367 707 389 707 Q411 707 427 691 Q443 675 443 654 Q443 631 427 615 Q411 599 389 599 Q367 599 352 615 Q337 631 337 654 Z" /><glyph glyph-name="uni1DA" unicode="&#x1da;" d="M429 56 Q410 10 362 -19 Q312 -49 249 -49 Q161 -49 108 11 Q55 71 55 174 L55 514 L145 514 L145 209 Q145 115 174 72 Q204 28 268 28 Q337 28 380 77 Q426 129 426 218 L426 514 L517 512 L517 -37 L429 -37 L429 56 ZM185 600 Q163 600 147 616 Q132 631 132 653 Q132 675 147 690 Q163 706 185 706 Q207 706 223 690 Q238 675 238 653 Q238 631 223 616 Q207 600 185 600 ZM390 600 Q368 600 353 616 Q338 632 338 653 Q338 674 353 690 Q368 706 390 706 Q411 706 427 690 Q443 674 443 653 Q443 632 427 616 Q411 600 390 600 ZM127 895 L191 895 L287 803 L382 895 L447 895 L330 756 L243 756 L127 895 Z" /><glyph glyph-name="uni1DC" unicode="&#x1dc;" d="M429 56 Q410 10 362 -19 Q312 -49 249 -49 Q161 -49 108 11 Q55 71 55 174 L55 514 L145 514 L145 209 Q145 115 174 72 Q204 28 268 28 Q337 28 380 77 Q426 129 426 218 L426 514 L517 512 L517 -37 L429 -37 L429 56 ZM185 600 Q163 600 147 616 Q132 631 132 653 Q132 675 147 690 Q163 706 185 706 Q207 706 223 690 Q238 675 238 653 Q238 631 223 616 Q207 600 185 600 ZM390 600 Q368 600 353 616 Q338 632 338 653 Q338 674 353 690 Q368 706 390 706 Q411 706 427 690 Q443 674 443 653 Q443 632 427 616 Q411 600 390 600 ZM249 756 L109 897 L198 897 L315 756 L249 756 Z" /><glyph glyph-name="uni1D6" unicode="&#x1d6;" d="M517 514 L517 -37 L433 -37 L430 56 Q411 10 362 -19 Q312 -49 249 -49 Q161 -49 108 11 Q55 71 55 174 L55 514 L145 514 L145 208 Q145 115 174 72 Q204 28 268 28 Q337 28 380 77 Q426 129 426 218 L426 514 L517 514 ZM132 654 Q132 676 147 691 Q163 707 185 707 Q206 707 222 691 Q238 675 238 654 Q238 632 222 615 Q207 599 185 599 Q162 599 147 615 Q132 631 132 654 ZM150 788 L150 848 L423 848 L423 788 L150 788 ZM337 654 Q337 675 352 691 Q367 707 389 707 Q411 707 427 691 Q443 675 443 654 Q443 631 427 615 Q411 599 389 599 Q367 599 352 615 Q337 631 337 654 Z" /><glyph glyph-name="ugrave" unicode="ù" d="M517 514 L517 -37 L433 -37 L430 56 Q411 10 362 -19 Q312 -49 249 -49 Q161 -49 108 11 Q55 71 55 174 L55 514 L145 514 L145 208 Q145 115 174 72 Q204 28 268 28 Q337 28 380 77 Q426 129 426 218 L426 514 L517 514 ZM152 743 L244 743 L362 569 L293 569 L152 743 Z" /><glyph glyph-name="uni16B" unicode="&#x16b;" d="M517 514 L517 -37 L433 -37 L430 56 Q411 10 362 -19 Q312 -49 249 -49 Q161 -49 108 11 Q55 71 55 174 L55 514 L145 514 L145 208 Q145 115 174 72 Q204 28 268 28 Q337 28 380 77 Q426 129 426 218 L426 514 L517 514 ZM150 599 L150 659 L423 659 L423 599 L150 599 Z" /><glyph glyph-name="v" unicode="v" d="M457 513 L552 513 L319 -37 L227 -37 L0 513 L100 513 L178 310 Q256 109 276 48 Q311 149 374 305 L457 513 Z" /><glyph glyph-name="w" unicode="w" d="M369 513 L461 513 L530 269 Q560 172 589 75 Q613 181 636 265 L699 513 L794 513 L634 -37 L528 -37 L445 239 Q419 328 409 386 Q403 359 370 243 L280 -37 L173 -37 L19 513 L114 513 L174 286 Q204 172 233 58 Q266 168 301 279 L369 513 Z" /><glyph glyph-name="x" unicode="x" d="M2 -37 L205 236 L2 513 L111 513 L271 290 L423 513 L533 513 L327 232 L531 -37 L420 -37 L263 178 L112 -37 L2 -37 Z" /><glyph glyph-name="y" unicode="y" d="M440 513 L536 513 L320 -18 L285 -109 Q254 -190 210 -223 Q175 -249 122 -249 Q72 -249 37 -236 L53 -160 Q89 -171 116 -171 Q146 -171 163 -159 Q181 -146 196 -110 Q224 -43 227 -36 L9 513 L109 513 L183 310 Q243 146 273 65 Q319 185 364 305 L440 513 Z" /><glyph glyph-name="z" unicode="z" d="M329 434 L22 434 L22 512 L446 512 L446 462 L262 222 Q251 208 122 40 L452 40 L452 -37 L8 -37 L8 15 L203 271 Q287 379 329 434 Z" /><glyph glyph-name="pi" unicode="&#x3c0;" d="M589 30 L589 -36 Q560 -48 518 -48 Q404 -48 404 93 L404 434 L214 434 L214 155 Q214 80 207 43 Q199 1 175 -37 L78 -37 Q106 4 116 44 Q126 84 126 158 L126 434 L0 434 L0 505 L606 505 L606 434 L494 434 L494 106 Q494 58 508 39 Q520 22 546 22 Q573 22 589 30 Z" /><glyph glyph-name="zero" unicode="0" d="M307 24 Q384 25 429 108 Q473 192 474 346 Q474 500 429 586 Q385 670 307 670 Q229 670 185 586 Q140 500 140 346 Q141 192 185 108 Q230 25 307 24 ZM307 743 Q430 743 498 639 Q566 535 566 346 Q566 158 498 54 Q430 -49 307 -49 Q184 -49 116 54 Q48 158 48 346 Q48 535 116 639 Q184 743 307 743 Z" /><glyph glyph-name="one" unicode="1" d="M219 -37 L219 600 Q148 538 53 513 L53 610 Q161 640 249 731 L310 731 L310 -37 L219 -37 Z" /><glyph glyph-name="two" unicode="2" d="M41 -37 L41 70 Q37 148 88 210 Q139 272 290 360 Q359 400 386 440 Q411 477 411 534 Q411 589 374 623 Q335 659 270 659 Q184 659 98 589 L49 656 Q148 741 271 743 Q377 743 443 687 Q509 631 509 538 Q509 454 459 390 Q416 335 321 278 Q203 207 167 168 Q133 131 133 79 L133 47 L514 47 L514 -37 L41 -37 Z" /><glyph glyph-name="three" unicode="3" d="M280 -49 Q215 -49 156 -24 Q94 2 56 47 L105 114 Q179 33 278 35 Q350 35 396 79 Q444 125 444 198 Q444 272 396 318 Q349 363 276 363 Q242 363 209 348 L187 401 L378 647 L81 647 L81 731 L510 731 L510 689 L315 438 Q396 437 463 375 Q532 312 536 201 Q536 94 470 25 Q399 -49 280 -49 Z" /><glyph glyph-name="four" unicode="4" d="M387 -37 L387 109 L33 109 L33 167 L404 732 L475 732 L475 194 L576 194 L576 109 L477 109 L477 -37 L387 -37 ZM151 194 L390 194 L390 569 L151 194 Z" /><glyph glyph-name="five" unicode="5" d="M270 35 Q340 35 385 79 Q432 125 432 203 Q432 281 396 324 Q358 369 287 369 Q247 369 209 356 Q168 342 141 315 L70 328 L102 731 L479 731 L479 647 L185 647 L162 398 Q220 444 307 444 Q402 444 463 377 Q523 311 523 209 Q523 96 455 24 Q386 -49 272 -49 Q136 -49 48 35 L95 106 Q173 35 270 35 Z" /><glyph glyph-name="six" unicode="6" d="M307 -49 Q200 -49 130 18 Q58 87 58 196 Q58 295 123 411 Q194 547 329 731 L428 731 Q320 588 207 396 Q260 442 340 443 Q434 443 495 382 Q561 316 561 204 Q561 84 486 15 Q416 -49 307 -49 ZM148 204 Q148 124 191 79 Q233 35 307 35 Q467 35 469 204 Q470 281 428 327 Q387 372 320 372 Q238 371 194 325 Q149 280 148 204 Z" /><glyph glyph-name="seven" unicode="7" d="M518 731 L518 664 Q329 362 268 -37 L169 -37 Q242 351 410 641 L37 641 L37 731 L518 731 Z" /><glyph glyph-name="eight" unicode="8" d="M313 412 Q377 412 415 449 Q450 483 450 539 Q450 595 414 627 Q378 659 313 659 Q248 659 212 627 Q176 595 176 539 Q176 484 212 449 Q250 412 313 412 ZM313 35 Q391 35 432 74 Q472 112 472 180 Q472 249 433 289 Q391 332 313 332 Q235 332 193 289 Q154 249 154 180 Q154 113 195 74 Q236 35 313 35 ZM313 743 Q411 743 474 687 Q537 631 537 545 Q537 489 508 442 Q479 395 428 372 Q496 348 532 292 Q564 242 564 176 Q564 78 498 16 Q429 -49 313 -49 Q197 -49 128 16 Q62 78 62 176 Q62 242 94 292 Q130 348 198 372 Q147 395 118 442 Q89 489 89 545 Q89 631 152 687 Q215 743 313 743 Z" /><glyph glyph-name="nine" unicode="9" d="M299 743 Q405 743 477 676 Q550 608 550 500 Q552 400 484 283 Q408 139 278 -37 L180 -37 Q297 120 401 297 Q348 251 266 250 Q175 250 112 316 Q47 384 47 490 Q47 603 122 675 Q193 743 299 743 ZM136 490 Q136 414 179 367 Q221 321 289 321 Q367 321 413 368 Q458 414 458 490 Q458 570 415 615 Q373 659 299 659 Q224 659 180 614 Q136 569 136 490 Z" /><glyph glyph-name="period" unicode="." d="M133 -49 Q104 -49 83 -28 Q63 -8 63 22 Q63 52 83 73 Q103 94 133 94 Q162 94 182 73 Q202 52 202 22 Q202 -7 182 -28 Q162 -49 133 -49 Z" /><glyph glyph-name="comma" unicode="," d="M78 84 L183 92 Q165 -45 98 -174 L27 -180 Q66 -61 78 84 Z" /><glyph glyph-name="colon" unicode=":" d="M133 -49 Q101 -49 82 -30 Q63 -11 63 22 Q63 54 82 74 Q101 94 133 94 Q164 94 183 74 Q202 54 202 22 Q202 -11 183 -30 Q164 -49 133 -49 ZM133 382 Q101 382 82 401 Q63 420 63 453 Q63 485 82 505 Q101 525 133 525 Q164 525 183 505 Q202 485 202 453 Q202 421 183 401 Q165 382 133 382 Z" /><glyph glyph-name="semicolon" unicode=";" d="M60 453 Q60 483 80 504 Q100 525 130 525 Q159 525 179 504 Q199 483 199 453 Q199 424 179 403 Q159 382 130 382 Q100 382 80 403 Q60 424 60 453 ZM78 84 L183 92 Q165 -45 98 -174 L27 -180 Q66 -61 78 84 Z" /><glyph glyph-name="ellipsis" unicode="&#x2026;" d="M499 288 Q473 288 454 307 Q435 326 435 352 Q435 378 454 397 Q474 417 499 417 Q524 417 543 397 Q562 377 562 352 Q562 326 543 307 Q524 288 499 288 ZM102 352 Q102 378 121 397 Q141 417 166 417 Q191 417 210 397 Q229 377 229 352 Q229 326 210 307 Q191 288 166 288 Q140 288 121 307 Q102 326 102 352 ZM766 352 Q766 378 785 397 Q805 417 830 417 Q855 417 874 397 Q893 377 893 352 Q893 326 874 307 Q855 288 830 288 Q804 288 785 307 Q766 326 766 352 Z" /><glyph glyph-name="exclam" unicode="!" d="M103 165 L91 731 L194 731 L181 165 L103 165 ZM73 22 Q73 52 93 73 Q113 94 142 94 Q171 94 191 73 Q211 52 211 22 Q211 -7 191 -28 Q171 -49 142 -49 Q113 -49 93 -28 Q73 -7 73 22 Z" /><glyph glyph-name="question" unicode="?" d="M209 -50 Q178 -50 160 -32 Q142 -14 142 19 Q142 51 160 70 Q178 89 209 89 Q241 89 259 70 Q277 51 277 19 Q277 -14 259 -32 Q241 -50 209 -50 ZM16 637 Q94 742 216 742 Q307 742 360 693 Q413 644 413 563 Q416 466 322 373 Q277 326 262 286 Q249 251 249 188 L249 163 L169 163 L169 192 Q169 263 188 314 Q207 364 251 415 Q290 459 305 488 Q322 520 322 556 Q322 603 292 631 Q262 659 210 659 Q131 659 74 578 L16 637 Z" /><glyph glyph-name="uniB7" unicode="·" d="M251 278 Q222 278 201 298 Q180 318 180 347 Q180 375 201 396 Q222 417 251 417 Q280 417 300 396 Q320 375 320 347 Q320 318 300 298 Q280 278 251 278 Z" /><glyph glyph-name="asterisk" unicode="*" d="M275 762 L275 611 L418 659 L441 587 L300 542 L388 421 L329 377 L240 498 L151 377 L92 421 L179 541 L36 587 L59 659 L200 612 L200 762 L275 762 Z" /><glyph glyph-name="numbersign" unicode="#" d="M122 -37 L155 161 L15 161 L30 232 L170 232 L207 451 L64 451 L78 524 L222 524 L258 731 L341 731 L304 524 L455 524 L491 731 L574 731 L537 524 L671 524 L657 451 L522 451 L484 232 L625 232 L610 161 L471 161 L435 -37 L354 -37 L389 161 L239 161 L203 -37 L122 -37 ZM251 232 L403 232 L442 451 L291 451 L251 232 Z" /><glyph glyph-name="slash" unicode="/" d="M10 -134 L377 763 L459 763 L94 -134 L10 -134 Z" /><glyph glyph-name="backslash" unicode="\" d="M459 -134 L376 -134 L10 763 L93 763 L459 -134 Z" /><glyph glyph-name="hyphen" unicode="-" d="M63 309 L63 391 L392 391 L392 309 L63 309 Z" /><glyph glyph-name="emdash" unicode="&#x2014;" d="M16 309 L16 391 L984 391 L984 309 L16 309 Z" /><glyph glyph-name="underscore" unicode="_" d="M0 -168 L0 -89 L480 -89 L480 -168 L0 -168 Z" /><glyph glyph-name="parenleft" unicode="(" d="M186 264 Q186 -1 325 -196 L271 -237 Q106 -28 106 264 Q106 556 271 765 L325 724 Q186 528 186 264 Z" /><glyph glyph-name="parenright" unicode=")" d="M180 264 Q180 528 41 724 L95 765 Q260 556 260 264 Q260 -28 95 -237 L41 -196 Q180 -1 180 264 Z" /><glyph glyph-name="braceleft" unicode="{" d="M294 -245 Q214 -227 176 -183 Q137 -138 137 -59 L137 119 Q137 225 54 229 L54 300 Q138 305 137 414 L137 585 Q137 665 176 711 Q214 756 294 774 L313 700 Q266 685 245 656 Q223 626 223 575 L223 403 Q223 291 144 266 Q185 251 206 211 Q225 175 223 127 L223 -41 Q223 -101 243 -130 Q262 -157 313 -173 L294 -245 Z" /><glyph glyph-name="braceright" unicode="}" d="M72 -245 L53 -173 Q104 -157 123 -130 Q143 -101 143 -41 L143 127 Q143 239 222 264 Q181 279 160 319 Q141 355 143 403 L143 575 Q143 626 121 656 Q100 685 53 700 L72 774 Q152 756 190 711 Q229 665 229 585 L229 414 Q228 305 312 300 L312 229 Q229 225 229 119 L229 -59 Q229 -138 190 -183 Q152 -227 72 -245 Z" /><glyph glyph-name="bracketleft" unicode="[" d="M111 -225 L111 763 L338 763 L338 680 L200 680 L200 -145 L338 -145 L338 -225 L111 -225 Z" /><glyph glyph-name="bracketright" unicode="]" d="M255 -225 L28 -225 L28 -145 L166 -145 L166 680 L28 680 L28 763 L255 763 L255 -225 Z" /><glyph glyph-name="quotedblleft" unicode="&#x201c;" d="M109 649 Q144 653 164 634 Q182 617 182 585 Q182 557 163 538 Q144 519 114 519 Q49 519 46 600 Q46 658 70 705 Q96 756 148 787 Q161 776 183 754 Q117 708 109 649 ZM308 649 Q342 653 362 634 Q381 616 381 585 Q381 557 362 538 Q343 519 313 519 Q248 519 245 600 Q245 658 269 705 Q295 756 347 787 Q371 765 382 754 Q316 708 308 649 Z" /><glyph glyph-name="quotedblright" unicode="&#x201d;" d="M314 647 Q280 643 260 662 Q241 680 241 711 Q241 739 260 758 Q279 777 309 777 Q374 777 377 697 Q377 638 353 591 Q327 540 275 509 Q258 525 240 542 Q306 588 314 647 ZM115 647 Q81 643 61 662 Q42 680 42 711 Q42 739 61 758 Q80 777 110 777 Q175 777 178 697 Q178 638 154 591 Q128 540 76 509 Q59 525 41 542 Q106 587 115 647 Z" /><glyph glyph-name="quoteleft" unicode="&#x2018;" d="M116 649 Q151 653 171 634 Q190 616 190 585 Q190 557 171 538 Q152 519 122 519 Q57 519 54 600 Q54 658 78 705 Q104 756 156 787 Q180 765 191 754 Q126 710 116 649 Z" /><glyph glyph-name="quoteright" unicode="&#x2019;" d="M115 647 Q81 643 61 662 Q42 680 42 711 Q42 739 61 758 Q80 777 110 777 Q175 777 178 697 Q178 638 154 591 Q128 540 76 509 Q59 525 41 542 Q106 587 115 647 Z" /><glyph glyph-name="quotedbl" unicode="&quot;" d="M69 492 L57 731 L156 731 L143 492 L69 492 ZM229 731 L328 731 L315 492 L241 492 L229 731 Z" /><glyph glyph-name="quotesingle" unicode="&#39;" d="M69 492 L57 731 L156 731 L143 492 L69 492 Z" /><glyph glyph-name="at" unicode="@" d="M513 -162 Q309 -162 185 -63 Q45 49 45 265 Q50 481 175 603 Q319 744 529 745 Q712 745 822 648 Q940 544 940 351 Q940 214 871 125 Q803 37 703 37 Q646 37 618 66 Q593 93 598 136 Q552 46 434 45 Q355 45 305 96 Q252 150 252 243 Q252 378 337 463 Q414 540 514 540 Q569 540 605 515 Q636 493 648 457 L666 521 L737 521 L677 212 Q665 153 674 129 Q683 105 716 105 Q776 105 816 165 Q860 232 860 349 Q860 512 771 592 Q687 668 527 668 Q358 668 246 557 Q132 444 132 269 Q132 89 247 -3 Q347 -83 511 -83 Q647 -80 739 -40 L761 -109 Q644 -162 513 -162 ZM338 262 Q338 194 369 153 Q402 110 459 110 Q543 110 589 197 Q626 267 626 354 Q626 416 594 450 Q566 480 526 480 Q448 480 393 416 Q338 352 338 262 Z" /><glyph glyph-name="ampersand" unicode="&amp;" d="M313 -49 Q193 -49 122 11 Q53 69 53 163 Q53 236 97 296 Q146 362 240 400 Q149 490 150 573 Q150 651 204 699 Q256 745 338 745 Q420 745 473 698 Q525 652 525 581 Q525 451 371 375 Q517 222 572 154 Q629 219 653 305 Q673 376 673 473 L673 495 L753 495 L753 480 Q753 248 616 99 Q649 61 686 46 Q715 34 758 33 Q794 33 816 42 L834 -32 Q801 -48 751 -48 Q694 -48 654 -29 Q611 -9 562 44 Q457 -49 313 -49 ZM137 177 Q137 114 184 75 Q235 33 327 33 Q434 33 515 99 Q396 234 290 350 Q137 297 137 177 ZM232 579 Q232 502 327 422 Q445 483 449 571 Q449 619 414 648 Q382 674 336 674 Q289 674 260 647 Q232 621 232 579 Z" /><glyph glyph-name="section" unicode="§" d="M421 119 Q426 154 426 176 Q426 270 366 343 Q300 424 129 521 Q122 498 122 468 Q122 373 185 297 Q253 215 421 119 ZM238 -104 Q116 -104 34 -24 L86 43 Q149 -25 238 -25 Q341 -25 393 59 Q201 155 115 257 Q37 350 37 464 Q37 585 111 663 Q187 743 311 743 Q424 743 505 664 L451 597 Q394 665 310 665 Q206 665 153 581 Q347 486 432 385 Q510 293 510 176 Q510 53 437 -24 Q361 -104 238 -104 Z" /><glyph glyph-name="degree" unicode="°" d="M169 510 Q206 510 230 534 Q254 558 254 596 Q254 634 230 658 Q206 682 169 682 Q130 682 106 658 Q82 634 82 596 Q82 558 106 534 Q130 510 169 510 ZM169 449 Q103 449 62 490 Q21 531 21 596 Q21 661 62 702 Q103 743 169 743 Q234 743 275 702 Q316 661 316 596 Q316 531 275 490 Q234 449 169 449 Z" /><glyph glyph-name="uni2032" unicode="&#x2032;" d="M167 731 L81 469 L27 469 L81 731 L167 731 Z" /><glyph glyph-name="uni2033" unicode="&#x2033;" d="M332 731 L245 469 L191 469 L245 731 L332 731 ZM27 469 L81 731 L167 731 L81 469 L27 469 Z" /><glyph glyph-name="bar" unicode="|" d="M91 -295 L91 803 L170 803 L170 -295 L91 -295 Z" /><glyph glyph-name="uni2116" unicode="&#x2116;" d="M91 -37 L91 731 L165 731 L452 331 Q515 244 607 111 L611 111 Q606 208 606 354 L606 731 L696 731 L696 -37 L616 -37 L387 280 Q275 436 183 571 L179 571 Q181 479 181 356 L181 -37 L91 -37 ZM785 176 L785 249 L1189 249 L1189 176 L785 176 ZM795 532 Q795 635 854 692 Q908 744 996 744 Q1082 744 1132 694 Q1186 640 1186 536 Q1186 447 1139 393 Q1085 331 983 331 Q900 331 849 382 Q795 436 795 532 ZM869 531 Q869 468 900 432 Q932 394 991 394 Q1056 394 1085 435 Q1110 471 1110 541 Q1110 602 1081 639 Q1050 679 996 679 Q931 679 898 636 Q869 598 869 531 Z" /><glyph glyph-name="uni2103" unicode="&#x2103;" d="M169 510 Q206 510 230 534 Q254 558 254 596 Q254 634 230 658 Q206 682 169 682 Q130 682 106 658 Q82 634 82 596 Q82 558 106 534 Q130 510 169 510 ZM169 449 Q103 449 62 490 Q21 531 21 596 Q21 661 62 702 Q103 743 169 743 Q234 743 275 702 Q316 661 316 596 Q316 531 275 490 Q234 449 169 449 ZM728 -49 Q568 -49 466 44 Q353 148 352 339 Q351 527 464 637 Q574 743 753 743 Q862 743 946 695 L914 622 Q833 661 754 661 Q617 661 535 582 Q449 499 449 351 Q449 187 540 105 Q618 34 747 34 Q836 34 914 67 L945 -2 Q862 -49 728 -49 Z" /><glyph glyph-name="uni2109" unicode="&#x2109;" d="M172 515 Q205 515 226 537 Q247 559 247 593 Q247 626 226 648 Q205 670 172 670 Q139 670 118 648 Q97 626 97 593 Q97 559 118 537 Q139 515 172 515 ZM172 441 Q106 441 63 484 Q21 526 21 593 Q21 659 63 701 Q105 743 172 743 Q238 743 280 701 Q322 659 322 593 Q322 527 280 484 Q238 441 172 441 ZM512 285 L512 -37 L421 -37 L421 731 L859 731 L859 649 L512 649 L512 366 L816 366 L816 285 L512 285 Z" /><glyph glyph-name="currency" unicode="¤" d="M280 509 Q215 509 177 461 Q140 414 140 337 Q140 260 177 213 Q215 165 280 165 Q345 165 382 213 Q418 260 418 337 Q418 414 382 461 Q345 509 280 509 ZM30 101 L114 182 Q68 242 68 337 Q68 426 112 486 L30 564 L80 615 L159 531 Q211 566 280 566 Q353 566 402 530 L481 615 L531 564 L448 485 Q490 426 490 337 Q490 244 445 183 L531 101 L481 50 L398 139 Q349 106 280 106 Q212 106 163 138 L80 50 L30 101 Z" /><glyph glyph-name="dollar" unicode="$" d="M237 -105 L237 -6 Q117 5 34 78 L68 153 Q171 69 283 69 Q344 69 378 96 Q413 124 413 175 Q413 227 381 256 Q350 284 268 311 Q162 347 113 393 Q62 441 61 511 Q60 590 110 641 Q157 689 237 702 L237 799 L308 799 L308 706 Q401 700 472 649 L439 576 Q368 628 284 628 Q223 628 186 599 Q150 571 150 524 Q150 479 184 450 Q217 422 298 394 Q410 357 453 315 Q501 268 501 185 Q501 100 444 48 Q393 1 308 -7 L308 -105 L237 -105 Z" /><glyph glyph-name="fraction" unicode="&#x2215;" d="M636 763 L719 763 L364 -134 L281 -134 L636 763 Z" /><glyph glyph-name="uni226F" unicode="&#x226f;" d="M364 438 L584 323 L584 256 L282 99 L254 -19 L179 -19 L197 55 L84 -4 L84 102 L224 168 L276 387 L84 478 L84 583 L297 472 L327 598 L402 598 L364 438 ZM344 355 L309 209 L476 288 L476 292 L344 355 Z" /><glyph glyph-name="uni226E" unicode="&#x226e;" d="M480 529 L584 583 L584 478 L453 416 L399 190 L584 102 L584 -4 L378 103 L349 -19 L274 -19 L312 138 L84 256 L84 323 L395 485 L422 598 L497 598 L480 529 ZM369 376 L192 292 L192 288 L332 222 L369 376 Z" /><glyph glyph-name="plus" unicode="+" d="M294 251 L72 251 L72 328 L294 328 L294 552 L375 552 L375 328 L597 328 L597 251 L375 251 L375 27 L294 27 L294 251 Z" /><glyph glyph-name="multiply" unicode="×" d="M97 106 L279 287 L97 470 L153 527 L334 344 L517 527 L573 470 L391 287 L573 106 L517 49 L334 231 L153 49 L97 106 Z" /><glyph glyph-name="divide" unicode="÷" d="M271 83 Q271 112 287 129 Q303 146 332 146 Q360 146 377 129 Q394 112 394 83 Q394 55 378 40 Q361 24 332 24 Q272 26 271 83 ZM271 492 Q271 521 287 538 Q303 555 332 555 Q360 555 377 538 Q394 521 394 492 Q394 464 378 448 Q361 431 332 431 Q304 431 287 448 Q271 464 271 492 ZM71 328 L596 328 L596 249 L71 249 L71 328 Z" /><glyph glyph-name="equal" unicode="=" d="M84 444 L584 444 L584 365 L84 365 L84 444 ZM84 213 L584 213 L584 135 L84 135 L84 213 Z" /><glyph glyph-name="notequal" unicode="&#x2260;" d="M409 444 L584 444 L584 365 L390 365 L353 213 L584 213 L584 135 L334 135 L297 -19 L222 -19 L259 135 L84 135 L84 213 L278 213 L314 365 L84 365 L84 444 L333 444 L370 598 L446 598 L409 444 Z" /><glyph glyph-name="greater" unicode="&gt;" d="M105 478 L105 583 L564 323 L564 256 L105 -4 L105 102 L455 288 L455 292 L105 478 Z" /><glyph glyph-name="less" unicode="&lt;" d="M564 478 L213 292 L213 288 L564 102 L564 -4 L105 256 L105 323 L564 583 L564 478 Z" /><glyph glyph-name="greaterequal" unicode="&#x2265;" d="M564 42 L564 -37 L105 -37 L105 42 L564 42 ZM450 357 L450 361 L105 518 L105 615 L564 391 L564 324 L105 100 L105 201 L450 357 Z" /><glyph glyph-name="lessequal" unicode="&#x2264;" d="M105 42 L564 42 L564 -37 L105 -37 L105 42 ZM219 357 L564 201 L564 100 L105 324 L105 391 L564 615 L564 518 L219 361 L219 357 Z" /><glyph glyph-name="plusminus" unicode="±" d="M294 319 L72 319 L72 396 L294 396 L294 617 L375 617 L375 396 L597 396 L597 319 L375 319 L375 97 L294 97 L294 319 ZM72 40 L597 40 L597 -37 L72 -37 L72 40 Z" /><glyph glyph-name="approxequal" unicode="&#x2248;" d="M318 370 Q252 399 211 399 Q149 399 96 348 L77 417 Q135 475 213 475 Q272 475 352 440 Q416 413 462 413 Q521 413 574 465 L592 397 Q543 336 457 336 Q397 336 318 370 ZM77 184 Q136 243 213 243 Q272 243 352 208 Q416 180 462 180 Q519 180 574 233 L592 166 Q544 104 457 104 Q395 104 318 138 Q247 168 211 168 Q150 165 96 116 L77 184 Z" /><glyph glyph-name="asciitilde" unicode="~" d="M318 253 Q250 283 211 283 Q150 283 96 231 L77 299 Q137 359 213 359 Q269 359 352 324 Q415 295 462 295 Q518 295 574 348 L592 281 Q544 220 457 220 Q392 220 318 253 Z" /><glyph glyph-name="asciicircum" unicode="^" d="M332 648 L170 296 L81 296 L306 743 L363 743 L588 296 L499 296 L336 648 L332 648 Z" /><glyph glyph-name="infinity" unicode="&#x221e;" d="M244 73 Q156 73 100 131 Q44 189 44 280 Q44 368 102 429 Q161 491 244 491 Q370 491 450 345 Q538 491 655 491 Q744 491 799 434 Q854 377 854 285 Q852 196 797 135 Q741 75 655 73 Q534 73 447 221 Q357 73 244 73 ZM113 280 Q113 221 150 182 Q187 143 244 143 Q338 143 415 284 Q344 424 244 424 Q185 424 149 384 Q113 344 113 280 ZM483 282 Q553 143 655 143 Q713 143 748 182 Q783 221 783 285 Q783 345 746 385 Q710 424 655 424 Q561 424 483 282 Z" /><glyph glyph-name="integral" unicode="&#x222b;" d="M-12 -242 L3 -169 Q32 -185 61 -185 Q109 -185 131 -153 Q155 -118 155 -36 L155 565 Q155 667 204 723 Q250 776 324 776 Q373 776 412 754 L396 680 Q365 697 338 697 Q290 697 268 665 Q244 630 244 547 L244 -54 Q244 -155 195 -212 Q149 -265 75 -265 Q26 -265 -12 -242 Z" /><glyph glyph-name="product" unicode="&#x220f;" d="M700 731 L700 -251 L614 -251 L614 653 L183 653 L183 -251 L97 -251 L97 731 L700 731 Z" /><glyph glyph-name="summation" unicode="&#x2211;" d="M17 -195 L366 252 L38 684 L38 731 L588 731 L588 652 L162 652 L469 256 L144 -160 L588 -160 L588 -237 L17 -237 L17 -195 Z" /><glyph glyph-name="radical" unicode="&#x221a;" d="M534 647 L348 -37 L261 -37 L114 326 L34 326 L34 410 L170 410 L303 60 L478 731 L662 731 L662 647 L534 647 Z" /><glyph glyph-name="percent" unicode="%" d="M147 -36 L644 732 L731 732 L235 -36 L147 -36 ZM40 550 Q40 637 83 690 Q127 745 205 745 Q284 745 324 692 Q359 645 359 560 Q359 474 318 421 Q275 366 200 365 Q123 365 80 419 Q40 470 40 550 ZM118 555 Q118 438 201 438 Q283 438 283 555 Q283 605 266 635 Q245 671 203 671 Q161 671 138 635 Q118 603 118 555 ZM519 136 Q519 222 562 275 Q607 330 684 330 Q763 330 803 277 Q838 230 838 145 Q838 59 797 6 Q754 -49 679 -49 Q602 -50 559 5 Q519 56 519 136 ZM597 140 Q597 23 680 23 Q724 23 745 59 Q762 88 762 140 Q762 191 745 220 Q725 255 682 255 Q639 255 617 220 Q597 189 597 140 Z" /><glyph glyph-name="perthousand" unicode="&#x2030;" d="M147 -36 L644 732 L731 732 L235 -36 L147 -36 ZM40 550 Q40 637 83 690 Q127 745 205 745 Q284 745 324 692 Q359 645 359 560 Q359 474 318 421 Q275 366 200 365 Q123 365 80 419 Q40 470 40 550 ZM118 555 Q118 438 201 438 Q283 438 283 555 Q283 605 266 635 Q245 671 203 671 Q161 671 138 635 Q118 603 118 555 ZM519 136 Q519 222 562 275 Q607 330 684 330 Q763 330 803 277 Q838 230 838 145 Q838 59 797 6 Q754 -49 679 -49 Q602 -50 559 5 Q519 56 519 136 ZM597 140 Q597 23 680 23 Q724 23 745 59 Q762 88 762 140 Q762 191 745 220 Q725 255 682 255 Q639 255 617 220 Q597 189 597 140 ZM913 136 Q913 223 955 275 Q999 330 1077 330 Q1157 330 1197 277 Q1233 229 1233 145 Q1233 59 1191 6 Q1147 -49 1072 -49 Q995 -50 952 5 Q913 55 913 136 ZM991 140 Q991 23 1072 23 Q1155 23 1155 140 Q1155 191 1138 220 Q1118 255 1074 255 Q1032 255 1010 220 Q991 189 991 140 Z" /><glyph glyph-name="uni2236" unicode="&#x2236;" d="M153 80 Q125 80 106 101 Q87 122 87 150 Q87 178 106 198 Q126 219 153 219 Q182 219 202 198 Q221 178 221 150 Q221 121 202 101 Q182 80 153 80 ZM87 553 Q87 582 106 602 Q125 622 153 622 Q183 622 202 602 Q221 582 221 553 Q221 524 202 504 Q182 483 153 483 Q125 483 106 504 Q87 525 87 553 Z" /><glyph glyph-name="dieresis" unicode="¨" d="M54 678 Q31 678 15 694 Q0 709 0 731 Q0 753 15 768 Q31 784 54 784 Q75 784 91 768 Q106 753 106 731 Q106 709 91 694 Q75 678 54 678 ZM205 731 Q205 752 221 768 Q237 784 258 784 Q279 784 295 768 Q311 752 311 731 Q311 710 295 694 Q279 678 258 678 Q237 678 221 694 Q205 710 205 731 Z" /><glyph glyph-name="grave" unicode="`" d="M140 617 L0 791 L92 791 L208 617 L140 617 Z" /><glyph glyph-name="caron" unicode="&#x2c7;" d="M113 597 L0 774 L64 774 L150 652 L239 774 L299 774 L186 597 L113 597 Z" /><glyph glyph-name="uni261" unicode="&#x261;" d="M142 262 Q142 164 186 108 Q231 51 309 51 Q383 51 429 99 Q478 150 478 239 L478 273 Q478 364 430 415 Q385 463 312 463 Q233 463 188 411 Q142 358 142 262 ZM44 250 Q45 383 125 462 Q198 534 306 534 Q364 534 416 505 Q463 479 483 442 L489 520 L563 520 L563 29 Q563 -122 477 -198 Q402 -265 275 -265 Q153 -265 67 -217 L98 -139 Q175 -183 284 -183 Q368 -183 417 -139 Q474 -88 474 16 L474 68 Q420 -15 289 -21 Q184 -21 114 48 Q45 118 44 250 Z" /><glyph glyph-name="uni2C9" unicode="&#x2c9;" d="M1 670 L1 728 L274 728 L274 670 L1 670 Z" /><glyph glyph-name="uni391" unicode="&#x391;" d="M114 -37 L16 -37 L309 731 L411 731 L699 -37 L596 -37 L522 171 L191 171 L114 -37 ZM220 251 L493 251 Q487 268 477 298 Q413 474 356 646 Q310 496 237 298 Q227 268 220 251 Z" /><glyph glyph-name="uni392" unicode="&#x392;" d="M95 731 L357 731 Q456 731 515 684 Q575 636 575 552 Q575 488 540 441 Q504 393 439 372 Q520 360 566 308 Q611 256 611 176 Q611 73 540 18 Q469 -37 334 -37 L95 -37 L95 731 ZM186 42 L347 42 Q516 42 516 179 Q516 322 333 322 L186 322 L186 42 ZM186 401 L321 401 Q395 401 438 437 Q480 472 480 535 Q480 594 443 623 Q406 652 330 652 L186 652 L186 401 Z" /><glyph glyph-name="uni393" unicode="&#x393;" d="M186 -37 L95 -37 L95 731 L544 731 L544 649 L186 649 L186 -37 Z" /><glyph glyph-name="uni394" unicode="&#x394;" d="M21 -37 L21 -2 L294 731 L368 731 L641 -2 L641 -37 L21 -37 ZM133 41 L528 41 L331 589 L133 41 Z" /><glyph glyph-name="uni395" unicode="&#x395;" d="M95 731 L531 731 L531 650 L186 650 L186 393 L489 393 L489 312 L186 312 L186 44 L544 44 L544 -37 L95 -37 L95 731 Z" /><glyph glyph-name="uni396" unicode="&#x396;" d="M25 -37 L25 9 L456 648 L40 648 L40 731 L581 731 L581 685 L146 46 L586 46 L586 -37 L25 -37 Z" /><glyph glyph-name="uni397" unicode="&#x397;" d="M95 731 L186 731 L186 395 L607 395 L607 731 L698 731 L698 -37 L607 -37 L607 314 L186 314 L186 -37 L95 -37 L95 731 Z" /><glyph glyph-name="uni398" unicode="&#x398;" d="M219 388 L598 388 L598 313 L219 313 L219 388 ZM408 -50 Q249 -50 149 54 Q44 163 44 347 Q44 529 152 640 Q254 745 408 745 Q562 745 664 640 Q771 530 771 347 Q771 162 667 54 Q567 -50 408 -50 ZM141 347 Q141 199 218 113 Q291 32 408 32 Q525 32 598 113 Q675 198 675 347 Q675 496 598 581 Q525 662 408 662 Q291 662 218 581 Q141 495 141 347 Z" /><glyph glyph-name="uni399" unicode="&#x399;" d="M95 731 L186 731 L186 -37 L95 -37 L95 731 Z" /><glyph glyph-name="uni39A" unicode="&#x39a;" d="M95 731 L186 731 L186 365 L519 731 L636 731 L277 349 L652 -37 L520 -37 L186 319 L186 -37 L95 -37 L95 731 Z" /><glyph glyph-name="uni39B" unicode="&#x39b;" d="M237 298 L114 -37 L16 -37 L309 731 L411 731 L699 -37 L596 -37 L477 298 Q413 474 356 646 Q310 496 237 298 Z" /><glyph glyph-name="uni39C" unicode="&#x39c;" d="M476 193 L441 193 L285 411 Q209 514 184 564 L181 564 Q185 473 185 364 L185 -37 L95 -37 L95 731 L172 731 L337 494 Q403 400 458 310 L460 310 Q507 393 577 496 L732 731 L808 731 L808 -37 L716 -37 L716 359 Q716 473 720 564 L716 564 Q678 492 619 405 L476 193 Z" /><glyph glyph-name="uni39D" unicode="&#x39d;" d="M95 -37 L95 731 L170 731 L459 336 Q534 231 611 113 L615 113 Q610 210 610 354 L610 731 L701 731 L701 -37 L620 -37 L392 273 Q227 501 187 563 L183 563 Q185 475 185 353 L185 -37 L95 -37 Z" /><glyph glyph-name="uni39E" unicode="&#x39e;" d="M50 731 L529 731 L529 653 L50 653 L50 731 ZM96 405 L486 405 L486 326 L96 326 L96 405 ZM50 41 L529 41 L529 -37 L50 -37 L50 41 Z" /><glyph glyph-name="uni39F" unicode="&#x39f;" d="M408 -50 Q249 -50 149 54 Q44 163 44 347 Q44 529 152 640 Q254 745 408 745 Q562 745 664 640 Q771 530 771 347 Q771 162 667 54 Q567 -50 408 -50 ZM141 347 Q141 199 218 113 Q291 32 408 32 Q525 32 598 113 Q675 198 675 347 Q675 496 598 581 Q525 662 408 662 Q291 662 218 581 Q141 495 141 347 Z" /><glyph glyph-name="uni3A0" unicode="&#x3a0;" d="M95 -37 L95 731 L656 731 L656 -37 L568 -37 L568 652 L183 652 L183 -37 L95 -37 Z" /><glyph glyph-name="uni3A1" unicode="&#x3a1;" d="M95 731 L323 731 Q450 731 519 669 Q585 610 585 503 Q585 386 506 319 Q431 255 307 255 L186 255 L186 -37 L95 -37 L95 731 ZM186 335 L297 335 Q390 335 439 377 Q488 419 488 497 Q488 574 442 613 Q396 652 307 652 L186 652 L186 335 Z" /><glyph glyph-name="uni3A3" unicode="&#x3a3;" d="M37 -37 L37 -14 L350 352 L37 711 L37 731 L531 731 L531 651 L193 651 L458 352 L194 43 L531 43 L531 -37 L37 -37 Z" /><glyph glyph-name="uni3A4" unicode="&#x3a4;" d="M6 649 L6 731 L608 731 L608 649 L352 649 L352 -37 L261 -37 L261 649 L6 649 Z" /><glyph glyph-name="uni3A5" unicode="&#x3a5;" d="M530 731 L628 731 L362 254 L362 -37 L270 -37 L270 252 L4 731 L106 731 L239 491 Q280 416 317 331 L319 331 Q353 405 400 492 L530 731 Z" /><glyph glyph-name="uni3A6" unicode="&#x3a6;" d="M49 346 Q49 488 141 576 Q228 660 369 672 L369 731 L460 731 L460 672 Q599 660 686 576 Q779 487 779 346 Q779 205 687 117 Q600 34 460 22 L460 -37 L369 -37 L369 22 Q229 34 141 118 Q49 207 49 346 ZM691 346 Q691 448 624 515 Q561 578 460 589 L460 105 Q558 116 622 178 Q689 241 691 346 ZM137 346 Q137 246 204 179 Q268 115 369 105 L369 589 Q267 578 204 515 Q137 448 137 346 Z" /><glyph glyph-name="uni3A7" unicode="&#x3a7;" d="M645 -37 L527 -37 L329 275 L133 -37 L22 -37 L275 341 L22 731 L142 731 L336 412 L536 731 L647 731 L388 345 L645 -37 Z" /><glyph glyph-name="uni3A8" unicode="&#x3a8;" d="M314 -37 L314 330 Q182 343 107 443 Q29 546 22 731 L109 731 Q115 586 175 502 Q229 426 314 416 L314 731 L403 731 L403 416 Q490 429 544 503 Q603 585 614 731 L703 731 Q692 543 603 435 Q523 338 403 330 L403 -37 L314 -37 Z" /><glyph glyph-name="uni3A9" unicode="&#x3a9;" d="M335 -37 L57 -37 L57 47 L237 47 Q149 102 99 193 Q53 277 53 365 Q53 539 149 640 Q248 744 426 744 Q592 744 688 641 Q779 543 779 383 Q779 279 735 194 Q688 102 597 47 L779 47 L779 -37 L501 -37 L501 47 Q589 108 636 188 Q685 272 685 371 Q685 498 618 577 Q545 663 419 663 Q296 664 220 578 Q147 496 147 374 Q147 274 203 183 Q254 101 335 48 L335 -37 Z" /><glyph glyph-name="uni3B1" unicode="&#x3b1;" d="M507 513 L593 513 Q576 368 522 240 L543 76 Q547 45 558 35 Q566 27 587 27 Q601 27 619 33 L628 -35 Q604 -47 566 -47 Q503 -46 486 -7 Q469 33 462 98 Q429 24 373 -14 Q322 -49 257 -49 Q153 -49 91 34 Q32 113 32 235 Q32 361 93 441 Q157 525 266 525 Q430 525 480 345 Q504 450 507 513 ZM268 27 Q324 27 371 84 Q418 142 441 238 Q404 450 270 450 Q202 450 161 391 Q120 333 120 238 Q120 144 160 86 Q201 27 268 27 Z" /><glyph glyph-name="uni3B2" unicode="&#x3b2;" d="M313 -49 Q209 -49 153 2 L153 -215 L66 -215 L66 518 Q66 622 130 679 Q190 732 290 732 Q381 732 441 683 Q506 629 506 537 Q506 480 479 434 Q450 384 398 365 Q466 349 508 298 Q551 246 551 176 Q551 73 487 12 Q422 -49 313 -49 ZM305 30 Q381 30 423 71 Q463 110 463 176 Q463 246 417 283 Q372 319 292 319 L210 319 L210 393 L287 393 Q346 393 383 430 Q421 468 421 530 Q421 590 382 623 Q347 653 290 653 Q228 653 191 618 Q153 582 153 515 L153 164 Q153 97 201 61 Q242 30 305 30 Z" /><glyph glyph-name="uni3B3" unicode="&#x3b3;" d="M246 -212 L246 -40 L81 385 Q71 409 58 421 Q41 437 10 440 L17 525 Q128 521 160 434 L298 69 L470 513 L572 513 L342 -40 L342 -212 L246 -212 Z" /><glyph glyph-name="uni3B4" unicode="&#x3b4;" d="M32 204 Q32 282 72 343 Q117 411 205 445 Q148 492 123 528 Q100 562 100 596 Q100 659 151 704 Q207 753 297 753 Q363 753 450 732 L434 644 Q356 671 297 671 Q256 671 226 652 Q193 631 193 596 Q187 553 304 471 L362 431 Q434 381 463 344 Q511 284 511 204 Q511 88 445 19 Q380 -49 273 -49 Q169 -49 101 21 Q32 92 32 204 ZM424 204 Q424 259 383 304 Q357 333 283 383 Q208 369 164 320 Q120 271 120 204 Q120 127 165 79 Q208 33 273 33 Q341 33 382 78 Q424 124 424 204 Z" /><glyph glyph-name="uni3B5" unicode="&#x3b5;" d="M408 88 L448 20 Q376 -49 251 -49 Q150 -49 91 -7 Q32 35 32 108 Q32 158 59 196 Q87 236 133 247 Q96 262 73 300 Q52 335 52 367 Q52 439 101 481 Q152 525 243 525 Q376 525 443 446 L400 387 Q374 418 331 435 Q293 450 249 450 Q199 450 166 422 Q137 397 137 365 Q137 327 161 301 Q185 275 220 275 L361 275 L361 207 L206 207 Q170 207 145 184 Q119 160 119 121 Q120 34 255 32 Q353 32 408 88 Z" /><glyph glyph-name="uni3B6" unicode="&#x3b6;" d="M370 -176 L298 -137 Q350 -64 350 -45 Q350 -33 325 -29 Q32 -29 32 206 Q32 334 188 534 L286 659 L54 659 L54 743 L408 743 L408 680 L256 485 Q195 408 163 347 Q121 268 121 206 Q121 123 177 87 Q226 56 329 56 Q375 56 406 32 Q438 7 438 -31 Q438 -85 370 -176 Z" /><glyph glyph-name="uni3B7" unicode="&#x3b7;" d="M154 -37 L66 -37 L66 512 L142 512 L148 407 Q169 461 222 494 Q274 527 333 525 Q424 525 475 465 Q526 406 526 299 L526 -244 L439 -244 L439 263 Q439 361 409 406 Q379 450 315 450 Q240 452 193 392 Q150 336 154 260 L154 -37 Z" /><glyph glyph-name="uni3B8" unicode="&#x3b8;" d="M284 732 Q395 732 461 635 Q531 532 531 344 Q528 140 459 45 Q389 -50 284 -49 Q175 -49 109 44 Q36 148 35 344 Q35 527 106 632 Q174 732 284 732 ZM284 652 Q220 652 176 587 Q127 515 121 382 L447 382 Q441 515 393 587 Q349 652 284 652 ZM284 30 Q348 30 392 95 Q441 168 447 306 L121 306 Q127 169 176 95 Q220 30 284 30 Z" /><glyph glyph-name="uni3B9" unicode="&#x3b9;" d="M207 26 L217 -39 Q196 -49 161 -49 Q55 -49 55 52 L55 513 L144 513 L144 76 Q144 46 151 34 Q159 20 179 20 Q200 20 207 26 Z" /><glyph glyph-name="uni3BA" unicode="&#x3ba;" d="M66 -37 L66 513 L153 513 L153 248 L379 484 Q415 525 467 525 L521 525 L521 442 L471 442 Q449 442 434 427 L300 290 L550 -37 L438 -37 L241 232 L153 139 L153 -37 L66 -37 Z" /><glyph glyph-name="uni3BB" unicode="&#x3bb;" d="M54 644 L42 720 Q83 728 116 731 Q179 736 217 713 Q258 688 282 625 L525 -37 L430 -37 L280 402 L111 -37 L10 -37 L234 517 L197 608 Q185 637 167 646 Q150 655 116 653 Q84 651 54 644 Z" /><glyph glyph-name="uni3BC" unicode="&#x3bc;" d="M66 -253 L66 513 L155 513 L155 174 Q155 31 271 31 Q336 31 377 73 Q421 118 421 196 L421 513 L508 513 L508 80 Q508 51 516 37 Q525 22 544 22 Q565 22 571 28 L582 -38 Q561 -48 527 -48 Q487 -48 460 -25 Q432 -1 429 41 Q399 -5 355 -28 Q315 -49 269 -49 Q183 -47 145 16 L155 -253 L66 -253 Z" /><glyph glyph-name="uni3BD" unicode="&#x3bd;" d="M305 -37 L217 -37 L10 513 L108 513 L269 68 Q406 265 417 513 L509 513 Q507 381 451 232 Q396 86 305 -37 Z" /><glyph glyph-name="uni3BE" unicode="&#x3be;" d="M415 732 L415 646 Q296 646 229 616 Q160 585 160 529 Q160 488 203 458 Q247 427 309 427 L374 427 L374 341 L306 341 Q232 341 180 308 Q117 268 117 194 Q117 124 182 83 Q240 47 345 38 Q395 34 421 7 Q445 -18 445 -59 Q445 -114 368 -182 L281 -150 Q355 -85 355 -67 Q355 -50 318 -45 Q30 -6 30 194 Q30 335 178 386 Q124 406 96 445 Q71 479 71 519 Q71 561 95 595 Q123 634 172 647 L54 647 L54 732 L415 732 Z" /><glyph glyph-name="uni3BF" unicode="&#x3bf;" d="M296 452 Q213 452 167 393 Q122 336 122 238 Q122 140 167 83 Q213 24 296 24 Q377 24 423 83 Q469 141 469 238 Q469 335 423 393 Q377 452 296 452 ZM32 238 Q32 370 107 449 Q180 525 296 525 Q413 525 485 449 Q559 371 559 238 Q559 106 484 27 Q411 -49 296 -49 Q177 -49 105 27 Q32 104 32 238 Z" /><glyph glyph-name="uni3C1" unicode="&#x3c1;" d="M56 -244 L56 235 Q56 359 128 441 Q202 525 319 525 Q435 525 509 441 Q581 359 581 235 Q581 111 509 32 Q436 -49 319 -49 Q207 -49 144 34 L144 -244 L56 -244 ZM319 25 Q399 25 448 87 Q495 146 495 235 Q495 327 448 387 Q399 450 319 450 Q240 450 191 387 Q143 326 143 235 Q143 146 190 87 Q239 25 319 25 Z" /><glyph glyph-name="uni3C3" unicode="&#x3c3;" d="M295 -49 Q177 -49 104 32 Q32 112 32 237 Q32 361 104 442 Q178 525 295 525 L579 525 L579 452 L490 452 L454 454 Q501 426 531 360 Q558 300 558 237 Q558 112 486 32 Q413 -49 295 -49 ZM295 28 Q373 28 421 90 Q467 149 467 237 Q467 326 421 385 Q373 447 295 447 Q217 447 168 385 Q122 326 122 237 Q122 149 168 90 Q217 28 295 28 Z" /><glyph glyph-name="uni3C4" unicode="&#x3c4;" d="M292 -49 Q258 -49 225 -37 Q177 -19 154 18 Q128 54 131 122 L141 440 L20 440 L20 513 L390 513 L390 440 L230 440 L219 122 Q216 31 301 31 Q342 31 369 53 L406 -14 Q361 -49 292 -49 Z" /><glyph glyph-name="uni3C5" unicode="&#x3c5;" d="M60 166 L60 513 L149 513 L149 166 Q149 103 187 68 Q222 36 281 36 Q344 36 382 86 Q419 135 419 216 Q419 282 395 356 Q365 448 309 513 L412 513 Q500 387 507 217 Q507 99 450 27 Q393 -47 281 -49 Q179 -49 120 7 Q60 64 60 166 Z" /><glyph glyph-name="uni3C6" unicode="&#x3c6;" d="M386 -44 L386 -242 L299 -242 L299 -44 Q171 -37 100 42 Q32 118 32 241 Q32 317 68 392 Q102 463 158 513 L267 513 Q121 387 121 240 Q121 154 171 100 Q219 49 299 41 L299 381 Q299 448 333 486 Q368 525 435 525 Q535 522 596 441 Q656 360 658 240 Q658 131 591 53 Q517 -33 386 -44 ZM386 382 L386 41 Q472 47 522 104 Q570 159 570 242 Q570 327 530 385 Q491 442 437 442 Q386 442 386 382 Z" /><glyph glyph-name="uni3C7" unicode="&#x3c7;" d="M538 -155 L538 -243 L478 -243 Q416 -243 388 -185 L263 79 L92 -243 L-12 -243 L219 171 L99 421 Q97 427 94 427 L34 427 L34 513 L97 513 Q159 513 181 460 L269 268 L400 513 L504 513 L316 169 L468 -144 Q473 -155 485 -155 L538 -155 Z" /><glyph glyph-name="uni3C8" unicode="&#x3c8;" d="M631 513 L631 229 Q631 105 573 36 Q512 -37 388 -45 L388 -242 L300 -242 L300 -45 Q175 -37 114 36 Q56 105 56 229 L56 513 L144 513 L144 229 Q144 147 181 99 Q220 48 300 38 L300 746 L388 746 L388 38 Q468 48 508 99 Q546 147 546 229 L546 513 L631 513 Z" /><glyph glyph-name="uni3C9" unicode="&#x3c9;" d="M486 -49 Q405 -47 363 33 Q318 -49 234 -49 Q138 -49 84 37 Q35 114 35 232 Q35 298 64 377 Q94 460 140 513 L236 513 Q179 445 149 364 Q123 294 123 232 Q123 147 151 93 Q181 35 234 35 Q275 35 296 76 Q316 115 316 187 L316 401 L404 401 L404 187 Q404 117 426 76 Q448 35 486 35 Q540 35 570 93 Q598 146 598 232 Q598 294 571 365 Q541 445 484 513 L578 513 Q630 456 659 374 Q685 300 685 232 Q685 115 636 37 Q582 -49 486 -49 Z" /><glyph glyph-name="uni401" unicode="&#x401;" d="M91 731 L524 731 L524 653 L182 653 L182 393 L481 393 L481 312 L182 312 L182 45 L536 45 L536 -37 L91 -37 L91 731 ZM158 869 Q158 891 173 906 Q189 922 211 922 Q233 922 249 906 Q264 891 264 869 Q264 847 249 832 Q233 816 211 816 Q189 816 173 832 Q158 847 158 869 ZM364 869 Q364 890 379 906 Q394 922 416 922 Q438 922 454 906 Q470 890 470 869 Q470 848 454 832 Q438 816 416 816 Q394 816 379 832 Q364 848 364 869 Z" /><glyph glyph-name="uni410" unicode="&#x410;" d="M114 -37 L16 -37 L309 731 L411 731 L699 -37 L596 -37 L522 171 L191 171 L114 -37 ZM220 251 L493 251 Q487 268 477 298 Q413 474 356 646 Q310 496 237 298 Q227 268 220 251 Z" /><glyph glyph-name="uni411" unicode="&#x411;" d="M185 399 L392 399 Q508 399 571 335 Q629 276 629 176 Q629 79 571 23 Q509 -37 392 -37 L95 -37 L95 731 L516 731 L516 648 L185 648 L185 399 ZM185 44 L389 44 Q462 44 499 80 Q535 115 535 181 Q535 245 500 279 Q463 315 390 315 L185 315 L185 44 Z" /><glyph glyph-name="uni412" unicode="&#x412;" d="M95 731 L357 731 Q456 731 515 684 Q575 636 575 552 Q575 488 540 441 Q504 393 439 372 Q520 360 566 308 Q611 256 611 176 Q611 73 540 18 Q469 -37 334 -37 L95 -37 L95 731 ZM186 42 L347 42 Q516 42 516 179 Q516 322 333 322 L186 322 L186 42 ZM186 401 L321 401 Q395 401 438 437 Q480 472 480 535 Q480 594 443 623 Q406 652 330 652 L186 652 L186 401 Z" /><glyph glyph-name="uni413" unicode="&#x413;" d="M186 -37 L95 -37 L95 731 L544 731 L544 649 L186 649 L186 -37 Z" /><glyph glyph-name="uni414" unicode="&#x414;" d="M604 -37 L112 -37 L112 -212 L26 -212 L26 46 L100 46 Q160 115 185 210 Q207 294 207 425 L207 731 L625 731 L625 46 L690 46 L690 -212 L604 -212 L604 -37 ZM295 649 L295 422 Q295 298 275 210 Q253 116 205 46 L538 46 L538 649 L295 649 Z" /><glyph glyph-name="uni415" unicode="&#x415;" d="M95 731 L531 731 L531 650 L186 650 L186 393 L489 393 L489 312 L186 312 L186 44 L544 44 L544 -37 L95 -37 L95 731 Z" /><glyph glyph-name="uni416" unicode="&#x416;" d="M477 -37 L477 319 L383 319 L112 -37 L1 -37 L309 364 L28 731 L137 731 L383 403 L477 403 L477 731 L567 731 L567 403 L659 403 L906 731 L1015 731 L734 364 L1042 -37 L931 -37 L660 319 L567 319 L567 -37 L477 -37 Z" /><glyph glyph-name="uni417" unicode="&#x417;" d="M302 -49 Q212 -49 143 -13 Q78 21 41 80 L108 130 Q165 32 301 32 Q378 32 423 73 Q466 112 466 173 Q466 234 424 275 Q378 320 299 320 L184 320 L184 402 L301 402 Q366 402 407 444 Q447 485 447 541 Q447 595 408 628 Q367 663 300 663 Q180 663 119 582 L61 635 Q149 744 304 744 Q408 744 474 687 Q538 632 538 549 Q538 490 507 439 Q478 391 432 369 Q492 346 527 284 Q558 229 558 167 Q558 75 491 15 Q420 -49 302 -49 Z" /><glyph glyph-name="uni418" unicode="&#x418;" d="M701 731 L701 -37 L611 -37 L611 353 Q611 475 613 563 L609 563 Q554 479 404 273 L176 -37 L95 -37 L95 731 L186 731 L186 354 Q186 210 181 113 L185 113 Q262 231 337 336 L626 731 L701 731 Z" /><glyph glyph-name="uni419" unicode="&#x419;" d="M398 756 Q332 756 287 792 Q244 826 236 877 L308 894 Q315 866 338 847 Q362 827 398 827 Q434 827 458 847 Q479 865 487 894 L559 877 Q551 826 508 792 Q463 756 398 756 ZM701 731 L701 -37 L611 -37 L611 353 Q611 475 613 563 L609 563 Q554 479 404 273 L176 -37 L95 -37 L95 731 L186 731 L186 354 Q186 210 181 113 L185 113 Q262 231 337 336 L626 731 L701 731 Z" /><glyph glyph-name="uni41A" unicode="&#x41a;" d="M95 -37 L95 731 L184 731 L184 394 L277 394 L528 731 L638 731 L352 356 L660 -37 L549 -37 L278 312 L184 312 L184 -37 L95 -37 Z" /><glyph glyph-name="uni41B" unicode="&#x41b;" d="M49 -49 L25 32 Q102 56 137 134 Q172 213 171 400 L171 731 L574 731 L574 -37 L487 -37 L487 649 L255 649 L255 398 Q256 187 206 89 Q157 -9 49 -49 Z" /><glyph glyph-name="uni41C" unicode="&#x41c;" d="M476 193 L441 193 L285 411 Q209 514 184 564 L181 564 Q185 473 185 364 L185 -37 L95 -37 L95 731 L172 731 L337 494 Q403 400 458 310 L460 310 Q507 393 577 496 L732 731 L808 731 L808 -37 L716 -37 L716 359 Q716 473 720 564 L716 564 Q678 492 619 405 L476 193 Z" /><glyph glyph-name="uni41D" unicode="&#x41d;" d="M95 731 L186 731 L186 395 L607 395 L607 731 L698 731 L698 -37 L607 -37 L607 314 L186 314 L186 -37 L95 -37 L95 731 Z" /><glyph glyph-name="uni41E" unicode="&#x41e;" d="M408 -50 Q249 -50 149 54 Q44 163 44 347 Q44 529 152 640 Q254 745 408 745 Q562 745 664 640 Q771 530 771 347 Q771 162 667 54 Q567 -50 408 -50 ZM141 347 Q141 199 218 113 Q291 32 408 32 Q525 32 598 113 Q675 198 675 347 Q675 496 598 581 Q525 662 408 662 Q291 662 218 581 Q141 495 141 347 Z" /><glyph glyph-name="uni41F" unicode="&#x41f;" d="M95 -37 L95 731 L656 731 L656 -37 L568 -37 L568 652 L183 652 L183 -37 L95 -37 Z" /><glyph glyph-name="uni420" unicode="&#x420;" d="M95 731 L323 731 Q450 731 519 669 Q585 610 585 503 Q585 386 506 319 Q431 255 307 255 L186 255 L186 -37 L95 -37 L95 731 ZM186 335 L297 335 Q390 335 439 377 Q488 419 488 497 Q488 574 442 613 Q396 652 307 652 L186 652 L186 335 Z" /><glyph glyph-name="uni421" unicode="&#x421;" d="M414 -49 Q260 -49 158 47 Q45 153 44 339 Q43 525 156 636 Q266 744 445 744 Q548 744 637 695 L606 622 Q530 661 446 661 Q311 661 228 580 Q141 495 141 351 Q141 194 232 108 Q311 33 433 33 Q525 33 606 70 L636 0 Q544 -49 414 -49 Z" /><glyph glyph-name="uni422" unicode="&#x422;" d="M6 649 L6 731 L608 731 L608 649 L352 649 L352 -37 L261 -37 L261 649 L6 649 Z" /><glyph glyph-name="uni423" unicode="&#x423;" d="M350 521 L424 731 L519 731 L308 185 L279 114 Q242 21 190 -18 Q149 -49 92 -49 Q56 -49 26 -39 L42 38 Q70 30 96 30 Q136 30 158 49 Q184 72 206 138 Q211 151 215 165 L12 731 L112 731 L184 526 Q243 355 266 267 Q300 381 350 521 Z" /><glyph glyph-name="uni424" unicode="&#x424;" d="M49 346 Q49 488 141 576 Q228 660 369 672 L369 731 L460 731 L460 672 Q599 660 686 576 Q779 487 779 346 Q779 205 687 117 Q600 34 460 22 L460 -37 L369 -37 L369 22 Q229 34 141 118 Q49 207 49 346 ZM691 346 Q691 448 624 515 Q561 578 460 589 L460 105 Q558 116 622 178 Q689 241 691 346 ZM137 346 Q137 246 204 179 Q268 115 369 105 L369 589 Q267 578 204 515 Q137 448 137 346 Z" /><glyph glyph-name="uni425" unicode="&#x425;" d="M645 -37 L527 -37 L329 275 L133 -37 L22 -37 L275 341 L22 731 L142 731 L336 412 L536 731 L647 731 L388 345 L645 -37 Z" /><glyph glyph-name="uni426" unicode="&#x426;" d="M94 -37 L94 731 L181 731 L181 46 L512 46 L512 731 L600 731 L600 46 L674 46 L674 -192 L585 -192 L585 -37 L94 -37 Z" /><glyph glyph-name="uni427" unicode="&#x427;" d="M55 461 L55 731 L140 731 L140 461 Q140 388 178 355 Q215 323 290 323 Q376 323 462 362 L462 731 L549 731 L549 -37 L462 -37 L462 277 Q377 242 289 242 Q178 242 119 293 Q55 348 55 461 Z" /><glyph glyph-name="uni428" unicode="&#x428;" d="M94 -37 L94 731 L178 731 L178 46 L444 46 L444 731 L530 731 L530 46 L796 46 L796 731 L881 731 L881 -37 L94 -37 Z" /><glyph glyph-name="uni429" unicode="&#x429;" d="M94 -37 L94 731 L179 731 L179 46 L445 46 L445 731 L531 731 L531 46 L797 46 L797 731 L883 731 L883 46 L956 46 L956 -192 L870 -192 L870 -37 L94 -37 Z" /><glyph glyph-name="uni42A" unicode="&#x42a;" d="M10 648 L10 731 L197 731 L197 391 L382 391 Q495 391 559 332 Q620 275 620 178 Q620 80 559 23 Q495 -37 381 -37 L107 -37 L107 648 L10 648 ZM197 47 L381 47 Q453 47 491 83 Q527 117 527 178 Q527 238 492 272 Q454 309 382 309 L197 309 L197 47 Z" /><glyph glyph-name="uni42B" unicode="&#x42b;" d="M184 391 L368 391 Q480 391 544 332 Q606 275 606 178 Q606 81 544 23 Q480 -37 367 -37 L94 -37 L94 731 L184 731 L184 391 ZM184 309 L184 47 L367 47 Q439 47 477 83 Q513 117 513 178 Q513 238 478 272 Q440 309 368 309 L184 309 ZM674 -37 L674 731 L763 731 L763 -37 L674 -37 Z" /><glyph glyph-name="uni42C" unicode="&#x42c;" d="M184 391 L368 391 Q480 391 544 332 Q606 275 606 178 Q606 81 544 23 Q480 -37 367 -37 L94 -37 L94 731 L184 731 L184 391 ZM184 309 L184 47 L367 47 Q439 47 477 83 Q513 117 513 178 Q513 238 478 272 Q440 309 368 309 L184 309 Z" /><glyph glyph-name="uni42D" unicode="&#x42d;" d="M111 313 L111 397 L542 397 Q528 514 466 586 Q401 661 305 661 Q178 661 107 552 L40 606 Q135 744 307 744 Q458 740 548 630 Q637 519 639 347 Q637 184 548 70 Q458 -44 306 -49 Q128 -49 37 92 L109 144 Q175 36 307 34 Q403 34 470 117 Q534 196 543 313 L111 313 Z" /><glyph glyph-name="uni42E" unicode="&#x42e;" d="M639 -49 Q497 -49 403 63 Q314 169 307 322 L184 322 L184 -37 L94 -37 L94 731 L184 731 L184 405 L309 405 Q326 545 413 641 Q506 744 639 744 Q787 744 882 623 Q972 509 972 347 Q972 185 882 71 Q787 -49 639 -49 ZM639 35 Q751 39 814 129 Q877 220 878 347 Q878 477 815 565 Q748 659 639 659 Q530 659 463 565 Q400 476 400 347 Q400 218 464 129 Q531 35 639 35 Z" /><glyph glyph-name="uni42F" unicode="&#x42f;" d="M369 731 L578 731 L578 -37 L486 -37 L486 280 L374 280 Q345 280 333 281 L159 -37 L49 -37 L241 299 Q92 347 92 514 Q92 627 157 679 Q223 731 369 731 ZM380 354 L486 354 L486 656 L378 656 Q271 656 226 621 Q182 587 182 504 Q182 425 224 391 Q270 354 380 354 Z" /><glyph glyph-name="uni430" unicode="&#x430;" d="M469 -37 L390 -37 L386 48 Q350 -44 210 -49 Q131 -49 81 -6 Q28 40 28 117 Q28 210 103 258 Q169 300 278 300 Q337 300 379 291 Q379 369 354 408 Q326 451 265 451 Q191 451 104 410 L82 479 Q178 525 273 525 Q374 525 424 461 Q469 403 469 295 L469 -37 ZM119 126 Q119 77 151 52 Q180 29 232 29 Q300 29 336 63 Q379 104 379 196 L379 221 Q339 233 284 233 Q212 233 168 208 Q119 180 119 126 Z" /><glyph glyph-name="uni431" unicode="&#x431;" d="M35 252 Q35 456 87 559 Q146 676 284 698 Q376 710 441 744 L469 668 Q426 645 379 633 Q355 627 297 619 Q236 611 194 572 Q146 528 137 456 Q163 492 208 510 Q245 525 288 525 Q389 525 456 461 Q537 384 537 238 Q537 104 469 27 Q402 -49 286 -49 Q173 -49 104 34 Q35 117 35 252 ZM123 247 Q123 157 163 98 Q207 33 286 33 Q371 33 414 94 Q452 148 452 238 Q452 342 400 398 Q356 445 288 445 Q216 445 170 391 Q123 336 123 247 Z" /><glyph glyph-name="uni432" unicode="&#x432;" d="M66 513 L259 513 Q345 513 395 475 Q447 435 447 363 Q447 329 430 300 Q410 265 370 251 Q414 237 440 200 Q464 166 464 128 Q464 41 407 0 Q356 -37 264 -37 L66 -37 L66 513 ZM150 432 L150 287 L260 287 Q308 287 335 306 Q362 325 362 359 Q362 432 259 432 L150 432 ZM150 208 L150 43 L264 43 Q379 43 379 128 Q379 162 350 184 Q318 208 264 208 L150 208 Z" /><glyph glyph-name="uni433" unicode="&#x433;" d="M66 513 L412 513 L412 432 L150 432 L150 -37 L66 -37 L66 513 Z" /><glyph glyph-name="uni434" unicode="&#x434;" d="M22 47 L77 47 Q128 121 146 190 Q164 259 164 379 L164 513 L506 513 L506 47 L557 47 L557 -184 L472 -184 L472 -37 L107 -37 L107 -184 L22 -184 L22 47 ZM171 47 L418 47 L418 430 L249 430 L249 378 Q249 268 233 197 Q215 119 171 47 Z" /><glyph glyph-name="uni435" unicode="&#x435;" d="M290 452 Q226 452 183 415 Q136 374 124 296 L431 296 Q420 451 290 452 ZM32 239 Q32 370 105 449 Q176 525 290 525 Q391 525 452 462 Q518 394 518 270 Q518 245 515 223 L119 223 Q124 129 175 77 Q228 24 321 24 Q403 24 462 60 L489 -1 Q421 -49 308 -49 Q182 -49 109 24 Q32 101 32 239 Z" /><glyph glyph-name="uni436" unicode="&#x436;" d="M410 -37 L410 207 L316 207 L111 -37 L7 -37 L248 247 L34 513 L140 513 L316 286 L410 286 L410 513 L494 513 L494 286 L586 286 L764 513 L869 513 L654 247 L896 -37 L791 -37 L586 207 L494 207 L494 -37 L410 -37 Z" /><glyph glyph-name="uni437" unicode="&#x437;" d="M22 20 L61 88 Q114 32 215 32 Q281 32 316 55 Q351 79 351 121 Q351 160 325 184 Q300 207 263 207 L109 207 L109 275 L250 275 Q284 275 308 301 Q332 327 332 365 Q332 398 304 422 Q272 450 221 450 Q176 450 138 435 Q95 418 69 387 L25 446 Q95 525 227 525 Q318 525 369 481 Q418 439 418 367 Q418 334 397 300 Q374 262 336 247 Q381 236 409 196 Q436 157 436 108 Q436 34 379 -7 Q321 -49 219 -49 Q92 -49 22 20 Z" /><glyph glyph-name="uni438" unicode="&#x438;" d="M66 513 L152 513 L152 122 L429 513 L500 513 L500 -37 L416 -37 L416 352 L137 -37 L66 -37 L66 513 Z" /><glyph glyph-name="uni439" unicode="&#x439;" d="M286 561 Q221 561 176 596 Q134 629 125 680 L197 698 Q203 670 226 651 Q250 631 286 631 Q320 631 344 651 Q366 669 372 698 L444 680 Q436 629 394 596 Q349 561 286 561 ZM66 512 L152 512 L152 122 L429 512 L500 512 L500 -37 L416 -37 L416 352 L137 -37 L66 -37 L66 512 Z" /><glyph glyph-name="uni43A" unicode="&#x43a;" d="M66 -37 L66 513 L149 513 L149 289 L243 289 L420 513 L524 513 L310 249 L553 -37 L448 -37 L243 208 L149 208 L149 -37 L66 -37 Z" /><glyph glyph-name="uni43B" unicode="&#x43b;" d="M39 -50 L20 27 Q73 44 97 89 Q124 139 123 335 L123 513 L454 513 L454 -37 L369 -37 L369 432 L207 432 L207 333 Q209 77 151 19 Q113 -25 39 -50 Z" /><glyph glyph-name="uni43C" unicode="&#x43c;" d="M66 -37 L66 513 L157 513 L335 259 L509 513 L602 513 L602 -37 L517 -37 L517 382 L366 163 L304 163 L153 384 L153 -37 L66 -37 Z" /><glyph glyph-name="uni43D" unicode="&#x43d;" d="M66 513 L153 513 L153 291 L422 291 L422 513 L507 513 L507 -37 L422 -37 L422 210 L153 210 L153 -37 L66 -37 L66 513 Z" /><glyph glyph-name="uni43E" unicode="&#x43e;" d="M296 452 Q213 452 167 393 Q122 336 122 238 Q122 140 167 83 Q213 24 296 24 Q377 24 423 83 Q469 141 469 238 Q469 335 423 393 Q377 452 296 452 ZM32 238 Q32 370 107 449 Q180 525 296 525 Q413 525 485 449 Q559 371 559 238 Q559 106 484 27 Q411 -49 296 -49 Q177 -49 105 27 Q32 104 32 238 Z" /><glyph glyph-name="uni43F" unicode="&#x43f;" d="M66 513 L506 513 L506 -37 L423 -37 L423 432 L149 432 L149 -37 L66 -37 L66 513 Z" /><glyph glyph-name="uni440" unicode="&#x440;" d="M346 525 Q447 525 513 452 Q584 373 583 239 Q582 106 512 27 Q445 -49 339 -49 Q281 -49 231 -25 Q184 -3 156 34 L156 -237 L66 -237 L66 513 L147 513 L150 419 L150 417 Q178 468 233 497 Q287 526 346 525 ZM148 245 L148 222 Q148 129 198 74 Q247 20 331 20 Q402 20 448 81 Q494 142 494 242 Q494 339 447 396 Q402 451 329 451 Q252 451 201 395 Q148 337 148 245 Z" /><glyph glyph-name="uni441" unicode="&#x441;" d="M319 449 Q234 449 179 396 Q119 338 119 240 Q119 144 171 85 Q225 24 316 24 Q377 24 431 51 L459 -12 Q391 -49 306 -49 Q175 -49 102 30 Q32 106 32 232 Q32 366 112 446 Q191 525 320 525 Q403 525 461 491 L430 423 Q377 449 319 449 Z" /><glyph glyph-name="uni442" unicode="&#x442;" d="M20 513 L472 513 L472 432 L288 432 L288 -37 L205 -37 L205 432 L20 432 L20 513 Z" /><glyph glyph-name="uni443" unicode="&#x443;" d="M440 513 L536 513 L320 -18 L285 -109 Q254 -190 210 -223 Q175 -249 122 -249 Q72 -249 37 -236 L53 -160 Q89 -171 116 -171 Q146 -171 163 -159 Q181 -146 196 -110 Q224 -43 227 -36 L9 513 L109 513 L183 310 Q243 146 273 65 Q319 185 364 305 L440 513 Z" /><glyph glyph-name="uni444" unicode="&#x444;" d="M33 237 Q33 363 88 442 Q146 525 245 525 Q279 525 312 508 Q346 490 369 458 L369 711 L455 711 L455 458 Q506 525 577 525 Q677 525 736 442 Q792 363 792 237 Q792 113 735 34 Q675 -49 575 -49 Q508 -49 455 4 L455 -244 L369 -244 L369 6 Q319 -49 248 -49 Q149 -49 90 34 Q33 114 33 237 ZM572 442 Q515 442 455 358 L455 103 Q509 35 572 35 Q635 35 671 96 Q703 151 703 237 Q703 329 671 383 Q636 442 572 442 ZM251 35 Q320 35 369 104 L369 358 Q310 442 251 442 Q188 442 154 383 Q122 328 122 237 Q122 151 154 96 Q189 35 251 35 Z" /><glyph glyph-name="uni445" unicode="&#x445;" d="M2 -37 L205 236 L2 513 L111 513 L271 290 L423 513 L533 513 L327 232 L531 -37 L420 -37 L263 178 L112 -37 L2 -37 Z" /><glyph glyph-name="uni446" unicode="&#x446;" d="M469 -190 L469 -37 L66 -37 L66 513 L149 513 L149 43 L412 43 L412 513 L495 513 L495 43 L553 43 L553 -190 L469 -190 Z" /><glyph glyph-name="uni447" unicode="&#x447;" d="M50 513 L135 513 L135 304 Q135 264 156 239 Q182 208 236 208 Q298 208 351 240 L351 513 L438 513 L438 -37 L351 -37 L351 156 Q300 127 231 127 Q128 127 83 186 Q50 229 50 302 L50 513 Z" /><glyph glyph-name="uni448" unicode="&#x448;" d="M66 513 L150 513 L150 43 L326 43 L326 513 L411 513 L411 43 L583 43 L583 513 L666 513 L666 -37 L66 -37 L66 513 Z" /><glyph glyph-name="uni449" unicode="&#x449;" d="M641 -190 L641 -37 L66 -37 L66 513 L150 513 L150 43 L326 43 L326 513 L411 513 L411 43 L583 43 L583 513 L666 513 L666 43 L724 43 L724 -190 L641 -190 Z" /><glyph glyph-name="uni44A" unicode="&#x44a;" d="M10 433 L10 513 L174 513 L174 311 L296 311 Q384 311 435 261 Q484 213 484 136 Q484 58 434 11 Q383 -37 294 -37 L93 -37 L93 433 L10 433 ZM174 232 L174 42 L294 42 Q340 42 368 65 Q399 90 399 136 Q399 182 369 208 Q341 232 296 232 L174 232 Z" /><glyph glyph-name="uni44B" unicode="&#x44b;" d="M521 -37 L521 513 L603 513 L603 -37 L521 -37 ZM66 513 L149 513 L149 311 L268 311 Q356 311 408 261 Q457 214 457 136 Q457 58 407 11 Q356 -37 266 -37 L66 -37 L66 513 ZM149 232 L149 42 L266 42 Q313 42 341 65 Q372 90 372 136 Q372 182 342 208 Q314 232 268 232 L149 232 Z" /><glyph glyph-name="uni44C" unicode="&#x44c;" d="M66 513 L149 513 L149 311 L268 311 Q356 311 408 261 Q457 214 457 136 Q457 58 407 11 Q356 -37 266 -37 L66 -37 L66 513 ZM149 232 L149 42 L266 42 Q313 42 341 65 Q372 90 372 136 Q372 182 342 208 Q314 232 268 232 L149 232 Z" /><glyph glyph-name="uni44D" unicode="&#x44d;" d="M232 -49 Q163 -49 107 -18 Q55 10 22 61 L85 108 Q139 26 230 26 Q298 26 344 77 Q389 126 397 204 L102 204 L102 276 L396 276 Q386 352 343 399 Q297 449 230 449 Q138 449 86 365 L24 415 Q97 525 231 525 Q349 522 418 442 Q486 361 487 237 Q487 113 418 33 Q347 -49 232 -49 Z" /><glyph glyph-name="uni44E" unicode="&#x44e;" d="M494 -49 Q384 -49 313 24 Q245 94 236 208 L153 208 L153 -37 L66 -37 L66 513 L153 513 L153 289 L238 289 Q252 393 320 458 Q390 525 494 525 Q610 525 682 442 Q752 361 752 237 Q752 113 682 33 Q610 -49 494 -49 ZM494 26 Q572 26 619 89 Q663 148 663 237 Q663 329 619 387 Q572 449 494 449 Q415 449 368 387 Q323 328 323 237 Q323 148 368 89 Q416 26 494 26 Z" /><glyph glyph-name="uni44F" unicode="&#x44f;" d="M432 514 L432 -36 L348 -36 L348 181 L238 181 L103 -36 L8 -36 L152 195 Q107 212 77 253 Q45 296 45 347 Q45 423 89 467 Q136 514 226 514 L432 514 ZM220 261 L348 261 L348 435 L226 435 Q178 435 152 409 Q128 385 128 347 Q128 311 155 286 Q182 261 220 261 Z" /><glyph glyph-name="uni451" unicode="&#x451;" d="M290 452 Q226 452 183 415 Q136 374 124 296 L431 296 Q420 451 290 452 ZM32 239 Q32 370 105 449 Q176 525 290 525 Q391 525 452 462 Q518 394 518 270 Q518 245 515 223 L119 223 Q124 129 175 77 Q228 24 321 24 Q403 24 462 60 L489 -1 Q421 -49 308 -49 Q182 -49 109 24 Q32 101 32 239 ZM119 654 Q119 675 135 691 Q151 707 174 707 Q195 707 211 691 Q227 675 227 654 Q227 632 211 615 Q196 599 174 599 Q151 599 135 615 Q119 631 119 654 ZM325 654 Q325 676 340 691 Q356 707 378 707 Q400 707 416 691 Q432 675 432 654 Q432 631 416 615 Q400 599 378 599 Q355 599 340 615 Q325 631 325 654 Z" /><glyph glyph-name="uni2015" unicode="&#x2015;" d="M16 309 L16 391 L984 391 L984 309 L16 309 Z" /><glyph glyph-name="uni2016" unicode="&#x2016;" d="M647 850 L647 -150 L567 -150 L567 850 L647 850 ZM432 850 L432 -150 L352 -150 L352 850 L432 850 Z" /><glyph glyph-name="uni2025" unicode="&#x2025;" d="M177 286 Q151 286 132 305 Q113 324 113 350 Q113 376 132 395 Q152 415 177 415 Q202 415 221 395 Q240 375 240 350 Q240 324 221 305 Q202 286 177 286 ZM520 286 Q494 286 475 305 Q456 324 456 350 Q456 376 475 395 Q495 415 520 415 Q545 415 564 395 Q583 375 583 350 Q583 324 564 305 Q545 286 520 286 Z" /><glyph glyph-name="uni203B" unicode="&#x203b;" d="M876 18 L829 -29 L500 298 L171 -29 L124 18 L453 346 L124 674 L171 721 L500 393 L829 721 L876 674 L547 346 L876 18 ZM501 548 Q466 548 441 573 Q416 598 416 634 Q416 669 441 694 Q466 719 501 719 Q537 719 562 694 Q587 669 587 634 Q587 598 562 573 Q537 548 501 548 ZM778 260 Q742 260 717 285 Q692 310 692 346 Q692 381 717 406 Q742 431 778 431 Q813 431 838 406 Q863 381 863 346 Q863 310 838 285 Q813 260 778 260 ZM501 -27 Q466 -27 441 -2 Q416 23 416 58 Q416 94 441 119 Q466 144 501 144 Q537 144 562 119 Q587 94 587 58 Q587 23 562 -2 Q537 -27 501 -27 ZM222 260 Q186 260 161 285 Q136 310 136 346 Q136 381 161 406 Q186 431 222 431 Q258 431 283 406 Q307 382 307 346 Q307 309 283 285 Q258 260 222 260 Z" /><glyph glyph-name="uni2105" unicode="&#x2105;" d="M175 -36 L631 732 L729 732 L273 -36 L175 -36 ZM538 136 Q538 223 580 275 Q624 330 703 330 Q782 330 822 277 Q858 229 858 145 Q858 59 816 6 Q773 -49 698 -49 Q619 -50 577 4 Q538 54 538 136 ZM617 140 Q617 81 639 51 Q660 23 699 23 Q781 23 781 140 Q781 191 764 220 Q744 255 701 255 Q658 255 636 220 Q617 190 617 140 ZM245 674 Q193 674 163 642 Q133 610 133 556 Q133 506 160 472 Q190 434 244 434 Q281 434 314 451 L332 389 Q289 364 235 364 Q147 364 97 417 Q50 467 50 550 Q50 637 106 691 Q160 743 242 743 Q295 743 335 721 L314 656 Q283 674 245 674 Z" /><glyph glyph-name="uni2121" unicode="&#x2121;" d="M67 669 L67 731 L368 731 L368 669 L252 669 L252 347 L185 347 L185 669 L67 669 ZM417 731 L635 731 L635 671 L484 671 L484 573 L614 573 L614 512 L484 512 L484 409 L641 409 L641 347 L417 347 L417 731 ZM703 731 L770 731 L770 409 L933 409 L933 347 L703 347 L703 731 Z" /><glyph glyph-name="uni2160" unicode="&#x2160;" d="M454 731 L546 731 L546 -37 L454 -37 L454 731 Z" /><glyph glyph-name="uni2161" unicode="&#x2161;" d="M344 731 L436 731 L436 -37 L344 -37 L344 731 ZM564 731 L656 731 L656 -37 L564 -37 L564 731 Z" /><glyph glyph-name="uni2162" unicode="&#x2162;" d="M453 731 L545 731 L545 -37 L453 -37 L453 731 ZM281 731 L372 731 L372 -37 L281 -37 L281 731 ZM628 731 L718 731 L718 -37 L628 -37 L628 731 Z" /><glyph glyph-name="uni2163" unicode="&#x2163;" d="M77 731 L169 731 L169 -37 L77 -37 L77 731 ZM821 731 L922 731 L645 -37 L530 -37 L246 731 L351 731 L473 389 Q549 180 589 46 L592 46 Q612 114 705 389 L821 731 Z" /><glyph glyph-name="uni2164" unicode="&#x2164;" d="M736 731 L833 731 L551 -37 L451 -37 L166 731 L265 731 L387 389 Q462 180 504 46 L507 46 Q536 142 619 389 L736 731 Z" /><glyph glyph-name="uni2165" unicode="&#x2165;" d="M667 731 L768 731 L490 -37 L376 -37 L94 731 L197 731 L319 389 Q414 120 436 46 L439 46 Q450 85 550 389 L667 731 ZM815 731 L906 731 L906 -37 L815 -37 L815 731 Z" /><glyph glyph-name="uni2166" unicode="&#x2166;" d="M551 731 L638 731 L407 -37 L304 -37 L64 731 L152 731 L257 389 Q320 183 355 46 L357 46 Q391 182 452 389 L551 731 ZM669 731 L760 731 L760 -37 L669 -37 L669 731 ZM843 731 L935 731 L935 -37 L843 -37 L843 731 Z" /><glyph glyph-name="uni2167" unicode="&#x2167;" d="M493 731 L569 731 L365 -37 L275 -37 L63 731 L142 731 L233 389 Q294 163 320 46 L322 46 Q348 163 406 389 L493 731 ZM584 731 L665 731 L665 -37 L584 -37 L584 731 ZM719 731 L800 731 L800 -37 L719 -37 L719 731 ZM857 731 L936 731 L936 -37 L857 -37 L857 731 Z" /><glyph glyph-name="uni2168" unicode="&#x2168;" d="M89 731 L180 731 L180 -37 L89 -37 L89 731 ZM909 -37 L792 -37 L593 275 L398 -37 L286 -37 L540 341 L286 731 L407 731 L601 412 L800 731 L911 731 L652 345 L909 -37 Z" /><glyph glyph-name="uni2169" unicode="&#x2169;" d="M810 -37 L693 -37 L494 275 L299 -37 L188 -37 L441 341 L188 731 L308 731 L502 412 L702 731 L812 731 L554 345 L810 -37 Z" /><glyph glyph-name="uni216A" unicode="&#x216a;" d="M819 731 L911 731 L911 -37 L819 -37 L819 731 ZM208 -37 L91 -37 L347 345 L89 731 L199 731 L399 412 L593 731 L713 731 L460 341 L713 -37 L602 -37 L407 275 L208 -37 Z" /><glyph glyph-name="uni216B" unicode="&#x216b;" d="M698 731 L789 731 L789 -37 L698 -37 L698 731 ZM171 -37 L55 -37 L310 345 L53 731 L163 731 L363 412 L557 731 L677 731 L424 341 L677 -37 L566 -37 L370 275 L171 -37 ZM855 731 L946 731 L946 -37 L855 -37 L855 731 Z" /><glyph glyph-name="uni2170" unicode="&#x2170;" d="M457 -37 L457 513 L548 513 L548 -37 L457 -37 ZM437 662 Q437 691 454 708 Q471 725 499 725 Q528 725 545 708 Q562 691 562 662 Q562 633 545 616 Q527 598 499 598 Q471 598 454 616 Q437 634 437 662 Z" /><glyph glyph-name="uni2171" unicode="&#x2171;" d="M349 -37 L349 513 L440 513 L440 -37 L349 -37 ZM329 662 Q329 691 346 708 Q363 725 391 725 Q420 725 437 708 Q454 691 454 662 Q454 633 437 616 Q419 598 391 598 Q363 598 346 616 Q329 634 329 662 ZM566 -37 L566 513 L657 513 L657 -37 L566 -37 ZM546 662 Q546 691 563 708 Q580 725 608 725 Q637 725 654 708 Q671 691 671 662 Q671 633 654 616 Q636 598 608 598 Q580 598 563 616 Q546 634 546 662 Z" /><glyph glyph-name="uni2172" unicode="&#x2172;" d="M457 -37 L457 513 L548 513 L548 -37 L457 -37 ZM437 662 Q437 691 454 708 Q471 725 499 725 Q528 725 545 708 Q562 691 562 662 Q562 633 545 616 Q527 598 499 598 Q471 598 454 616 Q437 634 437 662 ZM251 -37 L251 513 L342 513 L342 -37 L251 -37 ZM231 662 Q231 691 248 708 Q265 725 293 725 Q322 725 339 708 Q356 691 356 662 Q356 633 339 616 Q321 598 293 598 Q265 598 248 616 Q231 634 231 662 ZM664 -37 L664 513 L755 513 L755 -37 L664 -37 ZM644 662 Q644 691 661 708 Q678 725 706 725 Q735 725 752 708 Q769 691 769 662 Q769 633 752 616 Q734 598 706 598 Q678 598 661 616 Q644 634 644 662 Z" /><glyph glyph-name="uni2173" unicode="&#x2173;" d="M156 -37 L156 513 L247 513 L247 -37 L156 -37 ZM136 662 Q136 691 153 708 Q170 725 198 725 Q227 725 244 708 Q261 691 261 662 Q261 633 244 616 Q226 598 198 598 Q170 598 153 616 Q136 634 136 662 ZM768 513 L863 513 L640 -37 L548 -37 L331 513 L431 513 L504 310 Q568 140 597 48 Q629 144 690 305 L768 513 Z" /><glyph glyph-name="uni2174" unicode="&#x2174;" d="M681 513 L776 513 L543 -37 L451 -37 L224 513 L324 513 L402 310 Q480 109 500 48 Q535 149 598 305 L681 513 Z" /><glyph glyph-name="uni2175" unicode="&#x2175;" d="M573 513 L668 513 L445 -37 L353 -37 L136 513 L236 513 L309 310 Q373 140 402 48 Q434 144 495 305 L573 513 ZM759 -37 L759 513 L850 513 L850 -37 L759 -37 ZM739 662 Q739 691 756 708 Q773 725 801 725 Q830 725 847 708 Q864 691 864 662 Q864 633 847 616 Q829 598 801 598 Q773 598 756 616 Q739 634 739 662 Z" /><glyph glyph-name="uni2176" unicode="&#x2176;" d="M480 513 L575 513 L352 -37 L260 -37 L43 513 L143 513 L216 310 Q280 140 309 48 Q341 144 402 305 L480 513 ZM645 -37 L645 513 L736 513 L736 -37 L645 -37 ZM625 662 Q625 691 642 708 Q659 725 687 725 Q716 725 733 708 Q750 691 750 662 Q750 633 733 616 Q715 598 687 598 Q659 598 642 616 Q625 634 625 662 ZM851 -37 L851 513 L942 513 L942 -37 L851 -37 ZM831 662 Q831 691 848 708 Q865 725 893 725 Q922 725 939 708 Q956 691 956 662 Q956 633 939 616 Q921 598 893 598 Q865 598 848 616 Q831 634 831 662 Z" /><glyph glyph-name="uni2177" unicode="&#x2177;" d="M879 -37 L879 513 L969 513 L969 -37 L879 -37 ZM859 661 Q859 689 876 707 Q893 725 922 725 Q949 725 967 707 Q985 689 985 661 Q985 633 967 616 Q949 599 922 599 Q893 599 876 616 Q859 633 859 661 ZM694 -37 L694 513 L785 513 L785 -37 L694 -37 ZM673 661 Q673 690 690 707 Q708 725 736 725 Q764 725 782 707 Q800 689 800 661 Q800 633 782 616 Q764 599 736 599 Q707 599 690 616 Q673 633 673 661 ZM509 -37 L509 513 L599 513 L599 -37 L509 -37 ZM488 661 Q488 689 506 707 Q524 725 551 725 Q579 725 597 707 Q615 689 615 661 Q615 633 597 616 Q579 599 551 599 Q524 599 506 616 Q488 633 488 661 ZM387 513 L486 513 L292 -37 L202 -37 L15 513 L117 513 L182 304 Q233 140 251 64 Q267 132 320 300 L387 513 Z" /><glyph glyph-name="uni2178" unicode="&#x2178;" d="M156 -37 L156 513 L247 513 L247 -37 L156 -37 ZM136 662 Q136 691 153 708 Q170 725 198 725 Q227 725 244 708 Q261 691 261 662 Q261 633 244 616 Q226 598 198 598 Q170 598 153 616 Q136 634 136 662 ZM332 -37 L535 236 L332 513 L441 513 L601 290 L753 513 L863 513 L657 232 L861 -37 L750 -37 L593 178 L442 -37 L332 -37 Z" /><glyph glyph-name="uni2179" unicode="&#x2179;" d="M234 -37 L437 236 L234 513 L343 513 L503 290 L655 513 L765 513 L559 232 L763 -37 L652 -37 L495 178 L344 -37 L234 -37 Z" /><glyph glyph-name="uni2190" unicode="&#x2190;" d="M261 313 L377 198 L326 146 L123 349 L326 552 L377 502 L261 385 L872 385 L872 313 L261 313 Z" /><glyph glyph-name="uni2191" unicode="&#x2191;" d="M534 582 L534 -29 L462 -29 L462 582 L347 466 L295 517 L498 721 L701 517 L650 466 L534 582 Z" /><glyph glyph-name="uni2192" unicode="&#x2192;" d="M734 315 L123 315 L123 387 L734 387 L617 502 L669 554 L873 351 L669 148 L617 199 L734 315 Z" /><glyph glyph-name="uni2193" unicode="&#x2193;" d="M534 110 L650 227 L701 175 L498 -29 L295 175 L347 227 L462 110 L462 721 L534 721 L534 110 Z" /><glyph glyph-name="uni2196" unicode="&#x2196;" d="M345 520 L777 88 L727 37 L294 470 L294 304 L222 304 L222 592 L509 592 L509 520 L345 520 Z" /><glyph glyph-name="uni2197" unicode="&#x2197;" d="M705 471 L272 38 L222 89 L654 521 L490 521 L490 593 L777 593 L777 305 L705 305 L705 471 Z" /><glyph glyph-name="uni2198" unicode="&#x2198;" d="M705 170 L705 335 L777 335 L777 48 L490 48 L490 120 L653 120 L222 551 L272 603 L705 170 Z" /><glyph glyph-name="uni2199" unicode="&#x2199;" d="M346 121 L509 121 L509 49 L222 49 L222 336 L294 336 L294 171 L727 604 L777 552 L346 121 Z" /><glyph glyph-name="uni2208" unicode="&#x2208;" d="M762 58 L762 -29 L440 -29 Q270 -29 178 63 Q82 159 82 348 Q82 532 185 631 Q281 723 440 723 L762 723 L762 637 L434 637 Q324 637 263 589 Q188 530 180 394 L744 394 L744 306 L180 306 Q188 162 261 104 Q319 58 434 58 L762 58 Z" /><glyph glyph-name="uni221D" unicode="&#x221d;" d="M113 288 Q113 229 150 190 Q187 151 244 151 Q338 151 415 292 Q344 433 244 433 Q185 433 149 393 Q113 353 113 288 ZM749 197 L798 145 Q739 81 655 81 Q534 81 447 230 Q357 81 244 81 Q156 81 100 139 Q44 197 44 288 Q44 376 102 438 Q160 500 244 500 Q369 500 450 353 Q539 500 655 500 Q742 500 798 444 L748 391 Q711 433 655 433 Q561 433 483 290 Q553 151 655 151 Q713 151 749 197 Z" /><glyph glyph-name="uni221F" unicode="&#x221f;" d="M866 82 L866 0 L134 0 L134 707 L226 707 L226 82 L866 82 Z" /><glyph glyph-name="uni2220" unicode="&#x2220;" d="M116 -14 L686 751 L761 699 L293 77 L865 77 L865 -14 L116 -14 Z" /><glyph glyph-name="uni2223" unicode="&#x2223;" d="M455 -73 L455 818 L545 818 L545 -73 L455 -73 Z" /><glyph glyph-name="uni2225" unicode="&#x2225;" d="M138 -151 L41 -151 L558 850 L656 850 L138 -151 ZM443 -151 L344 -151 L863 850 L960 850 L443 -151 Z" /><glyph glyph-name="uni2227" unicode="&#x2227;" d="M282 -38 L178 -38 L465 730 L535 730 L823 -38 L719 -38 L500 582 L282 -38 Z" /><glyph glyph-name="uni2228" unicode="&#x2228;" d="M178 730 L282 730 L500 110 L719 730 L823 730 L535 -38 L465 -38 L178 730 Z" /><glyph glyph-name="uni2229" unicode="&#x2229;" d="M501 654 Q407 654 347 598 Q278 533 278 410 L278 -38 L188 -38 L188 414 Q188 583 284 669 Q367 743 500 743 Q634 743 716 669 Q812 583 812 414 L812 -38 L722 -38 L722 410 Q722 534 655 598 Q596 654 501 654 Z" /><glyph glyph-name="uni222A" unicode="&#x222a;" d="M501 38 Q596 38 655 94 Q722 158 722 282 L722 730 L812 730 L812 278 Q812 110 716 24 Q633 -50 500 -50 Q366 -50 284 23 Q188 109 188 278 L188 730 L278 730 L278 282 Q278 159 347 94 Q407 38 501 38 Z" /><glyph glyph-name="uni222E" unicode="&#x222e;" d="M-12 -242 L3 -169 Q32 -185 61 -185 Q109 -185 131 -153 Q155 -118 155 -36 L155 130 Q101 145 67 188 Q33 232 33 289 Q33 347 67 391 Q101 436 155 450 L155 565 Q155 667 204 723 Q250 776 324 776 Q373 776 412 754 L396 680 Q365 697 338 697 Q290 697 268 665 Q244 630 244 547 L244 450 Q297 434 331 390 Q366 345 366 289 Q366 233 331 188 Q297 144 244 130 L244 -54 Q244 -155 195 -212 Q149 -265 75 -265 Q26 -265 -12 -242 ZM103 289 Q106 230 155 205 L155 374 Q106 347 103 289 ZM293 289 Q290 345 244 372 L244 206 Q290 232 293 289 Z" /><glyph glyph-name="uni2234" unicode="&#x2234;" d="M354 622 Q382 622 402 601 Q422 580 422 552 Q422 525 402 504 Q382 483 354 483 Q326 483 306 504 Q287 524 287 552 Q287 581 306 601 Q326 622 354 622 ZM87 149 Q87 177 106 198 Q125 219 153 219 Q182 219 202 198 Q221 178 221 149 Q221 120 202 100 Q183 80 153 80 Q125 80 106 100 Q87 120 87 149 ZM487 149 Q487 178 506 198 Q526 219 554 219 Q582 219 602 198 Q622 177 622 149 Q622 120 602 100 Q582 80 554 80 Q525 80 506 100 Q487 120 487 149 Z" /><glyph glyph-name="uni2235" unicode="&#x2235;" d="M354 80 Q326 80 306 101 Q287 121 287 150 Q287 178 306 198 Q326 219 354 219 Q382 219 402 198 Q422 177 422 150 Q422 122 402 101 Q382 80 354 80 ZM87 553 Q87 582 106 602 Q125 622 153 622 Q183 622 202 602 Q221 582 221 553 Q221 524 202 504 Q182 483 153 483 Q125 483 106 504 Q87 525 87 553 ZM487 553 Q487 582 506 602 Q525 622 554 622 Q582 622 602 602 Q622 582 622 553 Q622 525 602 504 Q582 483 554 483 Q526 483 506 504 Q487 524 487 553 Z" /><glyph glyph-name="uni2237" unicode="&#x2237;" d="M153 80 Q125 80 106 101 Q87 122 87 150 Q87 178 106 198 Q126 219 153 219 Q182 219 202 198 Q221 178 221 150 Q221 121 202 101 Q182 80 153 80 ZM87 553 Q87 582 106 602 Q125 622 153 622 Q183 622 202 602 Q221 582 221 553 Q221 524 202 504 Q182 483 153 483 Q125 483 106 504 Q87 525 87 553 ZM554 80 Q526 80 506 101 Q487 121 487 150 Q487 178 506 198 Q526 219 554 219 Q582 219 602 198 Q622 177 622 150 Q622 122 602 101 Q582 80 554 80 ZM487 553 Q487 582 506 602 Q525 622 554 622 Q582 622 602 602 Q622 582 622 553 Q622 525 602 504 Q582 483 554 483 Q526 483 506 504 Q487 524 487 553 Z" /><glyph glyph-name="uni223D" unicode="&#x223d;" d="M626 191 L563 191 Q563 300 492 300 Q449 300 391 257 Q322 206 252 206 Q190 206 154 254 Q116 304 124 386 L184 386 Q185 333 205 304 Q223 278 253 277 Q276 277 297 286 Q318 295 368 329 Q437 373 487 373 Q557 373 594 324 Q631 276 626 191 Z" /><glyph glyph-name="uni224C" unicode="&#x224c;" d="M629 270 L629 191 L121 191 L121 270 L629 270 ZM629 111 L629 32 L121 32 L121 111 L629 111 ZM626 349 L563 349 Q563 458 492 458 Q447 458 391 416 Q322 365 252 365 Q190 365 154 413 Q116 463 124 545 L185 545 Q186 491 205 463 Q223 437 253 436 Q276 436 297 445 Q319 454 368 487 Q435 531 487 531 Q557 531 594 482 Q631 434 626 349 Z" /><glyph glyph-name="uni2252" unicode="&#x2252;" d="M105 527 Q105 551 121 567 Q137 583 161 583 Q184 583 200 567 Q216 551 216 527 Q216 504 200 488 Q184 472 161 472 Q137 472 121 488 Q105 504 105 527 ZM453 53 Q453 76 469 92 Q485 108 509 108 Q532 108 548 92 Q564 76 564 53 Q564 29 548 13 Q532 -3 509 -3 Q485 -3 469 13 Q453 29 453 53 ZM84 345 L84 424 L585 424 L585 345 L84 345 ZM84 156 L84 234 L585 234 L585 156 L84 156 Z" /><glyph glyph-name="uni2261" unicode="&#x2261;" d="M84 419 L84 500 L585 500 L585 419 L84 419 ZM84 77 L84 158 L585 158 L585 77 L84 77 ZM84 248 L84 329 L585 329 L585 248 L84 248 Z" /><glyph glyph-name="uni2266" unicode="&#x2266;" d="M105 -36 L105 44 L564 44 L564 -36 L105 -36 ZM213 478 L213 474 L564 303 L564 202 L105 442 L105 509 L564 749 L564 649 L213 478 ZM105 95 L105 175 L564 175 L564 95 L105 95 Z" /><glyph glyph-name="uni2267" unicode="&#x2267;" d="M564 41 L564 -39 L105 -39 L105 41 L564 41 ZM456 471 L456 475 L105 646 L105 746 L564 506 L564 439 L105 199 L105 300 L456 471 ZM564 172 L564 92 L105 92 L105 172 L564 172 Z" /><glyph glyph-name="uni2299" unicode="&#x2299;" d="M500 807 Q693 802 822 673 Q951 544 956 351 Q951 157 822 28 Q693 -101 500 -106 Q307 -101 178 28 Q49 157 44 351 Q49 544 178 673 Q307 802 500 807 ZM500 738 Q337 734 228 624 Q119 515 115 351 Q119 186 228 77 Q337 -33 500 -37 Q663 -33 772 77 Q881 186 885 351 Q881 515 772 624 Q663 734 500 738 ZM500 263 Q465 263 439 289 Q412 316 412 351 Q412 386 439 413 Q465 439 500 439 Q536 439 562 413 Q589 386 589 351 Q589 315 562 289 Q535 263 500 263 Z" /><glyph glyph-name="uni22A5" unicode="&#x22a5;" d="M455 73 L455 677 L544 677 L544 73 L804 73 L804 -14 L196 -14 L196 73 L455 73 Z" /><glyph glyph-name="uni22BF" unicode="&#x22bf;" d="M934 -101 L66 -101 L934 824 L934 -101 ZM848 -13 L848 610 L263 -13 L848 -13 Z" /><glyph glyph-name="uni2312" unicode="&#x2312;" d="M112 171 L40 215 Q203 518 500 522 Q787 522 960 215 L888 172 Q812 295 731 356 Q629 433 500 433 Q368 433 270 361 Q185 299 112 171 Z" /><glyph glyph-name="uni2460" unicode="&#x2460;" d="M28 350 Q33 551 166 684 Q299 818 500 823 Q701 818 834 684 Q968 551 973 350 Q968 149 834 16 Q701 -118 500 -123 Q299 -118 166 16 Q33 149 28 350 ZM500 -62 Q675 -58 791 59 Q908 175 912 350 Q908 525 791 641 Q675 758 500 762 Q325 758 209 641 Q92 525 88 350 Q92 175 209 59 Q325 -58 500 -62 ZM468 89 L468 481 Q420 440 357 428 L357 519 Q437 541 495 601 L565 601 L565 89 L468 89 Z" /><glyph glyph-name="uni2461" unicode="&#x2461;" d="M28 350 Q33 551 166 684 Q299 818 500 823 Q701 818 834 684 Q968 551 973 350 Q968 149 834 16 Q701 -118 500 -123 Q299 -118 166 16 Q33 149 28 350 ZM500 -62 Q675 -58 791 59 Q908 175 912 350 Q908 525 791 641 Q675 758 500 762 Q325 758 209 641 Q92 525 88 350 Q92 175 209 59 Q325 -58 500 -62 ZM337 90 L337 162 Q337 228 369 270 Q404 316 498 366 Q544 392 560 414 Q574 434 574 466 Q574 491 557 507 Q538 525 500 525 Q433 525 375 478 L342 553 Q412 608 501 611 Q572 611 618 574 Q665 536 665 474 Q669 361 534 291 Q475 259 449 231 Q428 208 428 183 L428 171 L665 171 L665 90 L337 90 Z" /><glyph glyph-name="uni2462" unicode="&#x2462;" d="M28 350 Q33 551 166 684 Q299 818 500 823 Q701 818 834 684 Q968 551 973 350 Q968 149 834 16 Q701 -118 500 -123 Q299 -118 166 16 Q33 149 28 350 ZM500 -62 Q675 -58 791 59 Q908 175 912 350 Q908 525 791 641 Q675 758 500 762 Q325 758 209 641 Q92 525 88 350 Q92 175 209 59 Q325 -58 500 -62 ZM486 82 Q383 82 325 146 L375 212 Q420 163 485 163 Q533 163 559 184 Q586 206 586 249 Q586 292 560 314 Q536 334 492 334 Q460 334 434 324 L409 389 L516 519 L343 519 L343 600 L640 600 L640 539 L529 413 Q560 414 590 402 Q629 386 652 351 Q677 313 677 261 Q677 183 627 134 Q574 82 486 82 Z" /><glyph glyph-name="uni2463" unicode="&#x2463;" d="M519 90 L519 179 L293 179 L293 234 L540 601 L611 601 L611 262 L675 262 L675 179 L614 179 L614 90 L519 90 ZM402 259 L524 259 L524 460 L402 259 ZM28 350 Q33 551 166 684 Q299 818 500 823 Q701 818 834 684 Q968 551 973 350 Q968 149 834 16 Q701 -118 500 -123 Q299 -118 166 16 Q33 149 28 350 ZM500 -62 Q675 -58 791 59 Q908 175 912 350 Q908 525 791 641 Q675 758 500 762 Q325 758 209 641 Q92 525 88 350 Q92 175 209 59 Q325 -58 500 -62 Z" /><glyph glyph-name="uni2464" unicode="&#x2464;" d="M28 350 Q33 551 166 684 Q299 818 500 823 Q701 818 834 684 Q968 551 973 350 Q968 149 834 16 Q701 -118 500 -123 Q299 -118 166 16 Q33 149 28 350 ZM500 -62 Q675 -58 791 59 Q908 175 912 350 Q908 525 791 641 Q675 758 500 762 Q325 758 209 641 Q92 525 88 350 Q92 175 209 59 Q325 -58 500 -62 ZM487 164 Q530 164 556 188 Q582 212 582 256 Q582 299 555 324 Q530 347 492 347 Q440 347 410 310 L340 331 L361 601 L646 601 L646 520 L440 520 L428 393 Q462 421 516 421 Q582 421 628 377 Q676 331 676 259 Q676 180 625 131 Q574 82 491 82 Q390 82 325 154 L381 215 Q425 164 487 164 Z" /><glyph glyph-name="uni2465" unicode="&#x2465;" d="M28 350 Q33 551 166 684 Q299 818 500 823 Q701 818 834 684 Q968 551 973 350 Q968 149 834 16 Q701 -118 500 -123 Q299 -118 166 16 Q33 149 28 350 ZM500 -62 Q675 -58 791 59 Q908 175 912 350 Q908 525 791 641 Q675 758 500 762 Q325 758 209 641 Q92 525 88 350 Q92 175 209 59 Q325 -58 500 -62 ZM407 255 Q407 213 432 188 Q456 164 496 164 Q536 164 560 189 Q583 213 583 255 Q584 299 560 324 Q536 349 495 349 Q455 349 431 324 Q407 299 407 255 ZM496 82 Q417 82 366 129 Q313 178 313 254 Q313 324 359 410 Q411 505 487 601 L591 601 Q491 476 453 404 Q482 421 518 421 Q585 421 631 375 Q678 328 678 256 Q678 178 627 130 Q576 82 496 82 Z" /><glyph glyph-name="uni2466" unicode="&#x2466;" d="M683 601 L683 547 Q567 319 508 90 L404 90 Q471 326 580 517 L337 517 L337 601 L683 601 ZM28 350 Q33 551 166 684 Q299 818 500 823 Q701 818 834 684 Q968 551 973 350 Q968 149 834 16 Q701 -118 500 -123 Q299 -118 166 16 Q33 149 28 350 ZM500 -62 Q675 -58 791 59 Q908 175 912 350 Q908 525 791 641 Q675 758 500 762 Q325 758 209 641 Q92 525 88 350 Q92 175 209 59 Q325 -58 500 -62 Z" /><glyph glyph-name="uni2467" unicode="&#x2467;" d="M499 82 Q416 82 366 124 Q317 165 317 232 Q317 274 340 309 Q365 346 409 363 Q334 399 334 474 Q334 534 379 571 Q425 609 499 609 Q573 609 619 571 Q665 533 665 474 Q665 395 590 363 Q635 347 660 309 Q683 275 683 232 Q683 165 635 124 Q585 82 499 82 ZM416 238 Q416 160 499 157 Q584 160 584 238 Q584 276 563 298 Q541 321 499 321 Q459 321 437 298 Q416 276 416 238 ZM430 466 Q430 435 448 416 Q467 396 499 396 Q532 396 551 416 Q570 436 570 466 Q570 498 551 517 Q532 536 499 536 Q466 536 448 517 Q430 498 430 466 ZM28 350 Q33 551 166 684 Q299 818 500 823 Q701 818 834 684 Q968 551 973 350 Q968 149 834 16 Q701 -118 500 -123 Q299 -118 166 16 Q33 149 28 350 ZM500 -62 Q675 -58 791 59 Q908 175 912 350 Q908 525 791 641 Q675 758 500 762 Q325 758 209 641 Q92 525 88 350 Q92 175 209 59 Q325 -58 500 -62 Z" /><glyph glyph-name="uni2468" unicode="&#x2468;" d="M28 350 Q33 551 166 684 Q299 818 500 823 Q701 818 834 684 Q968 551 973 350 Q968 149 834 16 Q701 -118 500 -123 Q299 -118 166 16 Q33 149 28 350 ZM500 -62 Q675 -58 791 59 Q908 175 912 350 Q908 525 791 641 Q675 758 500 762 Q325 758 209 641 Q92 525 88 350 Q92 175 209 59 Q325 -58 500 -62 ZM589 438 Q589 479 564 503 Q539 527 500 527 Q459 527 436 503 Q413 479 413 438 Q412 394 436 370 Q459 346 501 346 Q541 346 565 370 Q589 394 589 438 ZM500 609 Q580 609 631 563 Q683 516 683 439 Q683 368 638 284 Q583 184 509 90 L405 90 Q499 207 543 291 Q514 274 478 274 Q411 274 365 319 Q318 365 318 437 Q318 515 369 562 Q420 609 500 609 Z" /><glyph glyph-name="uni2469" unicode="&#x2469;" d="M617 82 Q542 82 504 150 Q467 216 467 341 Q467 474 507 542 Q546 609 621 609 Q769 609 769 347 Q769 219 731 151 Q692 82 617 82 ZM561 344 Q561 161 618 161 Q675 161 675 344 Q675 530 618 530 Q561 530 561 344 ZM28 350 Q33 551 166 684 Q299 818 500 823 Q701 818 834 684 Q968 551 973 350 Q968 149 834 16 Q701 -118 500 -123 Q299 -118 166 16 Q33 149 28 350 ZM500 -62 Q675 -58 791 59 Q908 175 912 350 Q908 525 791 641 Q675 758 500 762 Q325 758 209 641 Q92 525 88 350 Q92 175 209 59 Q325 -58 500 -62 ZM313 89 L313 481 Q287 452 230 435 L230 526 Q297 548 339 601 L403 601 L403 89 L313 89 Z" /><glyph glyph-name="uni2474" unicode="&#x2474;" d="M134 810 L196 810 Q78 578 78 350 Q78 122 196 -110 L134 -110 Q15 125 15 350 Q15 578 134 810 ZM805 810 L867 810 Q985 577 985 350 Q985 123 867 -110 L805 -110 Q922 123 922 350 Q922 580 805 810 ZM486 -17 L486 590 Q417 530 327 508 L327 600 Q430 628 514 715 L572 715 L572 -17 L486 -17 Z" /><glyph glyph-name="uni2475" unicode="&#x2475;" d="M134 810 L196 810 Q78 578 78 350 Q78 122 196 -110 L134 -110 Q15 125 15 350 Q15 578 134 810 ZM805 810 L867 810 Q985 577 985 350 Q985 123 867 -110 L805 -110 Q922 123 922 350 Q922 580 805 810 ZM275 -16 L275 86 Q274 166 319 220 Q367 278 512 363 Q577 400 603 439 Q627 475 627 528 Q627 580 592 613 Q555 648 493 648 Q412 648 329 581 L282 645 Q376 725 494 727 Q595 727 657 674 Q720 620 720 532 Q720 452 673 391 Q633 339 542 285 Q430 218 394 179 Q362 144 362 95 L362 64 L725 64 L725 -16 L275 -16 Z" /><glyph glyph-name="uni2476" unicode="&#x2476;" d="M134 810 L196 810 Q78 578 78 350 Q78 122 196 -110 L134 -110 Q15 125 15 350 Q15 578 134 810 ZM805 810 L867 810 Q985 577 985 350 Q985 123 867 -110 L805 -110 Q922 123 922 350 Q922 580 805 810 ZM484 -27 Q354 -24 270 65 L317 129 Q388 51 482 53 Q550 53 594 95 Q640 139 640 209 Q640 279 594 323 Q549 366 480 366 Q449 366 416 352 L395 402 L577 637 L294 637 L294 717 L703 717 L703 677 L517 437 Q597 437 660 376 Q728 310 728 212 Q728 110 665 44 Q597 -27 484 -27 Z" /><glyph glyph-name="uni2477" unicode="&#x2477;" d="M134 810 L196 810 Q78 578 78 350 Q78 122 196 -110 L134 -110 Q15 125 15 350 Q15 578 134 810 ZM805 810 L867 810 Q985 577 985 350 Q985 123 867 -110 L805 -110 Q922 123 922 350 Q922 580 805 810 ZM575 -17 L575 123 L243 123 L243 177 L592 715 L660 715 L660 203 L756 203 L756 123 L662 123 L662 -17 L575 -17 ZM353 203 L576 203 L576 559 L353 203 Z" /><glyph glyph-name="uni2478" unicode="&#x2478;" d="M134 810 L196 810 Q78 578 78 350 Q78 122 196 -110 L134 -110 Q15 125 15 350 Q15 578 134 810 ZM805 810 L867 810 Q985 577 985 350 Q985 123 867 -110 L805 -110 Q922 123 922 350 Q922 580 805 810 ZM485 54 Q558 54 602 96 Q648 140 648 215 Q648 287 600 332 Q555 374 491 374 Q400 374 353 310 L287 330 L318 715 L691 715 L691 635 L396 635 L376 405 Q422 451 512 451 Q603 451 668 385 Q734 318 734 220 Q734 110 665 42 Q595 -27 482 -27 Q424 -27 369 -3 Q308 24 265 74 L318 137 Q353 94 402 72 Q443 54 485 54 Z" /><glyph glyph-name="uni2479" unicode="&#x2479;" d="M134 810 L196 810 Q78 578 78 350 Q78 122 196 -110 L134 -110 Q15 125 15 350 Q15 578 134 810 ZM805 810 L867 810 Q985 577 985 350 Q985 123 867 -110 L805 -110 Q922 123 922 350 Q922 580 805 810 ZM497 -27 Q395 -27 329 36 Q260 102 260 206 Q260 301 322 411 Q388 537 518 715 L612 715 Q513 585 402 396 Q449 441 529 441 Q618 441 676 383 Q739 320 739 214 Q739 100 667 34 Q601 -27 497 -27 ZM346 214 Q346 138 387 95 Q427 53 497 53 Q649 53 651 214 Q652 287 612 331 Q573 374 509 374 Q433 374 389 330 Q346 287 346 214 Z" /><glyph glyph-name="uni247A" unicode="&#x247a;" d="M134 810 L196 810 Q78 578 78 350 Q78 122 196 -110 L134 -110 Q15 125 15 350 Q15 578 134 810 ZM805 810 L867 810 Q985 577 985 350 Q985 123 867 -110 L805 -110 Q922 123 922 350 Q922 580 805 810 ZM729 715 L729 651 Q551 364 491 -17 L397 -17 Q466 352 627 629 L272 629 L272 715 L729 715 Z" /><glyph glyph-name="uni247B" unicode="&#x247b;" d="M134 810 L196 810 Q78 578 78 350 Q78 122 196 -110 L134 -110 Q15 125 15 350 Q15 578 134 810 ZM805 810 L867 810 Q985 577 985 350 Q985 123 867 -110 L805 -110 Q922 123 922 350 Q922 580 805 810 ZM499 -27 Q388 -27 323 35 Q261 94 261 185 Q261 247 293 298 Q327 353 390 379 Q342 399 314 442 Q286 485 286 537 Q286 619 346 673 Q406 727 499 727 Q594 725 653 673 Q711 620 713 537 Q713 485 685 442 Q657 399 609 379 Q673 352 707 298 Q738 248 738 185 Q738 94 676 35 Q610 -27 499 -27 ZM348 191 Q348 57 499 52 Q574 52 613 89 Q651 125 651 191 Q651 256 614 294 Q574 335 499 335 Q425 335 385 294 Q348 256 348 191 ZM371 531 Q371 478 404 446 Q439 412 499 412 Q560 412 595 446 Q628 478 628 531 Q628 588 595 621 Q561 655 499 655 Q438 655 404 621 Q371 588 371 531 Z" /><glyph glyph-name="uni247C" unicode="&#x247c;" d="M134 810 L196 810 Q78 578 78 350 Q78 122 196 -110 L134 -110 Q15 125 15 350 Q15 578 134 810 ZM805 810 L867 810 Q985 577 985 350 Q985 123 867 -110 L805 -110 Q922 123 922 350 Q922 580 805 810 ZM500 726 Q602 726 669 663 Q739 598 739 495 Q741 399 676 288 Q605 154 480 -16 L387 -16 Q494 128 597 302 Q550 257 469 257 Q381 257 322 319 Q260 384 260 485 Q260 593 331 661 Q399 726 500 726 ZM345 485 Q345 414 386 369 Q426 325 490 325 Q565 325 608 369 Q651 413 651 485 Q651 561 610 604 Q570 646 500 646 Q429 646 387 603 Q345 560 345 485 Z" /><glyph glyph-name="uni247D" unicode="&#x247d;" d="M625 -26 Q433 -23 429 347 Q429 536 483 634 Q535 727 629 727 Q723 727 773 634 Q824 539 824 352 Q819 -25 625 -26 ZM520 349 Q520 196 551 119 Q578 52 626 52 Q674 52 701 119 Q732 196 732 349 Q732 502 701 579 Q673 648 626 648 Q579 648 551 579 Q520 502 520 349 ZM134 810 L196 810 Q78 578 78 350 Q78 122 196 -110 L134 -110 Q15 125 15 350 Q15 578 134 810 ZM805 810 L867 810 Q985 577 985 350 Q985 123 867 -110 L805 -110 Q922 123 922 350 Q922 580 805 810 ZM278 -15 L278 591 Q235 548 168 522 L168 612 Q247 645 306 715 L361 715 L361 -15 L278 -15 Z" /><glyph glyph-name="uni247E" unicode="&#x247e;" d="M134 810 L196 810 Q78 578 78 350 Q78 122 196 -110 L134 -110 Q15 125 15 350 Q15 578 134 810 ZM805 810 L867 810 Q985 577 985 350 Q985 123 867 -110 L805 -110 Q922 123 922 350 Q922 580 805 810 ZM329 -15 L329 591 Q286 548 219 522 L219 612 Q298 645 357 715 L412 715 L412 -15 L329 -15 ZM643 -15 L643 591 Q600 548 533 522 L533 612 Q612 645 671 715 L726 715 L726 -15 L643 -15 Z" /><glyph glyph-name="uni247F" unicode="&#x247f;" d="M134 810 L196 810 Q78 578 78 350 Q78 122 196 -110 L134 -110 Q15 125 15 350 Q15 578 134 810 ZM805 810 L867 810 Q985 577 985 350 Q985 123 867 -110 L805 -110 Q922 123 922 350 Q922 580 805 810 ZM278 -15 L278 591 Q235 548 168 522 L168 612 Q247 645 306 715 L361 715 L361 -15 L278 -15 ZM464 -15 L464 87 Q463 167 496 220 Q531 277 641 363 Q719 426 719 528 Q719 579 692 613 Q665 647 623 647 Q560 647 509 580 L468 644 Q540 724 623 727 Q700 727 748 674 Q797 620 797 532 Q797 451 763 391 Q733 339 665 285 Q589 224 563 182 Q541 146 541 95 L541 65 L801 65 L801 -15 L464 -15 Z" /><glyph glyph-name="uni2480" unicode="&#x2480;" d="M134 810 L196 810 Q78 578 78 350 Q78 122 196 -110 L134 -110 Q15 125 15 350 Q15 578 134 810 ZM805 810 L867 810 Q985 577 985 350 Q985 123 867 -110 L805 -110 Q922 123 922 350 Q922 580 805 810 ZM278 -15 L278 591 Q235 548 168 522 L168 612 Q247 645 306 715 L361 715 L361 -15 L278 -15 ZM621 -27 Q571 -27 525 -5 Q477 18 448 59 L486 128 Q543 51 619 53 Q674 53 709 95 Q745 138 745 208 Q745 278 708 322 Q672 365 617 365 Q593 365 565 351 L548 401 L685 635 L468 635 L468 715 L795 715 L795 675 L656 436 Q720 436 771 375 Q826 309 826 211 Q826 112 770 44 Q712 -27 621 -27 Z" /><glyph glyph-name="uni2481" unicode="&#x2481;" d="M134 810 L196 810 Q78 578 78 350 Q78 122 196 -110 L134 -110 Q15 125 15 350 Q15 578 134 810 ZM805 810 L867 810 Q985 577 985 350 Q985 123 867 -110 L805 -110 Q922 123 922 350 Q922 580 805 810 ZM676 -15 L676 127 L420 127 L420 173 L691 715 L753 715 L753 205 L819 205 L819 127 L754 127 L754 -15 L676 -15 ZM516 205 L676 205 L676 537 L516 205 ZM278 -15 L278 591 Q235 548 168 522 L168 612 Q247 645 306 715 L361 715 L361 -15 L278 -15 Z" /><glyph glyph-name="uni2482" unicode="&#x2482;" d="M134 810 L196 810 Q78 578 78 350 Q78 122 196 -110 L134 -110 Q15 125 15 350 Q15 578 134 810 ZM805 810 L867 810 Q985 577 985 350 Q985 123 867 -110 L805 -110 Q922 123 922 350 Q922 580 805 810 ZM617 48 Q678 48 711 95 Q741 138 741 213 Q741 286 713 329 Q684 373 631 373 Q570 373 533 321 L472 341 L498 715 L795 715 L795 636 L572 636 L555 415 Q589 448 648 448 Q726 448 775 388 Q826 326 826 219 Q826 100 768 35 Q712 -27 617 -27 Q493 -27 443 86 L510 122 Q542 50 617 48 ZM278 -15 L278 591 Q235 548 168 522 L168 612 Q247 645 306 715 L361 715 L361 -15 L278 -15 Z" /><glyph glyph-name="uni2483" unicode="&#x2483;" d="M134 810 L196 810 Q78 578 78 350 Q78 122 196 -110 L134 -110 Q15 125 15 350 Q15 578 134 810 ZM805 810 L867 810 Q985 577 985 350 Q985 123 867 -110 L805 -110 Q922 123 922 350 Q922 580 805 810 ZM278 -15 L278 591 Q235 548 168 522 L168 612 Q247 645 306 715 L361 715 L361 -15 L278 -15 ZM624 -27 Q543 -27 489 36 Q433 102 433 206 Q433 313 474 411 Q538 564 627 715 L713 715 Q623 565 551 401 Q584 441 650 441 Q721 441 768 383 Q820 319 820 214 Q820 100 762 34 Q708 -27 624 -27 ZM516 214 Q516 138 545 95 Q574 53 624 53 Q735 53 735 214 Q736 288 708 331 Q681 373 634 373 Q579 373 547 329 Q516 286 516 214 Z" /><glyph glyph-name="uni2484" unicode="&#x2484;" d="M134 810 L196 810 Q78 578 78 350 Q78 122 196 -110 L134 -110 Q15 125 15 350 Q15 578 134 810 ZM805 810 L867 810 Q985 577 985 350 Q985 123 867 -110 L805 -110 Q922 123 922 350 Q922 580 805 810 ZM278 -15 L278 591 Q235 548 168 522 L168 612 Q247 645 306 715 L361 715 L361 -15 L278 -15 ZM801 715 L801 656 Q649 378 588 -15 L503 -15 Q567 356 703 634 L438 634 L438 715 L801 715 Z" /><glyph glyph-name="uni2485" unicode="&#x2485;" d="M134 810 L196 810 Q78 578 78 350 Q78 122 196 -110 L134 -110 Q15 125 15 350 Q15 578 134 810 ZM805 810 L867 810 Q985 577 985 350 Q985 123 867 -110 L805 -110 Q922 123 922 350 Q922 580 805 810 ZM633 -27 Q541 -27 488 34 Q438 92 438 188 Q438 252 465 303 Q493 357 545 381 Q459 425 456 540 Q456 624 507 676 Q557 727 633 727 Q709 727 759 676 Q810 624 810 540 Q807 424 720 379 Q773 356 801 303 Q828 253 828 188 Q828 92 777 34 Q724 -27 633 -27 ZM522 192 Q522 123 551 85 Q580 47 633 47 Q685 47 714 85 Q744 124 744 192 Q744 260 715 299 Q686 339 633 339 Q579 339 550 299 Q522 260 522 192 ZM539 534 Q539 481 562 448 Q587 412 633 412 Q679 412 704 448 Q727 481 727 534 Q727 588 703 620 Q678 653 633 653 Q587 653 562 620 Q539 589 539 534 ZM278 -15 L278 591 Q235 548 168 522 L168 612 Q247 645 306 715 L361 715 L361 -15 L278 -15 Z" /><glyph glyph-name="uni2486" unicode="&#x2486;" d="M134 810 L196 810 Q78 578 78 350 Q78 122 196 -110 L134 -110 Q15 125 15 350 Q15 578 134 810 ZM805 810 L867 810 Q985 577 985 350 Q985 123 867 -110 L805 -110 Q922 123 922 350 Q922 580 805 810 ZM278 -15 L278 591 Q235 548 168 522 L168 612 Q247 645 306 715 L361 715 L361 -15 L278 -15 ZM647 727 Q728 727 782 664 Q838 598 838 494 Q838 387 797 289 Q733 136 644 -15 L558 -15 Q648 135 720 299 Q687 259 621 259 Q550 259 503 317 Q451 381 451 486 Q451 600 509 666 Q563 727 647 727 ZM755 486 Q750 644 647 647 Q536 647 536 486 Q535 413 565 369 Q593 327 641 327 Q694 327 725 371 Q755 414 755 486 Z" /><glyph glyph-name="uni2487" unicode="&#x2487;" d="M689 -26 Q508 -26 506 347 Q507 541 555 634 Q604 729 692 728 Q874 728 874 351 Q874 164 826 68 Q779 -26 689 -26 ZM591 348 Q591 47 690 47 Q735 47 761 116 Q789 192 789 348 Q789 506 761 583 Q736 653 690 653 Q644 653 619 583 Q591 505 591 348 ZM134 810 L196 810 Q78 578 78 350 Q78 122 196 -110 L134 -110 Q15 125 15 350 Q15 578 134 810 ZM805 810 L867 810 Q985 577 985 350 Q985 123 867 -110 L805 -110 Q922 123 922 350 Q922 580 805 810 ZM159 -15 L159 87 Q158 168 189 220 Q224 279 331 363 Q404 422 404 528 Q404 580 380 613 Q355 647 313 647 Q255 647 204 580 L163 644 Q232 724 313 727 Q389 727 435 674 Q482 620 482 532 Q482 450 450 391 Q421 337 355 285 Q281 226 256 182 Q236 147 236 95 L236 65 L486 65 L486 -15 L159 -15 Z" /><glyph glyph-name="uni2488" unicode="&#x2488;" d="M761 10 Q761 36 776 53 Q790 69 813 69 Q836 69 851 53 Q866 37 866 10 Q866 -16 851 -32 Q836 -48 813 -48 Q791 -48 776 -32 Q761 -16 761 10 ZM385 -37 L385 600 Q314 538 219 513 L219 610 Q327 640 415 731 L476 731 L476 -37 L385 -37 Z" /><glyph glyph-name="uni2489" unicode="&#x2489;" d="M761 10 Q761 36 776 53 Q790 69 813 69 Q836 69 851 53 Q866 37 866 10 Q866 -16 851 -32 Q836 -48 813 -48 Q791 -48 776 -32 Q761 -16 761 10 ZM166 -37 L166 70 Q162 148 213 210 Q264 272 415 360 Q484 400 511 440 Q536 477 536 534 Q536 589 499 623 Q460 659 395 659 Q309 659 223 589 L174 656 Q273 741 396 743 Q502 743 568 687 Q634 631 634 538 Q634 454 584 390 Q541 335 446 278 Q328 207 292 168 Q258 131 258 79 L258 47 L639 47 L639 -37 L166 -37 Z" /><glyph glyph-name="uni248A" unicode="&#x248a;" d="M749 10 Q749 37 764 53 Q779 69 802 69 Q825 69 839 53 Q854 36 854 10 Q854 -16 839 -32 Q824 -48 802 -48 Q779 -48 764 -32 Q749 -16 749 10 ZM375 -49 Q310 -49 251 -24 Q189 2 151 47 L200 114 Q274 33 373 35 Q445 35 491 79 Q539 125 539 198 Q539 272 491 318 Q444 363 371 363 Q337 363 304 348 L282 401 L473 647 L176 647 L176 731 L605 731 L605 689 L410 438 Q491 437 558 375 Q627 312 631 201 Q631 94 565 25 Q494 -49 375 -49 Z" /><glyph glyph-name="uni248B" unicode="&#x248b;" d="M761 10 Q761 36 776 53 Q790 69 813 69 Q836 69 851 53 Q866 37 866 10 Q866 -16 851 -32 Q836 -48 813 -48 Q791 -48 776 -32 Q761 -16 761 10 ZM471 -38 L471 110 L122 110 L122 166 L489 730 L560 730 L560 195 L661 195 L661 110 L562 110 L562 -38 L471 -38 ZM239 195 L472 195 L472 566 L239 195 Z" /><glyph glyph-name="uni248C" unicode="&#x248c;" d="M761 10 Q761 36 776 53 Q790 69 813 69 Q836 69 851 53 Q866 37 866 10 Q866 -16 851 -32 Q836 -48 813 -48 Q791 -48 776 -32 Q761 -16 761 10 ZM377 35 Q453 35 499 79 Q548 125 548 204 Q548 281 498 328 Q451 372 383 372 Q288 372 237 304 L168 325 L200 730 L593 730 L593 646 L283 646 L261 404 Q309 452 404 452 Q501 452 569 383 Q638 313 638 209 Q638 93 566 22 Q493 -50 373 -50 Q311 -50 254 -25 Q191 3 145 57 L200 123 Q238 77 289 54 Q331 35 377 35 Z" /><glyph glyph-name="uni248D" unicode="&#x248d;" d="M761 10 Q761 36 776 53 Q790 69 813 69 Q836 69 851 53 Q866 37 866 10 Q866 -16 851 -32 Q836 -48 813 -48 Q791 -48 776 -32 Q761 -16 761 10 ZM390 -49 Q283 -49 213 18 Q141 87 141 196 Q141 295 206 411 Q277 547 412 731 L511 731 Q403 588 290 396 Q343 442 423 443 Q517 443 578 382 Q644 316 644 204 Q644 84 569 15 Q499 -49 390 -49 ZM231 204 Q231 124 274 79 Q316 35 390 35 Q550 35 552 204 Q553 281 511 327 Q470 372 403 372 Q321 371 277 325 Q232 280 231 204 Z" /><glyph glyph-name="uni248E" unicode="&#x248e;" d="M761 10 Q761 36 776 53 Q790 69 813 69 Q836 69 851 53 Q866 37 866 10 Q866 -16 851 -32 Q836 -48 813 -48 Q791 -48 776 -32 Q761 -16 761 10 ZM632 731 L632 664 Q443 362 382 -37 L283 -37 Q356 351 524 641 L151 641 L151 731 L632 731 Z" /><glyph glyph-name="uni248F" unicode="&#x248f;" d="M391 -50 Q274 -50 206 15 Q141 77 141 174 Q141 239 174 292 Q210 349 277 377 Q226 398 196 443 Q167 487 167 543 Q167 630 230 686 Q294 743 391 743 Q489 743 553 686 Q616 630 616 543 Q616 487 587 443 Q557 398 506 377 Q573 349 609 292 Q642 239 642 174 Q642 77 577 15 Q509 -50 391 -50 ZM232 180 Q232 111 272 73 Q314 33 391 33 Q469 33 511 73 Q551 111 551 180 Q551 248 512 288 Q470 331 391 331 Q313 331 271 288 Q232 248 232 180 ZM256 537 Q256 482 291 447 Q327 411 391 411 Q455 411 492 447 Q527 481 527 537 Q527 596 492 630 Q455 666 391 666 Q327 666 291 630 Q256 595 256 537 ZM761 10 Q761 36 776 53 Q790 69 813 69 Q836 69 851 53 Q866 37 866 10 Q866 -16 851 -32 Q836 -48 813 -48 Q791 -48 776 -32 Q761 -16 761 10 Z" /><glyph glyph-name="uni2490" unicode="&#x2490;" d="M761 10 Q761 36 776 53 Q790 69 813 69 Q836 69 851 53 Q866 37 866 10 Q866 -16 851 -32 Q836 -48 813 -48 Q791 -48 776 -32 Q761 -16 761 10 ZM392 743 Q498 743 570 676 Q643 608 643 500 Q645 400 577 283 Q501 139 371 -37 L273 -37 Q390 120 494 297 Q441 251 359 250 Q268 250 205 316 Q140 384 140 490 Q140 603 215 675 Q286 743 392 743 ZM229 490 Q229 414 272 367 Q314 321 382 321 Q460 321 506 368 Q551 414 551 490 Q551 570 508 615 Q466 659 392 659 Q317 659 273 614 Q229 569 229 490 Z" /><glyph glyph-name="uni2491" unicode="&#x2491;" d="M576 -49 Q488 -48 434 54 Q381 157 379 346 Q379 538 434 642 Q487 742 576 742 Q666 742 719 642 Q775 537 775 346 Q775 161 719 54 Q665 -49 576 -49 ZM463 346 Q463 199 494 115 Q524 33 576 33 Q628 33 659 115 Q691 199 691 346 Q691 497 659 580 Q628 659 576 659 Q524 659 494 580 Q463 498 463 346 ZM823 10 Q823 36 838 53 Q852 69 875 69 Q898 69 913 53 Q928 37 928 10 Q928 -16 913 -32 Q898 -48 875 -48 Q853 -48 838 -32 Q823 -16 823 10 ZM193 -37 L193 603 Q146 559 77 531 L77 624 Q155 657 220 731 L277 731 L277 -37 L193 -37 Z" /><glyph glyph-name="uni2492" unicode="&#x2492;" d="M823 10 Q823 36 838 53 Q852 69 875 69 Q898 69 913 53 Q928 37 928 10 Q928 -16 913 -32 Q898 -48 875 -48 Q853 -48 838 -32 Q823 -16 823 10 ZM243 -37 L243 603 Q184 549 94 521 L94 614 Q194 650 270 731 L327 731 L327 -37 L243 -37 ZM628 -37 L628 603 Q569 549 479 521 L479 614 Q579 650 655 731 L712 731 L712 -37 L628 -37 Z" /><glyph glyph-name="uni2493" unicode="&#x2493;" d="M823 10 Q823 36 838 53 Q852 69 875 69 Q898 69 913 53 Q928 37 928 10 Q928 -16 913 -32 Q898 -48 875 -48 Q853 -48 838 -32 Q823 -16 823 10 ZM193 -37 L193 603 Q146 559 77 531 L77 624 Q155 657 220 731 L277 731 L277 -37 L193 -37 ZM351 -37 L351 70 Q350 153 394 210 Q441 271 580 360 Q643 400 668 440 Q691 477 691 534 Q691 588 657 623 Q622 659 562 659 Q482 659 403 589 L358 656 Q450 741 562 743 Q659 743 720 687 Q781 631 781 538 Q781 454 735 390 Q695 335 608 278 Q500 207 467 168 Q436 131 436 79 L436 47 L786 47 L786 -37 L351 -37 Z" /><glyph glyph-name="uni2494" unicode="&#x2494;" d="M823 10 Q823 36 838 53 Q852 69 875 69 Q898 69 913 53 Q928 37 928 10 Q928 -16 913 -32 Q898 -48 875 -48 Q853 -48 838 -32 Q823 -16 823 10 ZM193 -37 L193 603 Q146 559 77 531 L77 624 Q155 657 220 731 L277 731 L277 -37 L193 -37 ZM559 -49 Q497 -49 440 -24 Q381 2 344 47 L391 114 Q461 33 557 35 Q626 35 670 79 Q716 125 716 198 Q716 272 670 318 Q625 363 555 363 Q523 363 490 348 L469 401 L653 647 L368 647 L368 731 L779 731 L779 689 L592 438 Q671 437 736 374 Q800 311 804 201 Q804 94 741 25 Q674 -49 559 -49 Z" /><glyph glyph-name="uni2495" unicode="&#x2495;" d="M642 -38 L642 110 L342 110 L342 166 L659 730 L727 730 L727 195 L823 195 L823 110 L729 110 L729 -38 L642 -38 ZM434 195 L643 195 L643 566 L434 195 ZM823 10 Q823 36 838 53 Q852 69 875 69 Q898 69 913 53 Q928 37 928 10 Q928 -16 913 -32 Q898 -48 875 -48 Q853 -48 838 -32 Q823 -16 823 10 ZM193 -37 L193 603 Q146 559 77 531 L77 624 Q155 657 220 731 L277 731 L277 -37 L193 -37 Z" /><glyph glyph-name="uni2496" unicode="&#x2496;" d="M823 10 Q823 36 838 53 Q852 69 875 69 Q898 69 913 53 Q928 37 928 10 Q928 -16 913 -32 Q898 -48 875 -48 Q853 -48 838 -32 Q823 -16 823 10 ZM552 35 Q624 35 668 79 Q714 125 714 204 Q714 281 667 328 Q623 372 558 372 Q467 372 420 304 L354 325 L385 730 L758 730 L758 646 L463 646 L442 404 Q487 452 578 452 Q671 452 735 383 Q801 312 801 209 Q801 94 732 22 Q663 -50 549 -50 Q489 -50 435 -25 Q374 3 331 57 L385 123 Q420 77 468 54 Q508 35 552 35 ZM193 -37 L193 603 Q146 559 77 531 L77 624 Q155 657 220 731 L277 731 L277 -37 L193 -37 Z" /><glyph glyph-name="uni2497" unicode="&#x2497;" d="M823 10 Q823 36 838 53 Q852 69 875 69 Q898 69 913 53 Q928 37 928 10 Q928 -16 913 -32 Q898 -48 875 -48 Q853 -48 838 -32 Q823 -16 823 10 ZM193 -37 L193 603 Q146 559 77 531 L77 624 Q155 657 220 731 L277 731 L277 -37 L193 -37 ZM569 -49 Q467 -49 399 18 Q330 86 330 196 Q330 295 392 411 Q461 548 590 731 L685 731 Q576 580 473 396 Q522 443 601 443 Q690 443 749 382 Q813 316 813 204 Q813 84 741 15 Q674 -49 569 -49 ZM416 204 Q416 124 458 79 Q499 35 569 35 Q723 35 725 204 Q726 280 685 327 Q646 372 582 372 Q505 372 460 325 Q416 279 416 204 Z" /><glyph glyph-name="uni2498" unicode="&#x2498;" d="M823 10 Q823 36 838 53 Q852 69 875 69 Q898 69 913 53 Q928 37 928 10 Q928 -16 913 -32 Q898 -48 875 -48 Q853 -48 838 -32 Q823 -16 823 10 ZM193 -37 L193 603 Q146 559 77 531 L77 624 Q155 657 220 731 L277 731 L277 -37 L193 -37 ZM798 731 L798 664 Q618 361 558 -37 L463 -37 Q531 350 695 641 L337 641 L337 731 L798 731 Z" /><glyph glyph-name="uni2499" unicode="&#x2499;" d="M566 -50 Q455 -50 390 15 Q328 77 328 174 Q328 239 360 292 Q394 349 458 377 Q409 398 381 443 Q354 487 354 543 Q354 629 414 686 Q474 743 566 743 Q659 743 719 686 Q779 629 779 543 Q779 487 752 443 Q724 398 675 377 Q739 349 773 292 Q805 239 805 174 Q805 77 743 15 Q678 -50 566 -50 ZM416 180 Q416 111 453 73 Q492 33 566 33 Q641 33 680 73 Q717 111 717 180 Q717 249 681 288 Q642 331 566 331 Q491 331 452 288 Q416 249 416 180 ZM438 537 Q438 481 471 447 Q506 411 566 411 Q627 411 662 447 Q695 481 695 537 Q695 596 662 630 Q627 666 566 666 Q506 666 471 630 Q438 596 438 537 ZM823 10 Q823 36 838 53 Q852 69 875 69 Q898 69 913 53 Q928 37 928 10 Q928 -16 913 -32 Q898 -48 875 -48 Q853 -48 838 -32 Q823 -16 823 10 ZM193 -37 L193 603 Q146 559 77 531 L77 624 Q155 657 220 731 L277 731 L277 -37 L193 -37 Z" /><glyph glyph-name="uni249A" unicode="&#x249a;" d="M823 10 Q823 36 838 53 Q852 69 875 69 Q898 69 913 53 Q928 37 928 10 Q928 -16 913 -32 Q898 -48 875 -48 Q853 -48 838 -32 Q823 -16 823 10 ZM193 -37 L193 603 Q146 559 77 531 L77 624 Q155 657 220 731 L277 731 L277 -37 L193 -37 ZM574 743 Q675 743 744 676 Q815 607 815 500 Q817 400 752 283 Q678 137 554 -37 L460 -37 Q570 119 672 297 Q623 250 542 250 Q455 250 395 316 Q332 385 332 490 Q332 603 404 675 Q472 743 574 743 ZM417 490 Q417 414 458 367 Q499 321 564 321 Q639 321 683 368 Q727 415 727 490 Q727 571 686 615 Q645 659 574 659 Q502 659 460 614 Q417 568 417 490 Z" /><glyph glyph-name="uni249B" unicode="&#x249b;" d="M833 10 Q833 36 848 53 Q862 69 885 69 Q908 69 923 53 Q938 37 938 10 Q934 -45 885 -48 Q863 -48 848 -32 Q833 -16 833 10 ZM640 -50 Q550 -50 501 52 Q451 156 451 347 Q451 544 501 645 Q549 742 640 742 Q730 742 780 645 Q829 547 830 347 Q829 154 780 52 Q730 -49 640 -50 ZM529 347 Q529 195 558 114 Q587 33 640 33 Q694 33 724 114 Q754 195 754 347 Q754 503 724 581 Q695 657 640 657 Q529 657 529 347 ZM71 -37 L71 70 Q70 154 105 210 Q142 269 257 360 Q339 426 339 534 Q339 588 311 623 Q283 659 239 659 Q173 659 119 589 L76 656 Q151 741 239 743 Q319 743 370 687 Q421 630 421 538 Q421 454 385 390 Q353 334 283 278 Q203 214 176 171 Q152 132 152 79 L152 47 L426 47 L426 -37 L71 -37 Z" /><glyph glyph-name="uni2500" unicode="&#x2500;" d="M0 376 L1000 376 L1000 324 L0 324 L0 376 Z" /><glyph glyph-name="uni2501" unicode="&#x2501;" d="M0 406 L1000 406 L1000 294 L0 294 L0 406 Z" /><glyph glyph-name="uni2502" unicode="&#x2502;" d="M474 850 L526 850 L526 -150 L474 -150 L474 850 Z" /><glyph glyph-name="uni2503" unicode="&#x2503;" d="M444 850 L556 850 L556 -150 L444 -150 L444 850 Z" /><glyph glyph-name="uni2504" unicode="&#x2504;" d="M54 376 L274 376 L274 324 L54 324 L54 376 ZM390 376 L610 376 L610 324 L390 324 L390 376 ZM726 376 L946 376 L946 324 L726 324 L726 376 Z" /><glyph glyph-name="uni2505" unicode="&#x2505;" d="M54 406 L274 406 L274 294 L54 294 L54 406 ZM390 406 L610 406 L610 294 L390 294 L390 406 ZM726 406 L946 406 L946 294 L726 294 L726 406 Z" /><glyph glyph-name="uni2506" unicode="&#x2506;" d="M474 796 L526 796 L526 576 L474 576 L474 796 ZM526 460 L526 240 L474 240 L474 460 L526 460 ZM526 124 L526 -96 L474 -96 L474 124 L526 124 Z" /><glyph glyph-name="uni2507" unicode="&#x2507;" d="M556 796 L556 576 L444 576 L444 796 L556 796 ZM556 460 L556 240 L444 240 L444 460 L556 460 ZM556 124 L556 -96 L444 -96 L444 124 L556 124 Z" /><glyph glyph-name="uni2508" unicode="&#x2508;" d="M47 376 L203 376 L203 324 L47 324 L47 376 ZM297 376 L453 376 L453 324 L297 324 L297 376 ZM547 376 L703 376 L703 324 L547 324 L547 376 ZM797 376 L953 376 L953 324 L797 324 L797 376 Z" /><glyph glyph-name="uni2509" unicode="&#x2509;" d="M47 406 L203 406 L203 294 L47 294 L47 406 ZM297 406 L453 406 L453 294 L297 294 L297 406 ZM547 406 L703 406 L703 294 L547 294 L547 406 ZM797 406 L953 406 L953 294 L797 294 L797 406 Z" /><glyph glyph-name="uni250A" unicode="&#x250a;" d="M526 803 L526 647 L474 647 L474 803 L526 803 ZM526 553 L526 397 L474 397 L474 553 L526 553 ZM526 303 L526 147 L474 147 L474 303 L526 303 ZM526 53 L526 -103 L474 -103 L474 53 L526 53 Z" /><glyph glyph-name="uni250B" unicode="&#x250b;" d="M556 803 L556 647 L444 647 L444 803 L556 803 ZM556 553 L556 397 L444 397 L444 553 L556 553 ZM556 303 L556 147 L444 147 L444 303 L556 303 ZM556 53 L556 -103 L444 -103 L444 53 L556 53 Z" /><glyph glyph-name="uni250C" unicode="&#x250c;" d="M1000 376 L1000 324 L526 324 L526 -150 L474 -150 L474 376 L1000 376 Z" /><glyph glyph-name="uni250D" unicode="&#x250d;" d="M1000 406 L1000 294 L526 294 L526 -150 L474 -150 L474 406 L1000 406 Z" /><glyph glyph-name="uni250E" unicode="&#x250e;" d="M1000 376 L1000 324 L556 324 L556 -150 L444 -150 L444 376 L1000 376 Z" /><glyph glyph-name="uni250F" unicode="&#x250f;" d="M1000 406 L1000 294 L556 294 L556 -150 L444 -150 L444 406 L1000 406 Z" /><glyph glyph-name="uni2510" unicode="&#x2510;" d="M0 324 L0 376 L526 376 L526 -150 L474 -150 L474 324 L0 324 Z" /><glyph glyph-name="uni2511" unicode="&#x2511;" d="M0 406 L526 406 L526 -150 L474 -150 L474 294 L0 294 L0 406 Z" /><glyph glyph-name="uni2512" unicode="&#x2512;" d="M0 376 L556 376 L556 -150 L444 -150 L444 324 L0 324 L0 376 Z" /><glyph glyph-name="uni2513" unicode="&#x2513;" d="M0 406 L556 406 L556 -150 L444 -150 L444 294 L0 294 L0 406 Z" /><glyph glyph-name="uni2514" unicode="&#x2514;" d="M526 850 L526 376 L1000 376 L1000 324 L474 324 L474 850 L526 850 Z" /><glyph glyph-name="uni2515" unicode="&#x2515;" d="M526 850 L526 406 L1000 406 L1000 294 L474 294 L474 850 L526 850 Z" /><glyph glyph-name="uni2516" unicode="&#x2516;" d="M556 850 L556 376 L1000 376 L1000 324 L444 324 L444 850 L556 850 Z" /><glyph glyph-name="uni2517" unicode="&#x2517;" d="M556 850 L556 406 L1000 406 L1000 294 L444 294 L444 850 L556 850 Z" /><glyph glyph-name="uni2518" unicode="&#x2518;" d="M0 376 L474 376 L474 850 L526 850 L526 324 L0 324 L0 376 Z" /><glyph glyph-name="uni2519" unicode="&#x2519;" d="M0 406 L474 406 L474 850 L526 850 L526 294 L0 294 L0 406 Z" /><glyph glyph-name="uni251A" unicode="&#x251a;" d="M0 376 L444 376 L444 850 L556 850 L556 324 L0 324 L0 376 Z" /><glyph glyph-name="uni251B" unicode="&#x251b;" d="M0 406 L444 406 L444 850 L556 850 L556 294 L0 294 L0 406 Z" /><glyph glyph-name="uni251C" unicode="&#x251c;" d="M526 850 L526 376 L1000 376 L1000 324 L526 324 L526 -150 L474 -150 L474 850 L526 850 Z" /><glyph glyph-name="uni251D" unicode="&#x251d;" d="M526 850 L526 406 L1000 406 L1000 294 L526 294 L526 -150 L474 -150 L474 850 L526 850 Z" /><glyph glyph-name="uni251E" unicode="&#x251e;" d="M556 850 L556 376 L1000 376 L1000 324 L526 324 L526 -150 L474 -150 L474 356 L444 356 L444 850 L556 850 Z" /><glyph glyph-name="uni251F" unicode="&#x251f;" d="M526 850 L526 376 L1000 376 L1000 324 L556 324 L556 -150 L444 -150 L444 350 L474 350 L474 850 L526 850 Z" /><glyph glyph-name="uni2520" unicode="&#x2520;" d="M556 850 L556 376 L1000 376 L1000 324 L556 324 L556 -150 L444 -150 L444 850 L556 850 Z" /><glyph glyph-name="uni2521" unicode="&#x2521;" d="M556 850 L556 406 L1000 406 L1000 294 L526 294 L526 -150 L474 -150 L474 294 L444 294 L444 850 L556 850 Z" /><glyph glyph-name="uni2522" unicode="&#x2522;" d="M526 850 L526 406 L1000 406 L1000 294 L556 294 L556 -150 L444 -150 L444 406 L474 406 L474 850 L526 850 Z" /><glyph glyph-name="uni2523" unicode="&#x2523;" d="M556 850 L556 406 L1000 406 L1000 294 L556 294 L556 -150 L444 -150 L444 850 L556 850 Z" /><glyph glyph-name="uni2524" unicode="&#x2524;" d="M526 850 L526 -150 L474 -150 L474 324 L0 324 L0 376 L474 376 L474 850 L526 850 Z" /><glyph glyph-name="uni2525" unicode="&#x2525;" d="M526 850 L526 -150 L474 -150 L474 294 L0 294 L0 406 L474 406 L474 850 L526 850 Z" /><glyph glyph-name="uni2526" unicode="&#x2526;" d="M556 850 L556 350 L526 350 L526 -150 L474 -150 L474 324 L0 324 L0 376 L444 376 L444 850 L556 850 Z" /><glyph glyph-name="uni2527" unicode="&#x2527;" d="M526 850 L526 350 L556 350 L556 -150 L444 -150 L444 324 L0 324 L0 376 L474 376 L474 850 L526 850 Z" /><glyph glyph-name="uni2528" unicode="&#x2528;" d="M556 850 L556 -150 L444 -150 L444 324 L0 324 L0 376 L444 376 L444 850 L556 850 Z" /><glyph glyph-name="uni2529" unicode="&#x2529;" d="M556 850 L556 294 L526 294 L526 -150 L474 -150 L474 294 L0 294 L0 406 L444 406 L444 850 L556 850 Z" /><glyph glyph-name="uni252A" unicode="&#x252a;" d="M526 850 L526 406 L556 406 L556 -150 L444 -150 L444 294 L0 294 L0 406 L474 406 L474 850 L526 850 Z" /><glyph glyph-name="uni252B" unicode="&#x252b;" d="M556 850 L556 -150 L444 -150 L444 294 L0 294 L0 406 L444 406 L444 850 L556 850 Z" /><glyph glyph-name="uni252C" unicode="&#x252c;" d="M0 376 L1000 376 L1000 324 L526 324 L526 -150 L474 -150 L474 324 L0 324 L0 376 Z" /><glyph glyph-name="uni252D" unicode="&#x252d;" d="M0 406 L526 406 L526 376 L1000 376 L1000 324 L526 324 L526 -150 L474 -150 L474 294 L0 294 L0 406 Z" /><glyph glyph-name="uni252E" unicode="&#x252e;" d="M0 376 L474 376 L474 406 L1000 406 L1000 294 L526 294 L526 -150 L474 -150 L474 324 L0 324 L0 376 Z" /><glyph glyph-name="uni252F" unicode="&#x252f;" d="M0 406 L1000 406 L1000 294 L526 294 L526 -150 L474 -150 L474 294 L0 294 L0 406 Z" /><glyph glyph-name="uni2530" unicode="&#x2530;" d="M0 376 L1000 376 L1000 324 L556 324 L556 -150 L444 -150 L444 324 L0 324 L0 376 Z" /><glyph glyph-name="uni2531" unicode="&#x2531;" d="M0 406 L556 406 L556 376 L1000 376 L1000 324 L556 324 L556 -150 L444 -150 L444 294 L0 294 L0 406 Z" /><glyph glyph-name="uni2532" unicode="&#x2532;" d="M0 376 L444 376 L444 406 L1000 406 L1000 294 L556 294 L556 -150 L444 -150 L444 324 L0 324 L0 376 Z" /><glyph glyph-name="uni2533" unicode="&#x2533;" d="M0 406 L1000 406 L1000 294 L556 294 L556 -150 L444 -150 L444 294 L0 294 L0 406 Z" /><glyph glyph-name="uni2534" unicode="&#x2534;" d="M0 376 L474 376 L474 850 L526 850 L526 376 L1000 376 L1000 324 L0 324 L0 376 Z" /><glyph glyph-name="uni2535" unicode="&#x2535;" d="M526 850 L526 376 L1000 376 L1000 324 L526 324 L526 294 L0 294 L0 406 L474 406 L474 850 L526 850 Z" /><glyph glyph-name="uni2536" unicode="&#x2536;" d="M526 850 L526 406 L1000 406 L1000 294 L474 294 L474 324 L0 324 L0 376 L474 376 L474 850 L526 850 Z" /><glyph glyph-name="uni2537" unicode="&#x2537;" d="M526 850 L526 406 L1000 406 L1000 294 L0 294 L0 406 L474 406 L474 850 L526 850 Z" /><glyph glyph-name="uni2538" unicode="&#x2538;" d="M556 850 L556 376 L1000 376 L1000 324 L0 324 L0 376 L444 376 L444 850 L556 850 Z" /><glyph glyph-name="uni2539" unicode="&#x2539;" d="M556 850 L556 376 L1000 376 L1000 324 L556 324 L556 294 L0 294 L0 406 L444 406 L444 850 L556 850 Z" /><glyph glyph-name="uni253A" unicode="&#x253a;" d="M556 850 L556 406 L1000 406 L1000 294 L444 294 L444 324 L0 324 L0 376 L444 376 L444 850 L556 850 Z" /><glyph glyph-name="uni253B" unicode="&#x253b;" d="M556 850 L556 406 L1000 406 L1000 294 L0 294 L0 406 L444 406 L444 850 L556 850 Z" /><glyph glyph-name="uni253C" unicode="&#x253c;" d="M526 850 L526 376 L1000 376 L1000 324 L526 324 L526 -150 L474 -150 L474 324 L0 324 L0 376 L474 376 L474 850 L526 850 Z" /><glyph glyph-name="uni253D" unicode="&#x253d;" d="M526 850 L526 376 L1000 376 L1000 324 L526 324 L526 -150 L474 -150 L474 294 L0 294 L0 406 L474 406 L474 850 L526 850 Z" /><glyph glyph-name="uni253E" unicode="&#x253e;" d="M526 850 L526 406 L1000 406 L1000 294 L526 294 L526 -150 L474 -150 L474 324 L0 324 L0 376 L474 376 L474 850 L526 850 Z" /><glyph glyph-name="uni253F" unicode="&#x253f;" d="M526 850 L526 406 L1000 406 L1000 294 L526 294 L526 -150 L474 -150 L474 294 L0 294 L0 406 L474 406 L474 850 L526 850 Z" /><glyph glyph-name="uni2540" unicode="&#x2540;" d="M556 850 L556 376 L1000 376 L1000 324 L526 324 L526 -150 L474 -150 L474 324 L0 324 L0 376 L444 376 L444 850 L556 850 Z" /><glyph glyph-name="uni2541" unicode="&#x2541;" d="M526 850 L526 376 L1000 376 L1000 324 L556 324 L556 -150 L444 -150 L444 324 L0 324 L0 376 L474 376 L474 850 L526 850 Z" /><glyph glyph-name="uni2542" unicode="&#x2542;" d="M556 850 L556 376 L1000 376 L1000 324 L556 324 L556 -150 L444 -150 L444 324 L0 324 L0 376 L444 376 L444 850 L556 850 Z" /><glyph glyph-name="uni2543" unicode="&#x2543;" d="M556 850 L556 376 L1000 376 L1000 324 L526 324 L526 -150 L474 -150 L474 294 L0 294 L0 406 L444 406 L444 850 L556 850 Z" /><glyph glyph-name="uni2544" unicode="&#x2544;" d="M556 850 L556 406 L1000 406 L1000 294 L526 294 L526 -150 L474 -150 L474 324 L0 324 L0 376 L444 376 L444 850 L556 850 Z" /><glyph glyph-name="uni2545" unicode="&#x2545;" d="M526 850 L526 376 L1000 376 L1000 324 L556 324 L556 -150 L444 -150 L444 294 L0 294 L0 406 L474 406 L474 850 L526 850 Z" /><glyph glyph-name="uni2546" unicode="&#x2546;" d="M526 850 L526 406 L1000 406 L1000 294 L556 294 L556 -150 L444 -150 L444 324 L0 324 L0 376 L474 376 L474 850 L526 850 Z" /><glyph glyph-name="uni2547" unicode="&#x2547;" d="M556 850 L556 406 L1000 406 L1000 294 L526 294 L526 -150 L474 -150 L474 294 L0 294 L0 406 L444 406 L444 850 L556 850 Z" /><glyph glyph-name="uni2548" unicode="&#x2548;" d="M526 850 L526 406 L1000 406 L1000 294 L556 294 L556 -150 L444 -150 L444 294 L0 294 L0 406 L474 406 L474 850 L526 850 Z" /><glyph glyph-name="uni2549" unicode="&#x2549;" d="M556 850 L556 376 L1000 376 L1000 324 L556 324 L556 -150 L444 -150 L444 294 L0 294 L0 406 L444 406 L444 850 L556 850 Z" /><glyph glyph-name="uni254A" unicode="&#x254a;" d="M556 850 L556 406 L1000 406 L1000 294 L556 294 L556 -150 L444 -150 L444 324 L0 324 L0 376 L444 376 L444 850 L556 850 Z" /><glyph glyph-name="uni254B" unicode="&#x254b;" d="M556 850 L556 406 L1000 406 L1000 294 L556 294 L556 -150 L444 -150 L444 294 L0 294 L0 406 L444 406 L444 850 L556 850 Z" /><glyph glyph-name="uni2550" unicode="&#x2550;" d="M1000 377 L0 377 L0 431 L1000 431 L1000 377 ZM1000 269 L0 269 L0 323 L1000 323 L1000 269 Z" /><glyph glyph-name="uni2551" unicode="&#x2551;" d="M419 -150 L419 850 L473 850 L473 -150 L419 -150 ZM527 -150 L527 850 L581 850 L581 -150 L527 -150 Z" /><glyph glyph-name="uni2552" unicode="&#x2552;" d="M1000 431 L1000 377 L527 377 L527 323 L1000 323 L1000 269 L527 269 L527 -150 L473 -150 L473 431 L1000 431 Z" /><glyph glyph-name="uni2553" unicode="&#x2553;" d="M1000 377 L1000 323 L581 323 L581 -150 L527 -150 L527 323 L473 323 L473 -150 L419 -150 L419 377 L1000 377 Z" /><glyph glyph-name="uni2554" unicode="&#x2554;" d="M1000 431 L1000 377 L473 377 L473 -150 L419 -150 L419 431 L1000 431 ZM1000 323 L1000 269 L581 269 L581 -150 L527 -150 L527 323 L1000 323 Z" /><glyph glyph-name="uni2555" unicode="&#x2555;" d="M0 431 L527 431 L527 -150 L473 -150 L473 269 L0 269 L0 323 L473 323 L473 377 L0 377 L0 431 Z" /><glyph glyph-name="uni2556" unicode="&#x2556;" d="M0 377 L581 377 L581 -150 L527 -150 L527 323 L473 323 L473 -150 L419 -150 L419 323 L0 323 L0 377 Z" /><glyph glyph-name="uni2557" unicode="&#x2557;" d="M0 431 L581 431 L581 -150 L527 -150 L527 377 L0 377 L0 431 ZM0 323 L473 323 L473 -150 L419 -150 L419 269 L0 269 L0 323 Z" /><glyph glyph-name="uni2558" unicode="&#x2558;" d="M527 850 L527 431 L1000 431 L1000 377 L527 377 L527 323 L1000 323 L1000 269 L473 269 L473 850 L527 850 Z" /><glyph glyph-name="uni2559" unicode="&#x2559;" d="M581 850 L581 377 L1000 377 L1000 323 L419 323 L419 850 L473 850 L473 377 L527 377 L527 850 L581 850 Z" /><glyph glyph-name="uni255A" unicode="&#x255a;" d="M581 850 L581 431 L1000 431 L1000 377 L527 377 L527 850 L581 850 ZM419 850 L473 850 L473 323 L1000 323 L1000 269 L419 269 L419 850 Z" /><glyph glyph-name="uni255B" unicode="&#x255b;" d="M473 431 L473 850 L527 850 L527 269 L0 269 L0 323 L473 323 L473 377 L0 377 L0 431 L473 431 Z" /><glyph glyph-name="uni255C" unicode="&#x255c;" d="M419 850 L473 850 L473 377 L527 377 L527 850 L581 850 L581 323 L0 323 L0 377 L419 377 L419 850 Z" /><glyph glyph-name="uni255D" unicode="&#x255d;" d="M419 850 L473 850 L473 377 L0 377 L0 431 L419 431 L419 850 ZM527 850 L581 850 L581 269 L0 269 L0 323 L527 323 L527 850 Z" /><glyph glyph-name="uni255E" unicode="&#x255e;" d="M527 850 L527 431 L1000 431 L1000 377 L527 377 L527 323 L1000 323 L1000 269 L527 269 L527 -150 L473 -150 L473 850 L527 850 Z" /><glyph glyph-name="uni255F" unicode="&#x255f;" d="M527 850 L581 850 L581 377 L1000 377 L1000 323 L581 323 L581 -150 L527 -150 L527 850 ZM419 850 L473 850 L473 -150 L419 -150 L419 850 Z" /><glyph glyph-name="uni2560" unicode="&#x2560;" d="M581 850 L581 431 L1000 431 L1000 377 L527 377 L527 850 L581 850 ZM419 850 L473 850 L473 -150 L419 -150 L419 850 ZM1000 323 L1000 269 L581 269 L581 -150 L527 -150 L527 323 L1000 323 Z" /><glyph glyph-name="uni2561" unicode="&#x2561;" d="M527 850 L527 -150 L473 -150 L473 269 L0 269 L0 323 L473 323 L473 377 L0 377 L0 431 L473 431 L473 850 L527 850 Z" /><glyph glyph-name="uni2562" unicode="&#x2562;" d="M419 850 L473 850 L473 -150 L419 -150 L419 323 L0 323 L0 377 L419 377 L419 850 ZM527 850 L581 850 L581 -150 L527 -150 L527 850 Z" /><glyph glyph-name="uni2563" unicode="&#x2563;" d="M419 850 L473 850 L473 377 L0 377 L0 431 L419 431 L419 850 ZM527 850 L581 850 L581 -150 L527 -150 L527 850 ZM0 323 L473 323 L473 -150 L419 -150 L419 269 L0 269 L0 323 Z" /><glyph glyph-name="uni2564" unicode="&#x2564;" d="M0 431 L1000 431 L1000 377 L0 377 L0 431 ZM0 323 L1000 323 L1000 269 L527 269 L527 -150 L473 -150 L473 269 L0 269 L0 323 Z" /><glyph glyph-name="uni2565" unicode="&#x2565;" d="M0 377 L1000 377 L1000 323 L581 323 L581 -150 L527 -150 L527 323 L473 323 L473 -150 L419 -150 L419 323 L0 323 L0 377 Z" /><glyph glyph-name="uni2566" unicode="&#x2566;" d="M0 431 L1000 431 L1000 377 L0 377 L0 431 ZM0 323 L473 323 L473 -150 L419 -150 L419 269 L0 269 L0 323 ZM1000 323 L1000 269 L581 269 L581 -150 L527 -150 L527 323 L1000 323 Z" /><glyph glyph-name="uni2567" unicode="&#x2567;" d="M0 377 L0 431 L473 431 L473 850 L527 850 L527 431 L1000 431 L1000 377 L0 377 ZM0 323 L1000 323 L1000 269 L0 269 L0 323 Z" /><glyph glyph-name="uni2568" unicode="&#x2568;" d="M0 377 L419 377 L419 850 L473 850 L473 377 L527 377 L527 850 L581 850 L581 377 L1000 377 L1000 323 L0 323 L0 377 Z" /><glyph glyph-name="uni2569" unicode="&#x2569;" d="M419 850 L473 850 L473 377 L0 377 L0 431 L419 431 L419 850 ZM581 850 L581 431 L1000 431 L1000 377 L527 377 L527 850 L581 850 ZM0 323 L1000 323 L1000 269 L0 269 L0 323 Z" /><glyph glyph-name="uni256A" unicode="&#x256a;" d="M0 323 L473 323 L473 377 L0 377 L0 431 L473 431 L473 850 L527 850 L527 431 L1000 431 L1000 377 L527 377 L527 323 L1000 323 L1000 269 L527 269 L527 -150 L473 -150 L473 269 L0 269 L0 323 Z" /><glyph glyph-name="uni256B" unicode="&#x256b;" d="M419 850 L473 850 L473 377 L527 377 L527 850 L581 850 L581 377 L1000 377 L1000 323 L581 323 L581 -150 L527 -150 L527 323 L473 323 L473 -150 L419 -150 L419 323 L0 323 L0 377 L419 377 L419 850 Z" /><glyph glyph-name="uni256C" unicode="&#x256c;" d="M419 850 L473 850 L473 378 L0 378 L0 431 L419 431 L419 850 ZM581 850 L581 431 L1000 431 L1000 378 L527 378 L527 850 L581 850 ZM0 323 L473 323 L473 -150 L419 -150 L419 269 L0 269 L0 323 ZM1000 323 L1000 269 L581 269 L581 -150 L527 -150 L527 323 L1000 323 Z" /><glyph glyph-name="uni256D" unicode="&#x256d;" d="M1000 372 L1000 327 Q796 322 662 188 Q528 54 523 -150 L478 -150 Q483 69 628 216 Q776 366 1000 372 Z" /><glyph glyph-name="uni256E" unicode="&#x256e;" d="M0 327 L0 372 Q219 367 366 222 Q516 74 522 -150 L477 -150 Q472 54 338 188 Q204 322 0 327 Z" /><glyph glyph-name="uni256F" unicode="&#x256f;" d="M0 328 L0 373 Q204 378 338 512 Q472 646 477 850 L522 850 Q517 631 372 484 Q224 334 0 328 Z" /><glyph glyph-name="uni2570" unicode="&#x2570;" d="M1000 373 L1000 328 Q781 333 634 478 Q484 626 478 850 L523 850 Q528 646 662 512 Q796 378 1000 373 Z" /><glyph glyph-name="uni2571" unicode="&#x2571;" d="M997 814 L36 -147 L3 -113 L964 848 L997 814 Z" /><glyph glyph-name="uni2572" unicode="&#x2572;" d="M964 -147 L3 814 L36 848 L997 -113 L964 -147 Z" /><glyph glyph-name="uni2573" unicode="&#x2573;" d="M466 350 L3 814 L36 848 L500 384 L964 848 L997 814 L533 350 L997 -113 L964 -147 L500 317 L36 -147 L3 -113 L466 350 Z" /><glyph glyph-name="uni2581" unicode="&#x2581;" d="M0 -34 L1000 -34 L1000 -150 L0 -150 L0 -34 Z" /><glyph glyph-name="uni2582" unicode="&#x2582;" d="M0 90 L1000 90 L1000 -150 L0 -150 L0 90 Z" /><glyph glyph-name="uni2583" unicode="&#x2583;" d="M0 216 L1000 216 L1000 -150 L0 -150 L0 216 Z" /><glyph glyph-name="uni2584" unicode="&#x2584;" d="M0 341 L1000 341 L1000 -150 L0 -150 L0 341 Z" /><glyph glyph-name="uni2585" unicode="&#x2585;" d="M0 466 L1000 466 L1000 -150 L0 -150 L0 466 Z" /><glyph glyph-name="uni2586" unicode="&#x2586;" d="M0 590 L1000 590 L1000 -150 L0 -150 L0 590 Z" /><glyph glyph-name="uni2587" unicode="&#x2587;" d="M0 717 L1000 717 L1000 -150 L0 -150 L0 717 Z" /><glyph glyph-name="uni2588" unicode="&#x2588;" d="M0 850 L1000 850 L1000 -150 L0 -150 L0 850 Z" /><glyph glyph-name="uni2589" unicode="&#x2589;" d="M867 850 L867 -150 L0 -150 L0 850 L867 850 Z" /><glyph glyph-name="uni258A" unicode="&#x258a;" d="M746 850 L746 -150 L0 -150 L0 850 L746 850 Z" /><glyph glyph-name="uni258B" unicode="&#x258b;" d="M625 850 L625 -150 L0 -150 L0 850 L625 850 Z" /><glyph glyph-name="uni258C" unicode="&#x258c;" d="M500 850 L500 -150 L0 -150 L0 850 L500 850 Z" /><glyph glyph-name="uni258D" unicode="&#x258d;" d="M375 850 L375 -150 L0 -150 L0 850 L375 850 Z" /><glyph glyph-name="uni258E" unicode="&#x258e;" d="M250 850 L250 -150 L0 -150 L0 850 L250 850 Z" /><glyph glyph-name="uni258F" unicode="&#x258f;" d="M125 850 L125 -150 L0 -150 L0 850 L125 850 Z" /><glyph glyph-name="uni2593" unicode="&#x2593;" d="M0 -150 L0 850 L1000 850 L1000 -150 L0 -150 ZM180 782 L84 782 L84 717 L180 717 L180 782 ZM391 782 L292 782 L292 717 L391 717 L391 782 ZM602 782 L504 782 L504 717 L602 717 L602 782 ZM816 782 L719 782 L719 717 L816 717 L816 782 ZM285 651 L188 651 L188 585 L285 585 L285 651 ZM496 651 L398 651 L398 585 L496 585 L496 651 ZM707 651 L609 651 L609 585 L707 585 L707 651 ZM914 651 L816 651 L816 585 L914 585 L914 651 ZM180 518 L84 518 L84 452 L180 452 L180 518 ZM391 518 L292 518 L292 452 L391 452 L391 518 ZM602 518 L504 518 L504 452 L602 452 L602 518 ZM816 518 L719 518 L719 452 L816 452 L816 518 ZM285 385 L188 385 L188 319 L285 319 L285 385 ZM496 385 L398 385 L398 319 L496 319 L496 385 ZM707 385 L609 385 L609 319 L707 319 L707 385 ZM914 385 L816 385 L816 319 L914 319 L914 385 ZM180 253 L84 253 L84 186 L180 186 L180 253 ZM391 253 L292 253 L292 186 L391 186 L391 253 ZM602 253 L504 253 L504 186 L602 186 L602 253 ZM816 253 L719 253 L719 186 L816 186 L816 253 ZM284 120 L187 120 L187 53 L284 53 L284 120 ZM496 120 L398 120 L398 53 L496 53 L496 120 ZM707 120 L609 120 L609 53 L707 53 L707 120 ZM914 120 L816 120 L816 53 L914 53 L914 120 ZM180 -16 L84 -16 L84 -83 L180 -83 L180 -16 ZM391 -17 L292 -17 L292 -83 L391 -83 L391 -17 ZM602 -17 L504 -17 L504 -83 L602 -83 L602 -17 ZM816 -17 L719 -17 L719 -83 L816 -83 L816 -17 Z" /><glyph glyph-name="uni2594" unicode="&#x2594;" d="M0 850 L1000 850 L1000 729 L0 729 L0 850 Z" /><glyph glyph-name="uni2595" unicode="&#x2595;" d="M1000 850 L1000 -150 L879 -150 L879 850 L1000 850 Z" /><glyph glyph-name="uni25A0" unicode="&#x25a0;" d="M900 -50 L100 -50 L100 750 L900 750 L900 -50 Z" /><glyph glyph-name="uni25A1" unicode="&#x25a1;" d="M900 -50 L100 -50 L100 750 L900 750 L900 -50 ZM145 705 L145 -5 L855 -5 L855 705 L145 705 Z" /><glyph glyph-name="uni25B2" unicode="&#x25b2;" d="M500 718 L865 -18 L135 -18 L500 718 Z" /><glyph glyph-name="uni25B3" unicode="&#x25b3;" d="M865 -18 L135 -18 L500 718 L865 -18 ZM500 621 L205 24 L795 24 L500 621 Z" /><glyph glyph-name="uni25BC" unicode="&#x25bc;" d="M865 718 L500 -18 L135 718 L865 718 Z" /><glyph glyph-name="uni25BD" unicode="&#x25bd;" d="M135 718 L865 718 L500 -18 L135 718 ZM205 676 L500 79 L795 676 L205 676 Z" /><glyph glyph-name="uni25C6" unicode="&#x25c6;" d="M500 -100 L50 350 L500 800 L950 350 L500 -100 Z" /><glyph glyph-name="uni25C7" unicode="&#x25c7;" d="M500 -100 L50 350 L500 800 L950 350 L500 -100 ZM500 -36 L886 350 L500 736 L114 350 L500 -36 Z" /><glyph glyph-name="uni25CB" unicode="&#x25cb;" d="M181 350 Q184 214 274 124 Q364 34 500 31 Q632 31 725 124 Q818 217 818 350 Q818 482 725 575 Q632 668 500 668 Q367 668 274 575 Q181 482 181 350 ZM138 350 Q138 500 244 606 Q350 712 500 712 Q650 712 756 606 Q862 500 862 350 Q862 200 756 94 Q650 -12 500 -12 Q346 -8 244 94 Q142 196 138 350 Z" /><glyph glyph-name="uni25CE" unicode="&#x25ce;" d="M279 350 Q279 441 344 506 Q409 571 500 571 Q591 571 656 506 Q721 441 721 350 Q721 259 656 194 Q591 129 500 129 Q409 129 344 194 Q279 259 279 350 ZM500 172 Q574 172 626 224 Q678 276 678 350 Q678 424 626 476 Q574 528 500 528 Q426 528 374 476 Q322 424 322 350 Q322 276 374 224 Q426 172 500 172 ZM181 350 Q184 214 274 124 Q364 34 500 31 Q632 31 725 124 Q818 217 818 350 Q818 482 725 575 Q632 668 500 668 Q367 668 274 575 Q181 482 181 350 ZM138 350 Q138 500 244 606 Q350 712 500 712 Q650 712 756 606 Q862 500 862 350 Q862 200 756 94 Q650 -12 500 -12 Q346 -8 244 94 Q142 196 138 350 Z" /><glyph glyph-name="uni25CF" unicode="&#x25cf;" d="M138 350 Q138 500 244 606 Q350 712 500 712 Q650 712 756 606 Q862 500 862 350 Q862 200 756 94 Q650 -12 500 -12 Q346 -8 244 94 Q142 196 138 350 Z" /><glyph glyph-name="uni25E2" unicode="&#x25e2;" d="M897 -72 L104 -72 L897 772 L897 -72 Z" /><glyph glyph-name="uni25E3" unicode="&#x25e3;" d="M100 -66 L100 767 L900 -66 L100 -66 Z" /><glyph glyph-name="uni25E4" unicode="&#x25e4;" d="M82 750 L918 750 L82 -50 L82 750 Z" /><glyph glyph-name="uni25E5" unicode="&#x25e5;" d="M901 769 L901 -67 L100 769 L901 769 Z" /><glyph glyph-name="uni2605" unicode="&#x2605;" d="M505 791 L612 455 L961 455 L963 446 L680 245 L793 -90 L786 -95 L500 115 L214 -95 L207 -90 L320 245 L37 446 L39 455 L388 455 L495 791 L505 791 Z" /><glyph glyph-name="uni2606" unicode="&#x2606;" d="M504 791 L612 455 L962 455 L962 446 L679 246 L792 -89 L785 -95 L500 115 L215 -95 L208 -89 L321 246 L37 446 L37 455 L388 455 L496 791 L504 791 ZM503 657 L497 657 L419 414 L166 414 L166 407 L371 263 L289 20 L294 16 L500 167 L706 16 L711 20 L629 263 L835 407 L835 414 L581 414 L503 657 Z" /><glyph glyph-name="uni2640" unicode="&#x2640;" d="M500 739 Q424 739 370 685 Q317 632 317 555 Q317 478 370 425 Q423 372 500 372 Q577 372 630 425 Q683 478 683 555 Q683 632 630 685 Q576 739 500 739 ZM536 302 L536 225 L786 225 L786 151 L536 151 L536 -113 L464 -113 L464 151 L214 151 L214 225 L464 225 L464 302 Q370 315 308 386 Q244 459 244 555 Q244 662 319 737 Q394 812 500 812 Q606 812 681 737 Q756 662 756 555 Q754 456 693 386 Q631 317 536 302 Z" /><glyph glyph-name="uni2642" unicode="&#x2642;" d="M500 327 Q424 327 370 273 Q317 220 317 143 Q317 66 370 13 Q423 -40 500 -40 Q577 -40 630 13 Q683 66 683 143 Q683 220 630 273 Q576 327 500 327 ZM536 397 Q631 383 693 312 Q756 240 756 143 Q756 37 681 -38 Q606 -113 500 -113 Q394 -113 319 -38 Q244 37 244 143 Q244 240 307 312 Q369 383 464 397 L464 703 L340 564 L288 615 L500 828 L712 615 L661 564 L536 704 L536 397 Z" /><glyph glyph-name="uni3001" unicode="&#x3001;" d="M132 124 L193 171 Q289 75 368 -39 L306 -88 Q219 39 132 124 Z" /><glyph glyph-name="uni3002" unicode="&#x3002;" d="M167 42 Q167 7 191 -17 Q215 -41 250 -41 Q284 -41 308 -17 Q332 7 332 42 Q332 77 308 101 Q284 125 250 125 Q215 125 191 101 Q167 77 167 42 ZM101 42 Q101 104 144 147 Q187 190 250 190 Q311 190 354 147 Q397 104 397 42 Q397 -20 354 -63 Q311 -106 250 -106 Q187 -106 144 -63 Q101 -20 101 42 Z" /><glyph glyph-name="uni3003" unicode="&#x3003;" d="M266 156 L188 196 Q275 288 332 393 Q385 490 426 623 L510 588 Q457 442 404 346 Q346 241 266 156 ZM523 92 L444 132 Q527 225 586 343 Q637 445 682 592 L766 557 Q718 411 664 305 Q604 187 523 92 Z" /><glyph glyph-name="uni3005" unicode="&#x3005;" d="M190 194 L112 237 Q343 456 480 757 L570 726 Q530 638 488 568 L840 568 L888 514 Q782 315 622 139 Q675 92 725 32 L656 -33 Q528 121 366 225 L426 282 Q499 235 554 192 Q667 311 764 485 L437 485 Q329 325 190 194 Z" /><glyph glyph-name="uni3006" unicode="&#x3006;" d="M234 -40 L163 7 Q199 108 210 202 Q218 271 219 420 Q219 493 253 532 Q285 569 344 569 Q390 569 449 544 Q500 522 549 486 Q655 603 799 738 L869 681 Q729 561 616 434 Q699 365 774 286 Q751 262 709 218 Q621 319 560 372 Q381 177 234 -40 ZM295 412 Q293 219 264 130 Q316 205 376 278 Q435 350 496 423 Q410 495 348 495 Q322 495 309 476 Q296 456 295 412 Z" /><glyph glyph-name="uni3007" unicode="&#x3007;" d="M500 779 Q683 774 804 653 Q925 532 930 350 Q925 167 804 46 Q683 -75 500 -79 Q318 -75 197 46 Q76 167 71 350 Q76 532 196 653 Q317 774 500 779 ZM500 701 Q351 697 253 599 Q154 500 150 350 Q154 200 253 101 Q352 3 500 -1 Q649 3 747 101 Q846 200 850 350 Q850 495 747 598 Q644 701 500 701 Z" /><glyph glyph-name="uni3008" unicode="&#x3008;" d="M613 351 L836 824 L912 787 L706 351 L912 -86 L836 -123 L613 351 Z" /><glyph glyph-name="uni3009" unicode="&#x3009;" d="M164 824 L387 351 L164 -123 L88 -86 L294 351 L88 787 L164 824 Z" /><glyph glyph-name="uni300A" unicode="&#x300a;" d="M613 351 L836 824 L912 787 L706 351 L912 -86 L836 -123 L613 351 ZM428 351 L649 824 L726 787 L520 351 L726 -86 L649 -123 L428 351 Z" /><glyph glyph-name="uni300B" unicode="&#x300b;" d="M164 824 L387 351 L164 -123 L88 -86 L294 351 L88 787 L164 824 ZM351 824 L572 351 L351 -123 L274 -86 L480 351 L274 787 L351 824 Z" /><glyph glyph-name="uni300C" unicode="&#x300c;" d="M691 151 L691 823 L912 823 L912 735 L779 735 L779 151 L691 151 Z" /><glyph glyph-name="uni300D" unicode="&#x300d;" d="M309 549 L309 -123 L88 -123 L88 -35 L221 -35 L221 549 L309 549 Z" /><glyph glyph-name="uni300E" unicode="&#x300e;" d="M624 824 L912 824 L912 685 L768 685 L768 152 L624 152 L624 824 ZM863 781 L672 781 L672 195 L719 195 L719 729 L863 729 L863 781 Z" /><glyph glyph-name="uni300F" unicode="&#x300f;" d="M376 -123 L88 -123 L88 16 L232 16 L232 549 L376 549 L376 -123 ZM137 -80 L328 -80 L328 506 L281 506 L281 -28 L137 -28 L137 -80 Z" /><glyph glyph-name="uni3010" unicode="&#x3010;" d="M670 824 L912 824 Q778 622 778 351 Q778 77 912 -123 L670 -123 L670 824 Z" /><glyph glyph-name="uni3011" unicode="&#x3011;" d="M88 824 L330 824 L330 -123 L88 -123 Q222 77 222 351 Q222 622 88 824 Z" /><glyph glyph-name="uni3012" unicode="&#x3012;" d="M143 674 L856 674 L856 592 L143 592 L143 674 ZM143 383 L143 465 L856 465 L856 383 L550 383 L550 -38 L449 -38 L449 383 L143 383 Z" /><glyph glyph-name="uni3013" unicode="&#x3013;" d="M204 614 L797 614 L797 425 L204 425 L204 614 ZM204 272 L797 272 L797 83 L204 83 L204 272 Z" /><glyph glyph-name="uni3014" unicode="&#x3014;" d="M683 -31 L683 730 L885 824 L912 753 L759 676 L759 24 L912 -52 L885 -123 L683 -31 Z" /><glyph glyph-name="uni3015" unicode="&#x3015;" d="M317 730 L317 -31 L115 -123 L88 -52 L241 24 L241 676 L88 753 L115 824 L317 730 Z" /><glyph glyph-name="uni3016" unicode="&#x3016;" d="M773 351 Q773 71 912 -123 L628 -123 L628 824 L912 824 Q773 629 773 351 ZM724 351 Q724 610 829 781 L676 781 L676 -80 L829 -80 Q724 93 724 351 Z" /><glyph glyph-name="uni3017" unicode="&#x3017;" d="M227 351 Q227 629 88 824 L372 824 L372 -123 L88 -123 Q227 71 227 351 ZM276 351 Q276 91 171 -80 L324 -80 L324 781 L171 781 Q276 610 276 351 Z" /><glyph glyph-name="uni301D" unicode="&#x301d;" d="M759 715 L856 715 L970 535 L906 535 L759 715 ZM579 715 L676 715 L790 535 L726 535 L579 715 Z" /><glyph glyph-name="uni301E" unicode="&#x301e;" d="M241 715 L94 535 L30 535 L144 715 L241 715 ZM421 715 L274 535 L210 535 L324 715 L421 715 Z" /><glyph glyph-name="uni3021" unicode="&#x3021;" d="M454 -93 L454 815 L545 815 L545 -93 L454 -93 Z" /><glyph glyph-name="uni3022" unicode="&#x3022;" d="M667 -93 L667 815 L759 815 L759 -93 L667 -93 ZM241 0 L241 724 L332 724 L332 0 L241 0 Z" /><glyph glyph-name="uni3023" unicode="&#x3023;" d="M465 8 L465 732 L545 732 L545 8 L465 8 ZM759 -93 L759 815 L850 815 L850 -93 L759 -93 ZM151 -73 L151 795 L243 795 L243 -73 L151 -73 Z" /><glyph glyph-name="uni3024" unicode="&#x3024;" d="M153 -92 L85 -25 Q290 108 468 343 Q329 459 187 544 L245 612 Q401 514 523 418 Q657 630 708 813 L798 783 Q736 571 596 357 Q746 219 878 59 L809 -7 Q689 144 539 282 Q372 58 153 -92 Z" /><glyph glyph-name="uni3025" unicode="&#x3025;" d="M354 765 L421 713 Q352 641 352 581 Q352 525 418 485 Q532 619 724 744 L782 678 Q610 569 490 445 L572 406 Q654 365 691 318 Q732 266 732 191 Q732 83 661 20 Q591 -42 474 -42 Q382 -41 321 20 Q260 81 258 184 Q258 239 287 309 Q316 379 358 424 Q266 488 266 584 Q266 631 291 680 Q315 726 354 765 ZM434 383 Q397 346 371 292 Q343 234 343 184 Q343 120 382 80 Q419 42 476 42 Q553 42 598 80 Q645 119 645 187 Q645 244 608 284 Q576 319 510 347 L434 383 Z" /><glyph glyph-name="uni3026" unicode="&#x3026;" d="M927 577 L72 577 L72 663 L456 663 L456 828 L544 828 L544 663 L927 663 L927 577 Z" /><glyph glyph-name="uni3027" unicode="&#x3027;" d="M927 577 L72 577 L72 663 L456 663 L456 828 L544 828 L544 663 L927 663 L927 577 ZM878 284 L123 284 L123 371 L878 371 L878 284 Z" /><glyph glyph-name="uni3028" unicode="&#x3028;" d="M927 577 L72 577 L72 663 L456 663 L456 828 L544 828 L544 663 L927 663 L927 577 ZM878 288 L123 288 L123 375 L878 375 L878 288 ZM947 -36 L59 -36 L59 50 L947 50 L947 -36 Z" /><glyph glyph-name="uni3029" unicode="&#x3029;" d="M125 -125 L68 -53 Q314 57 475 205 Q379 279 228 369 L288 437 Q372 387 415 359 Q485 313 538 269 Q637 386 695 549 L305 549 Q255 471 163 366 L84 413 Q257 600 348 844 L439 824 Q408 731 358 640 L910 640 L910 549 L796 549 Q736 361 609 210 Q745 89 838 -18 L769 -85 Q685 20 546 143 Q385 -9 125 -125 Z" /><glyph glyph-name="uni3041" unicode="&#x3041;" d="M546 -95 L513 -21 Q756 -6 756 152 Q756 208 725 245 Q697 279 646 293 Q596 150 486 41 Q376 -67 281 -67 Q223 -67 191 -32 Q159 3 159 64 Q159 143 213 215 Q268 289 362 331 Q361 394 362 458 L190 458 L190 533 L364 533 Q366 595 367 628 L452 626 Q449 579 445 533 L794 533 L794 458 L439 458 Q438 407 439 356 Q504 374 592 371 Q600 393 603 419 L684 406 Q679 383 673 359 Q752 338 795 286 Q840 231 840 146 Q840 34 756 -27 Q682 -81 546 -95 ZM395 61 Q374 163 367 253 Q306 219 272 172 Q236 123 236 70 Q236 11 290 11 Q316 11 344 26 Q362 35 395 61 ZM460 124 Q534 202 571 305 Q496 307 438 285 Q444 197 460 124 Z" /><glyph glyph-name="uni3042" unicode="&#x3042;" d="M555 -82 L513 -8 Q661 2 742 54 Q830 110 830 213 Q830 289 786 339 Q745 386 673 403 Q591 199 463 78 Q334 -43 222 -46 Q157 -46 119 -5 Q81 36 81 104 Q81 205 150 294 Q219 383 336 434 Q334 519 336 605 L118 605 L118 680 L339 680 Q341 740 343 801 L427 798 Q424 761 420 680 L858 680 L858 605 L416 605 Q414 569 416 461 Q500 490 617 483 Q621 494 634 542 L717 526 Q708 499 699 472 Q798 450 854 383 Q913 313 913 208 Q913 74 810 -1 Q719 -67 555 -82 ZM370 98 Q350 207 340 354 Q259 313 210 248 Q160 181 160 107 Q160 72 180 52 Q199 33 233 33 Q287 33 370 98 ZM438 163 Q538 266 596 415 Q499 418 417 389 Q421 255 438 163 Z" /><glyph glyph-name="uni3043" unicode="&#x3043;" d="M455 200 L524 136 Q489 28 450 -22 Q410 -74 355 -74 Q281 -74 239 8 Q181 103 183 341 Q183 437 190 553 L281 553 Q269 436 269 320 Q269 145 305 72 Q327 23 354 23 Q379 23 402 63 Q426 104 455 200 ZM855 57 L766 35 Q750 181 713 272 Q675 366 595 450 L667 496 Q756 401 796 308 Q835 216 855 57 Z" /><glyph glyph-name="uni3044" unicode="&#x3044;" d="M444 273 L512 210 Q433 -37 314 -37 Q216 -34 161 93 Q112 207 112 455 Q112 566 119 726 L207 726 Q196 571 196 438 Q196 240 231 140 Q262 55 313 55 Q345 55 384 125 Q417 184 444 273 ZM928 124 L841 102 Q815 419 629 604 L698 649 Q805 545 860 414 Q911 294 928 124 Z" /><glyph glyph-name="uni3045" unicode="&#x3045;" d="M352 -92 L304 -15 Q688 10 688 214 Q688 337 533 337 Q409 337 204 289 L185 366 Q394 412 530 412 Q649 412 712 361 Q775 310 775 215 Q775 76 655 -3 Q547 -75 352 -92 ZM299 529 L318 606 Q514 602 726 568 L704 491 Q512 526 299 529 Z" /><glyph glyph-name="uni3046" unicode="&#x3046;" d="M320 -69 L271 10 Q747 48 747 309 Q745 461 547 466 Q388 468 137 409 L116 489 Q380 545 542 545 Q684 545 762 482 Q838 420 838 310 Q838 138 695 42 Q564 -46 320 -69 ZM260 706 L279 785 Q522 779 774 739 L751 658 Q515 701 260 706 Z" /><glyph glyph-name="uni3047" unicode="&#x3047;" d="M206 -90 L142 -27 Q312 141 534 342 Q374 332 213 323 Q207 404 207 406 Q353 411 645 425 L685 365 Q605 298 467 175 Q490 188 520 188 Q553 188 576 168 Q600 147 607 106 L619 49 Q625 17 645 8 Q663 0 728 0 Q778 0 861 8 L861 -78 Q793 -83 717 -83 Q619 -83 585 -66 Q549 -48 538 12 L530 63 Q520 123 475 123 Q430 123 352 56 Q302 13 206 -90 ZM320 537 L354 612 Q592 589 738 554 L710 480 Q537 518 320 537 Z" /><glyph glyph-name="uni3048" unicode="&#x3048;" d="M129 -74 L64 -9 Q308 233 565 464 Q294 448 152 442 L146 525 Q532 543 675 550 L718 485 Q580 365 440 238 Q468 256 508 256 Q552 256 581 233 Q612 209 622 160 L636 83 Q644 38 671 26 Q697 14 783 14 Q848 14 941 24 L941 -64 Q853 -70 771 -70 Q713 -70 674 -66 Q635 -61 612 -49 Q567 -27 556 45 L542 118 Q528 194 469 190 Q409 190 317 113 Q255 61 129 -74 ZM287 700 L321 779 Q584 758 784 711 L758 633 Q535 681 287 700 Z" /><glyph glyph-name="uni3049" unicode="&#x3049;" d="M348 259 L348 417 L170 417 L170 501 L348 501 L348 623 L434 623 L434 501 L601 501 L601 417 L434 417 L434 285 Q532 314 612 314 Q712 314 769 264 Q825 215 825 129 Q825 -70 556 -80 L519 6 Q738 6 738 129 Q738 235 606 235 Q538 235 434 202 L434 4 Q434 -82 353 -82 Q279 -82 219 -37 Q158 9 158 66 Q158 118 215 173 Q266 222 348 259 ZM352 29 L352 170 Q237 116 237 70 Q237 49 268 28 Q299 7 330 7 Q343 7 347 11 Q352 16 352 29 ZM638 513 L699 573 Q813 503 891 412 L831 346 Q745 444 638 513 Z" /><glyph glyph-name="uni304A" unicode="&#x304a;" d="M317 337 L317 557 L93 557 L93 637 L317 637 L317 796 L397 796 L397 636 L618 636 L618 557 L397 557 L397 363 Q524 407 639 407 Q756 407 825 349 Q894 291 894 192 Q894 64 805 2 Q723 -55 561 -61 L524 20 Q663 22 733 60 Q809 102 809 193 Q809 260 762 297 Q714 335 630 335 Q522 335 397 285 L397 30 Q397 -63 307 -63 Q235 -63 161 -14 Q79 40 79 108 Q79 169 156 236 Q219 291 317 337 ZM318 54 L318 252 Q255 221 215 190 Q158 146 158 110 Q158 80 201 51 Q244 22 286 22 Q305 22 311 28 Q318 34 318 54 ZM666 659 L719 718 Q851 642 960 524 L904 461 Q806 575 666 659 Z" /><glyph glyph-name="uni304B" unicode="&#x304b;" d="M152 -65 L75 -27 Q202 235 274 514 Q137 506 68 500 L66 579 Q180 585 293 591 Q317 689 336 804 L423 793 Q402 693 381 594 Q432 597 478 597 Q569 597 612 549 Q656 500 656 388 Q656 180 622 61 Q604 -3 568 -31 Q535 -56 480 -57 Q407 -57 350 -46 L332 42 Q409 25 463 25 Q499 25 515 40 Q533 56 545 105 Q573 211 573 391 Q573 466 549 495 Q526 522 469 522 Q416 522 360 519 Q283 224 152 -65 ZM955 324 L876 280 Q842 387 791 483 Q734 590 658 675 L732 711 Q883 532 955 324 Z" /><glyph glyph-name="uni304C" unicode="&#x304c;" d="M145 -73 L67 -35 Q192 221 266 507 Q192 503 60 491 L60 571 Q108 573 286 583 Q310 688 328 796 L416 786 Q397 688 371 587 Q439 589 471 589 Q562 589 603 542 Q646 493 646 380 Q646 170 614 52 Q595 -12 560 -39 Q528 -64 473 -64 Q405 -64 342 -56 L325 34 Q404 18 456 18 Q490 18 507 33 Q526 50 538 98 Q565 200 565 384 Q565 460 542 488 Q520 515 462 515 Q455 515 353 512 Q268 199 145 -73 ZM947 318 L870 273 Q790 503 671 642 L745 678 Q878 520 947 318 ZM741 779 L778 806 Q831 757 883 685 L846 658 Q787 739 741 779 ZM833 839 L868 863 Q925 812 973 745 L936 720 Q894 783 833 839 Z" /><glyph glyph-name="uni304D" unicode="&#x304d;" d="M151 413 L151 482 Q311 488 535 495 Q501 563 479 616 Q303 610 126 604 L124 672 Q288 678 452 684 Q434 727 411 794 L497 802 Q514 748 537 687 Q690 693 843 699 L846 631 Q705 625 563 619 Q584 566 618 500 Q780 508 872 511 L875 441 Q766 436 657 432 Q720 320 819 222 L773 163 Q687 209 611 228 Q542 245 452 245 Q352 245 291 211 Q234 179 234 132 Q234 75 299 43 Q364 11 478 10 Q609 10 768 34 L751 -49 Q623 -68 488 -68 Q332 -68 244 -19 Q152 32 152 127 Q152 211 236 263 Q317 313 441 313 Q577 313 676 273 Q607 359 570 428 Q314 418 151 413 Z" /><glyph glyph-name="uni304E" unicode="&#x304e;" d="M135 406 L135 477 Q303 483 520 490 Q486 556 465 609 Q194 598 112 595 L109 665 Q205 669 437 678 Q404 765 396 788 L481 796 Q515 700 522 681 Q625 684 809 692 L813 622 Q681 617 548 612 Q580 537 603 494 Q730 500 856 506 L861 434 Q713 428 641 425 Q707 312 804 216 L759 157 Q672 202 596 221 Q524 239 436 239 Q335 239 275 205 Q219 173 219 126 Q219 68 283 36 Q347 4 463 4 Q601 4 752 27 L736 -56 Q599 -75 472 -75 Q316 -75 228 -26 Q136 25 136 121 Q136 207 220 259 Q301 309 426 309 Q560 309 662 267 Q590 355 556 421 Q346 413 135 406 ZM775 766 L812 793 Q869 740 916 673 L879 645 Q830 720 775 766 ZM868 829 L903 853 Q960 801 1007 735 L970 709 Q932 769 868 829 Z" /><glyph glyph-name="uni304F" unicode="&#x304f;" d="M172 367 Q172 413 226 448 Q471 606 696 800 L763 739 Q548 565 292 392 Q274 380 274 368 Q274 355 294 343 Q591 158 802 -18 L741 -88 Q501 118 225 287 Q172 320 172 367 Z" /><glyph glyph-name="uni3050" unicode="&#x3050;" d="M162 367 Q162 413 215 447 Q465 610 684 800 L751 739 Q543 568 282 391 Q264 383 264 368 Q264 354 284 343 Q586 153 791 -18 L731 -88 Q500 111 215 287 Q162 319 162 367 ZM683 560 L729 594 Q789 539 834 475 L788 439 Q725 524 683 560 ZM783 626 L828 659 Q880 614 933 542 L887 507 Q847 568 783 626 Z" /><glyph glyph-name="uni3051" unicode="&#x3051;" d="M127 357 Q127 533 169 774 L254 763 Q213 535 211 361 Q209 140 230 -38 L146 -48 Q125 130 127 357 ZM490 -90 L426 -24 Q595 21 646 118 Q688 199 686 349 L686 503 L383 503 L383 578 L685 578 L682 781 L768 781 L768 578 L945 578 L945 503 L770 503 L770 347 Q772 181 728 87 Q673 -30 490 -90 Z" /><glyph glyph-name="uni3052" unicode="&#x3052;" d="M220 -45 L135 -56 Q116 122 116 351 Q118 527 158 767 L244 757 Q200 520 200 354 Q198 119 220 -45 ZM478 -96 L415 -31 Q572 14 625 93 Q676 168 675 342 L675 495 L371 495 L371 572 L674 572 L672 775 L756 775 L758 572 L934 572 L934 495 L759 495 L759 340 Q761 175 717 81 Q663 -37 478 -96 ZM796 800 L834 818 Q873 764 910 683 L871 664 Q837 740 796 800 ZM889 839 L926 855 Q967 805 1004 723 L966 706 Q938 774 889 839 Z" /><glyph glyph-name="uni3053" unicode="&#x3053;" d="M122 180 Q122 225 137 266 Q149 299 183 356 L264 333 Q231 290 217 256 Q204 225 204 192 Q204 132 260 100 Q327 62 475 62 Q691 62 858 98 L865 10 Q765 -9 672 -16 Q585 -23 468 -23 Q284 -23 197 36 Q122 87 122 180 ZM194 711 L809 711 L809 627 L194 627 L194 711 Z" /><glyph glyph-name="uni3054" unicode="&#x3054;" d="M171 348 L253 325 Q193 246 193 185 Q193 125 249 93 Q316 55 464 55 Q674 55 847 92 L853 4 Q752 -15 660 -23 Q575 -30 457 -30 Q272 -30 186 29 Q111 80 111 173 Q111 217 126 259 Q140 297 171 348 ZM184 620 L184 703 L784 703 L784 620 L184 620 ZM769 782 L808 805 Q863 753 910 682 L872 657 Q808 747 769 782 ZM867 833 L902 857 Q960 802 1003 737 L965 712 Q927 774 867 833 Z" /><glyph glyph-name="uni3055" unicode="&#x3055;" d="M107 555 L103 633 Q291 640 479 648 Q436 759 426 788 L516 800 Q549 697 568 650 Q732 655 896 661 L900 583 Q811 579 603 573 Q699 376 828 275 L777 206 Q690 260 616 281 Q539 303 433 303 Q339 303 281 265 Q223 227 223 167 Q223 98 293 59 Q367 18 504 18 Q634 18 763 32 L735 -54 Q626 -65 502 -65 Q325 -65 232 -4 Q142 55 142 163 Q142 263 230 322 Q311 376 436 376 Q501 376 556 365 Q613 354 669 328 Q568 449 512 571 Q336 563 107 555 Z" /><glyph glyph-name="uni3056" unicode="&#x3056;" d="M95 549 L92 627 Q280 634 468 641 Q438 714 415 781 L505 794 Q533 699 557 644 Q646 647 866 655 L870 576 Q731 571 592 567 Q682 375 815 268 L765 200 Q677 254 604 275 Q528 297 421 297 Q328 297 270 259 Q212 221 212 161 Q212 90 281 51 Q353 10 492 10 Q616 10 751 26 L724 -61 Q614 -72 490 -72 Q313 -72 220 -11 Q130 48 130 157 Q130 256 218 315 Q300 370 425 370 Q492 370 544 359 Q597 348 658 320 Q553 447 501 563 Q298 556 95 549 ZM741 809 L779 831 Q834 776 878 705 L841 683 Q784 768 741 809 ZM843 850 L881 871 Q932 817 976 748 L937 724 Q899 792 843 850 Z" /><glyph glyph-name="uni3057" unicode="&#x3057;" d="M847 331 L912 256 Q752 -59 450 -65 Q320 -65 258 -5 Q195 56 199 181 L217 783 L308 783 L286 183 Q283 95 328 56 Q368 21 453 21 Q582 21 685 104 Q784 184 847 331 Z" /><glyph glyph-name="uni3058" unicode="&#x3058;" d="M844 331 L910 256 Q833 101 714 18 Q594 -65 447 -65 Q321 -69 256 -1 Q192 66 196 190 L215 783 L305 783 L284 194 Q280 104 321 62 Q361 21 451 21 Q580 21 683 104 Q782 184 844 331 ZM604 674 L651 712 Q709 657 756 589 L709 552 Q653 631 604 674 ZM707 743 L753 778 Q809 724 857 658 L810 622 Q765 689 707 743 Z" /><glyph glyph-name="uni3059" unicode="&#x3059;" d="M254 -78 L207 -3 Q373 14 459 66 Q553 123 568 231 Q527 148 425 148 Q338 148 286 196 Q236 243 236 318 Q236 396 293 446 Q350 496 438 496 Q504 496 553 455 L553 594 L60 594 L60 670 L552 670 L552 802 L634 802 L634 670 L942 670 L942 594 L634 594 Q634 493 633 392 Q666 325 666 241 Q666 -47 254 -78 ZM316 322 Q316 278 347 251 Q378 224 431 224 Q483 224 518 255 Q554 287 554 337 Q554 375 525 400 Q494 427 443 427 Q385 427 350 396 Q316 366 316 322 Z" /><glyph glyph-name="uni305A" unicode="&#x305a;" d="M254 -82 L207 -7 Q372 6 459 60 Q553 118 568 227 Q530 144 425 144 Q338 144 286 192 Q236 238 236 314 Q236 392 293 442 Q350 492 438 492 Q504 492 553 451 L553 589 L60 589 L60 664 L552 664 L552 798 L634 798 L634 664 L942 664 L942 589 L634 589 L634 391 Q666 326 666 237 Q666 -51 254 -82 ZM316 318 Q316 274 347 247 Q379 219 431 219 Q482 219 518 251 Q554 283 554 333 Q554 371 525 396 Q494 423 443 423 Q385 423 350 392 Q316 362 316 318 ZM748 806 L793 834 Q847 775 889 714 L845 686 Q790 766 748 806 ZM856 843 L899 868 Q948 819 991 749 L949 721 Q920 772 856 843 Z" /><glyph glyph-name="uni305B" unicode="&#x305b;" d="M504 213 L474 299 Q552 291 594 291 Q630 291 645 307 Q662 325 662 369 L662 492 L327 487 L327 205 Q327 159 335 127 Q343 96 365 78 Q409 40 564 42 Q710 42 856 64 L862 -22 Q711 -39 559 -39 Q388 -41 317 7 Q241 59 244 206 L244 485 L47 481 L45 557 L244 561 L244 765 L327 765 L327 563 L662 570 L662 777 L744 777 L744 571 L953 575 L955 499 L745 494 L745 363 Q745 279 713 244 Q681 209 604 209 Q535 209 504 213 Z" /><glyph glyph-name="uni305C" unicode="&#x305c;" d="M41 476 L39 551 L237 555 L237 759 L321 759 L321 557 L657 563 L657 771 L738 771 L738 564 L947 569 L949 492 L739 488 L739 356 Q739 273 707 238 Q675 203 598 203 Q530 203 498 207 L468 293 Q524 286 588 286 Q624 286 640 302 Q657 319 657 364 L657 486 L321 481 L321 200 Q321 146 329 119 Q338 87 363 69 Q408 36 558 36 Q706 36 850 59 L856 -28 Q705 -45 553 -45 Q382 -47 310 1 Q234 53 237 200 L237 479 L41 476 ZM783 797 L823 816 Q865 758 903 681 L863 662 Q829 736 783 797 ZM879 837 L917 854 Q960 797 996 722 L958 703 Q930 773 879 837 Z" /><glyph glyph-name="uni305D" unicode="&#x305d;" d="M61 300 L55 376 Q134 389 212 403 Q438 543 617 683 L202 668 L202 747 L744 758 L779 701 Q540 525 359 415 Q613 451 920 475 L923 393 Q772 390 657 337 Q562 299 507 257 Q435 202 435 142 Q435 9 725 9 Q763 9 800 12 L800 -73 Q771 -75 718 -75 Q543 -75 450 -22 Q356 31 356 132 Q356 223 442 293 Q498 339 600 380 Q336 349 61 300 Z" /><glyph glyph-name="uni305E" unicode="&#x305e;" d="M57 295 L50 372 Q129 385 207 399 Q404 517 613 679 L198 664 L198 743 L718 753 L763 689 Q532 517 355 410 Q603 446 915 471 L918 389 Q740 386 614 325 Q540 292 487 243 Q433 195 431 138 Q431 5 724 5 Q768 5 796 8 L796 -77 Q770 -79 713 -79 Q538 -79 445 -26 Q351 27 351 128 Q351 219 437 289 Q494 335 596 376 Q330 344 57 295 ZM763 789 L802 812 Q846 768 900 688 L859 663 Q811 741 763 789 ZM859 836 L896 858 Q952 803 992 735 L956 713 Q914 780 859 836 Z" /><glyph glyph-name="uni305F" unicode="&#x305f;" d="M163 -61 L80 -27 Q215 274 284 579 L72 579 L72 653 L300 653 Q317 745 324 800 L415 793 Q412 778 388 653 L598 653 L598 579 L370 579 Q299 264 163 -61 ZM480 243 L552 214 Q523 170 523 124 Q523 28 720 28 Q837 28 926 40 L926 -42 Q819 -52 721 -52 Q579 -52 507 -5 Q442 38 442 113 Q442 178 480 243 ZM519 399 L514 479 Q648 493 761 493 Q826 493 898 489 L898 409 Q820 415 747 415 Q634 415 519 399 Z" /><glyph glyph-name="uni3060" unicode="&#x3060;" d="M159 -65 L76 -31 Q211 269 280 574 L67 574 L67 649 L295 649 Q312 731 320 796 L410 789 Q394 695 384 649 L594 649 L594 574 L366 574 Q297 268 159 -65 ZM476 239 L547 210 Q519 166 519 119 Q519 24 716 24 Q833 24 922 36 L922 -46 Q828 -56 717 -56 Q575 -56 503 -9 Q438 33 438 109 Q438 172 476 239 ZM514 394 L510 474 Q641 489 756 489 Q821 489 893 485 L893 405 Q829 410 743 410 Q620 410 514 394 ZM731 741 L770 769 Q831 710 874 647 L835 618 Q781 696 731 741 ZM827 798 L864 826 Q918 775 967 705 L928 678 Q891 737 827 798 Z" /><glyph glyph-name="uni3061" unicode="&#x3061;" d="M288 -62 L264 24 Q353 14 457 14 Q627 14 715 65 Q796 112 796 192 Q796 258 746 294 Q696 330 606 330 Q495 330 394 283 Q302 240 198 149 L147 210 Q277 351 353 567 L90 567 L90 644 L376 644 Q396 712 413 800 L501 791 Q486 721 463 644 L878 644 L878 567 L437 567 Q385 413 301 296 Q443 402 612 402 Q736 402 809 345 Q884 287 884 186 Q884 68 778 3 Q665 -66 447 -66 Q367 -66 288 -62 Z" /><glyph glyph-name="uni3062" unicode="&#x3062;" d="M284 -66 L260 20 Q349 10 453 10 Q624 10 711 60 Q791 106 791 187 Q791 253 741 289 Q691 325 602 325 Q491 325 389 278 Q296 235 194 145 L142 206 Q272 344 349 562 L86 562 L86 640 L372 640 Q392 708 409 796 L497 787 Q488 746 459 640 L873 640 L873 562 L433 562 Q381 409 297 291 Q441 398 607 398 Q731 398 805 341 Q880 283 880 182 Q880 63 774 -2 Q661 -71 443 -71 Q381 -71 284 -66 ZM726 791 L765 817 Q822 760 867 695 L827 671 Q762 760 726 791 ZM829 836 L867 858 Q922 807 968 740 L930 716 Q893 776 829 836 Z" /><glyph glyph-name="uni3063" unicode="&#x3063;" d="M358 -56 L320 26 Q471 32 579 71 Q747 133 747 274 Q747 354 693 395 Q644 432 552 432 Q478 432 393 419 Q302 405 156 370 L140 452 Q287 483 389 497 Q484 510 559 510 Q690 510 763 447 Q835 385 835 273 Q835 173 779 103 Q727 38 629 -1 Q541 -35 358 -56 Z" /><glyph glyph-name="uni3064" unicode="&#x3064;" d="M329 -16 L290 68 Q544 85 671 152 Q822 232 822 392 Q822 489 755 542 Q690 594 576 594 Q394 597 78 518 L61 605 Q403 679 582 676 Q741 676 831 592 Q914 515 914 393 Q914 196 751 95 Q610 8 329 -16 Z" /><glyph glyph-name="uni3065" unicode="&#x3065;" d="M67 511 L51 597 Q395 671 572 668 Q731 668 822 584 Q905 507 905 386 Q905 189 742 88 Q601 0 320 -24 L281 61 Q532 75 662 144 Q813 224 813 384 Q813 481 746 534 Q680 586 567 586 Q385 589 67 511 ZM751 759 L788 785 Q854 726 892 663 L855 636 Q800 715 751 759 ZM845 815 L879 839 Q938 784 983 720 L947 693 Q906 757 845 815 Z" /><glyph glyph-name="uni3066" unicode="&#x3066;" d="M78 612 L75 692 Q493 712 911 732 L911 649 Q795 646 706 612 Q569 561 488 469 Q409 380 409 281 Q409 209 441 159 Q471 113 529 83 Q626 34 817 29 L817 -60 Q600 -57 476 14 Q326 99 326 276 Q326 399 416 500 Q496 590 631 646 Q355 629 78 612 Z" /><glyph glyph-name="uni3067" unicode="&#x3067;" d="M78 612 L75 692 Q493 712 911 732 L911 649 Q795 646 706 612 Q569 561 488 469 Q409 380 409 281 Q409 209 441 159 Q471 113 529 83 Q626 34 817 29 L817 -60 Q600 -57 476 14 Q326 99 326 276 Q326 399 416 500 Q496 590 631 646 Q355 629 78 612 ZM740 490 L778 516 Q839 460 881 394 L844 367 Q792 443 740 490 ZM836 548 L871 573 Q924 524 974 453 L937 427 Q900 488 836 548 Z" /><glyph glyph-name="uni3068" unicode="&#x3068;" d="M857 53 L857 -38 Q700 -48 550 -48 Q333 -48 235 1 Q134 51 134 167 Q134 262 209 337 Q268 396 388 454 Q315 633 256 765 L333 795 Q391 674 467 488 Q587 538 819 606 L842 519 Q541 446 378 359 Q293 317 255 271 Q219 228 219 173 Q219 102 286 71 Q369 33 556 35 Q707 35 857 53 Z" /><glyph glyph-name="uni3069" unicode="&#x3069;" d="M853 48 L853 -42 Q680 -53 546 -53 Q327 -53 230 -4 Q129 47 129 163 Q129 257 204 332 Q263 391 384 450 Q311 629 252 761 L329 791 Q395 651 463 484 Q585 534 815 602 L838 515 Q537 441 373 355 Q209 272 215 169 Q215 98 282 67 Q365 29 552 31 Q700 31 853 48 ZM722 759 L762 785 Q819 731 864 665 L827 638 Q769 719 722 759 ZM817 816 L852 839 Q906 791 956 723 L919 695 Q874 764 817 816 Z" /><glyph glyph-name="uni306A" unicode="&#x306a;" d="M145 79 L69 127 Q192 329 260 569 L67 569 L67 645 L281 645 Q294 697 314 801 L400 791 Q388 733 368 645 L533 645 L533 569 L348 569 Q281 324 145 79 ZM648 129 L648 141 Q589 164 526 164 Q466 164 432 141 Q398 118 398 80 Q400 3 521 -1 Q594 -1 622 32 Q647 61 648 129 ZM647 217 L639 469 L721 469 L730 196 Q852 146 949 64 L902 -9 Q814 68 731 111 Q723 -80 525 -76 Q429 -76 376 -36 Q322 4 322 78 Q322 148 381 193 Q437 236 523 236 Q587 236 647 217 ZM621 620 L666 685 Q796 642 946 564 L900 495 Q759 573 621 620 Z" /><glyph glyph-name="uni306B" unicode="&#x306b;" d="M107 251 Q104 493 164 782 L252 771 Q190 498 190 275 Q189 111 214 -61 L127 -66 Q107 108 107 251 ZM353 164 Q353 198 361 227 Q369 257 391 296 L463 266 Q435 216 435 174 Q435 123 482 97 Q534 69 647 69 Q778 69 915 85 L918 0 Q775 -14 651 -14 Q353 -14 353 164 ZM402 667 L888 667 L888 587 L402 587 L402 667 Z" /><glyph glyph-name="uni306C" unicode="&#x306c;" d="M59 162 Q60 340 206 486 Q175 584 148 699 L227 719 Q243 630 271 536 Q386 614 520 626 Q528 672 537 777 L626 770 Q609 654 605 629 Q746 621 827 534 Q908 447 908 303 Q908 214 885 140 Q929 107 982 55 L934 -20 Q896 28 851 65 Q780 -56 646 -56 Q579 -56 530 -10 Q479 38 490 100 Q497 154 545 191 Q593 228 656 228 Q740 228 812 183 Q828 239 828 305 Q828 417 764 484 Q700 551 591 556 Q557 430 519 339 Q474 232 410 141 Q302 -21 191 -21 Q133 -21 97 27 Q59 77 59 162 ZM388 256 Q465 384 505 552 Q378 534 293 465 Q340 334 388 256 ZM339 180 Q286 275 236 405 Q190 357 162 288 Q137 226 137 172 Q137 63 201 63 Q235 63 275 100 Q307 130 339 180 ZM793 112 Q733 161 657 161 Q612 161 585 141 Q557 121 557 88 Q557 53 582 34 Q607 15 648 15 Q699 15 737 42 Q772 67 793 112 Z" /><glyph glyph-name="uni306D" unicode="&#x306d;" d="M776 119 Q711 169 640 169 Q594 169 565 147 Q536 125 536 92 Q536 58 562 39 Q587 20 635 20 Q743 22 776 119 ZM90 90 L41 159 Q145 297 234 397 Q234 433 236 517 L57 517 L57 591 L237 591 Q241 731 244 798 L325 798 Q315 524 314 475 Q414 576 492 625 Q582 682 662 682 Q771 682 827 595 Q883 508 883 341 Q883 242 867 152 Q919 114 976 53 L925 -21 Q893 24 839 72 Q769 -54 636 -54 Q561 -54 513 -15 Q464 25 464 88 Q464 154 515 196 Q564 237 640 237 Q713 237 789 195 Q801 259 801 333 Q801 457 766 528 Q728 605 656 605 Q590 605 499 539 Q419 481 314 367 Q312 230 317 -80 L232 -80 Q232 151 233 276 Q159 187 90 90 Z" /><glyph glyph-name="uni306E" unicode="&#x306e;" d="M543 -52 L495 25 Q662 55 743 127 Q835 209 835 359 Q835 482 762 562 Q686 645 558 651 Q519 316 417 139 Q347 19 245 19 Q169 19 123 88 Q74 162 74 293 Q76 480 197 602 Q318 725 528 729 Q709 729 816 626 Q923 523 923 352 Q923 179 821 78 Q727 -15 543 -52 ZM474 649 Q333 632 245 534 Q157 436 157 295 Q157 209 184 156 Q209 106 247 106 Q306 106 353 197 Q448 386 474 649 Z" /><glyph glyph-name="uni306F" unicode="&#x306f;" d="M207 -67 L123 -76 Q107 115 107 248 Q106 504 156 778 L241 768 Q190 506 190 252 Q190 106 207 -67 ZM666 144 Q611 170 540 170 Q419 166 417 88 Q417 51 447 30 Q477 9 529 9 Q606 9 634 37 Q661 64 666 144 ZM665 220 L661 529 L359 529 L359 606 L659 606 L657 779 L741 779 L741 606 L933 606 L933 529 L743 529 L745 197 Q848 149 943 62 L898 -14 Q813 72 742 112 Q741 -64 536 -64 Q450 -64 396 -24 Q340 18 340 87 Q340 155 397 198 Q452 240 536 240 Q600 240 665 220 Z" /><glyph glyph-name="uni3070" unicode="&#x3070;" d="M207 -67 L123 -76 Q107 115 107 248 Q106 504 156 778 L241 768 Q190 506 190 252 Q190 106 207 -67 ZM666 144 Q611 170 540 170 Q419 166 417 88 Q417 51 447 30 Q477 9 529 9 Q606 9 634 37 Q661 64 666 144 ZM665 220 L661 529 L359 529 L359 606 L659 606 L657 779 L741 779 L741 606 L933 606 L933 529 L743 529 L745 197 Q848 149 943 62 L898 -14 Q813 72 742 112 Q741 -64 536 -64 Q450 -64 396 -24 Q340 18 340 87 Q340 155 397 198 Q452 240 536 240 Q600 240 665 220 ZM904 687 L865 670 Q824 754 786 804 L825 823 Q868 767 904 687 ZM997 728 L959 710 Q929 784 882 845 L920 860 Q959 813 997 728 Z" /><glyph glyph-name="uni3071" unicode="&#x3071;" d="M207 -67 L123 -77 Q107 99 107 248 Q105 504 156 779 L243 768 Q191 508 191 252 Q190 122 207 -67 ZM664 143 Q609 170 540 170 Q420 166 418 88 Q418 52 448 30 Q477 9 529 9 Q605 9 633 37 Q660 64 664 143 ZM663 221 L660 529 L358 529 L358 607 L658 607 L656 779 L742 779 L742 607 L933 607 L933 529 L743 529 L746 197 Q845 152 944 63 L898 -14 Q815 69 743 111 Q740 -65 536 -65 Q448 -65 395 -25 Q340 16 340 87 Q340 155 397 198 Q452 240 536 240 Q600 240 663 221 ZM900 698 Q928 698 947 717 Q966 736 966 764 Q966 791 947 809 Q927 828 900 828 Q874 828 854 809 Q834 790 834 764 Q834 737 854 717 Q873 698 900 698 ZM900 664 Q860 664 830 694 Q801 723 801 764 Q801 805 830 834 Q859 863 900 863 Q941 863 970 834 Q999 805 999 764 Q999 723 970 694 Q940 664 900 664 Z" /><glyph glyph-name="uni3072" unicode="&#x3072;" d="M94 653 L94 726 L436 726 L463 658 Q355 609 277 491 Q197 370 198 250 Q198 132 257 72 Q313 15 418 15 Q537 15 606 98 Q676 183 677 333 Q677 558 612 713 L684 745 Q801 552 970 417 L921 337 Q810 440 719 583 L717 583 Q758 460 758 311 Q755 128 661 30 Q567 -67 417 -68 Q277 -68 198 10 Q116 91 116 242 Q116 361 173 471 Q231 582 331 653 L94 653 Z" /><glyph glyph-name="uni3073" unicode="&#x3073;" d="M90 651 L90 724 L432 724 L459 655 Q350 606 272 489 Q193 369 194 247 Q194 129 253 69 Q309 12 413 12 Q534 12 602 95 Q672 180 672 331 Q674 554 608 711 L680 743 Q748 631 825 546 Q886 478 966 415 L917 334 Q805 439 715 580 L713 580 Q753 460 753 309 Q753 131 656 28 Q564 -70 412 -70 Q272 -70 194 8 Q112 90 112 240 Q112 359 169 469 Q226 579 327 651 L90 651 ZM746 755 L784 783 Q843 727 888 661 L851 633 Q793 715 746 755 ZM839 814 L874 837 Q928 790 978 720 L941 693 Q902 754 839 814 Z" /><glyph glyph-name="uni3074" unicode="&#x3074;" d="M90 651 L90 724 L432 724 L459 655 Q350 606 272 489 Q193 369 194 247 Q194 129 253 69 Q309 12 413 12 Q534 12 602 95 Q672 180 672 331 Q674 554 608 711 L680 743 Q748 631 825 546 Q886 478 966 415 L917 334 Q805 439 715 580 L713 580 Q753 460 753 309 Q753 131 656 28 Q564 -70 412 -70 Q272 -70 194 8 Q112 90 112 240 Q112 359 169 469 Q226 579 327 651 L90 651 ZM879 634 Q837 634 808 664 Q779 694 779 735 Q779 776 808 805 Q837 834 879 834 Q920 834 949 805 Q978 776 978 735 Q978 694 949 664 Q920 634 879 634 ZM879 671 Q907 671 926 689 Q945 707 945 735 Q945 762 926 780 Q906 799 879 799 Q851 799 832 780 Q813 761 813 735 Q813 707 832 689 Q851 671 879 671 Z" /><glyph glyph-name="uni3075" unicode="&#x3075;" d="M275 -6 L281 80 Q383 20 477 20 Q598 22 599 116 Q599 157 573 193 Q551 224 492 272 Q443 310 421 342 Q394 382 394 428 Q394 491 442 552 L525 527 Q475 477 475 431 Q471 385 559 320 Q621 274 653 225 Q687 173 687 113 Q687 37 635 -11 Q580 -61 487 -61 Q371 -62 275 -6 ZM133 -3 L54 30 Q120 197 146 379 L228 363 Q196 162 133 -3 ZM245 680 L266 756 Q508 738 775 684 L752 605 Q511 661 245 680 ZM953 48 L872 22 Q836 234 754 389 L835 417 Q915 263 953 48 Z" /><glyph glyph-name="uni3076" unicode="&#x3076;" d="M275 -6 L281 80 Q383 20 477 20 Q598 22 599 116 Q599 157 573 193 Q551 224 492 272 Q443 310 421 342 Q394 382 394 428 Q394 491 442 552 L525 527 Q475 477 475 431 Q471 385 559 320 Q621 274 653 225 Q687 173 687 113 Q687 37 635 -11 Q580 -61 487 -61 Q371 -62 275 -6 ZM133 -3 L54 30 Q120 197 146 379 L228 363 Q196 162 133 -3 ZM953 48 L872 22 Q836 234 754 389 L835 417 Q915 263 953 48 ZM245 680 L266 756 Q519 738 769 686 L747 606 Q512 661 245 680 ZM754 768 L794 790 Q849 731 887 662 L848 639 Q798 720 754 768 ZM850 818 L887 837 Q935 788 982 714 L942 690 Q909 752 850 818 Z" /><glyph glyph-name="uni3077" unicode="&#x3077;" d="M133 -3 L54 30 Q120 197 146 379 L228 363 Q196 162 133 -3 ZM245 680 L266 756 Q504 739 765 687 L742 607 Q507 661 245 680 ZM275 -6 L281 80 Q383 20 477 20 Q598 22 599 116 Q599 157 573 193 Q551 224 492 272 Q443 310 421 342 Q394 382 394 428 Q394 491 442 552 L525 527 Q475 477 475 431 Q471 385 559 320 Q621 274 653 225 Q687 173 687 113 Q687 37 635 -11 Q580 -61 487 -61 Q371 -62 275 -6 ZM953 48 L872 22 Q836 234 754 389 L835 417 Q915 263 953 48 ZM830 722 Q830 695 849 676 Q868 657 894 657 Q922 657 941 676 Q960 695 960 722 Q960 749 941 767 Q921 786 894 786 Q866 785 849 767 Q831 750 830 722 ZM796 722 Q796 762 825 792 Q854 822 894 822 Q934 822 964 792 Q993 763 993 722 Q993 679 964 650 Q935 621 894 621 Q853 621 825 650 Q796 680 796 722 Z" /><glyph glyph-name="uni3078" unicode="&#x3078;" d="M99 209 L38 281 Q140 387 270 563 Q325 639 384 639 Q439 642 499 564 Q715 306 969 110 L918 31 Q776 144 646 278 Q552 374 443 505 Q425 528 411 538 Q398 547 386 547 Q360 547 331 507 Q229 362 99 209 Z" /><glyph glyph-name="uni3079" unicode="&#x3079;" d="M99 202 L38 274 Q140 380 270 556 Q320 629 384 631 Q439 634 499 557 Q714 298 969 103 L918 24 Q778 136 646 271 Q548 371 443 497 Q424 522 411 531 Q399 540 386 540 Q361 540 331 500 Q229 355 99 202 ZM646 625 L685 653 Q742 599 788 531 L750 503 Q695 579 646 625 ZM741 684 L778 710 Q830 663 881 591 L843 564 Q801 628 741 684 Z" /><glyph glyph-name="uni307A" unicode="&#x307a;" d="M99 202 L38 274 Q140 380 270 556 Q320 629 384 631 Q439 634 499 557 Q714 298 969 103 L918 24 Q778 136 646 271 Q548 371 443 497 Q424 522 411 531 Q399 540 386 540 Q361 540 331 500 Q229 355 99 202 ZM669 627 Q669 669 698 698 Q727 727 768 727 Q809 727 838 698 Q868 668 868 627 Q868 587 838 557 Q808 527 768 527 Q728 527 698 557 Q669 586 669 627 ZM703 627 Q703 600 722 581 Q741 562 768 562 Q796 562 815 581 Q834 600 834 627 Q834 654 815 673 Q796 692 768 692 Q741 692 722 673 Q703 654 703 627 Z" /><glyph glyph-name="uni307B" unicode="&#x307b;" d="M215 -62 L130 -67 Q112 120 112 274 Q112 520 160 792 L246 785 Q194 521 194 301 Q194 131 215 -62 ZM421 88 Q422 12 544 9 Q665 9 665 136 Q606 164 540 164 Q486 164 453 143 Q421 122 421 88 ZM905 655 L733 655 Q735 574 736 493 L910 493 L910 420 L738 420 Q743 215 744 188 Q846 142 947 65 L906 -8 Q819 67 740 109 Q738 23 684 -21 Q635 -61 547 -61 Q452 -61 400 -22 Q348 17 348 84 Q348 153 405 194 Q458 232 542 232 Q602 232 663 211 Q661 369 659 420 L383 420 L383 493 L658 493 Q655 574 652 655 L392 655 L392 728 L905 728 L905 655 Z" /><glyph glyph-name="uni307C" unicode="&#x307c;" d="M885 849 L922 866 Q972 809 1011 739 L972 720 Q937 786 885 849 ZM661 132 Q599 160 536 160 Q481 160 449 139 Q417 118 417 82 Q418 9 540 5 Q661 5 661 132 ZM211 -66 L125 -71 Q107 131 107 270 Q107 509 156 788 L241 781 Q190 520 190 296 Q190 127 211 -66 ZM876 685 L876 651 L729 651 L732 489 L906 489 L906 416 L734 416 L740 183 Q837 141 943 61 L902 -12 Q815 63 736 105 Q732 19 682 -24 Q634 -65 543 -65 Q448 -65 395 -26 Q343 13 343 80 Q343 149 401 190 Q455 228 538 228 Q591 228 659 207 L655 416 L378 416 L378 489 L653 489 L648 651 L388 651 L388 724 L843 724 Q803 788 778 813 L818 832 Q871 769 907 700 L876 685 Z" /><glyph glyph-name="uni307D" unicode="&#x307d;" d="M906 654 Q872 654 847 673 L847 648 L722 648 L726 486 L900 486 L900 413 L728 413 L734 181 Q841 133 937 58 L896 -15 Q822 50 732 102 Q730 14 680 -28 Q632 -68 537 -68 Q340 -62 337 77 Q337 146 395 187 Q449 225 532 225 Q581 225 652 203 L648 413 L372 413 L372 486 L646 486 L642 648 L382 648 L382 721 L815 721 Q807 734 807 754 Q807 796 836 825 Q865 854 907 854 Q947 854 976 825 Q1006 795 1006 754 Q1006 713 976 683 Q947 654 906 654 ZM204 -69 L120 -74 Q101 123 101 267 Q101 506 150 785 L235 778 Q183 512 183 293 Q183 138 204 -69 ZM655 129 Q595 156 530 156 Q475 156 443 136 Q410 115 410 80 Q411 6 534 2 Q599 2 627 31 Q655 60 655 129 ZM841 754 Q841 727 860 708 Q879 689 907 689 Q934 689 953 708 Q972 727 972 754 Q972 781 953 800 Q934 819 907 819 Q879 819 860 800 Q841 781 841 754 Z" /><glyph glyph-name="uni307E" unicode="&#x307e;" d="M480 160 Q421 174 359 174 Q287 174 245 150 Q202 126 202 84 Q202 45 238 24 Q274 3 342 3 Q422 3 453 43 Q480 78 480 160 ZM480 235 L475 403 L135 403 L135 475 L473 475 L469 613 L143 613 L143 684 L467 684 L464 799 L547 799 L550 684 L861 684 L861 613 L553 613 L557 475 L867 475 L867 403 L558 403 L562 220 Q739 169 912 47 L862 -27 Q712 92 562 143 Q562 122 561 111 Q552 -73 348 -73 Q244 -73 185 -34 Q123 7 123 81 Q123 156 191 202 Q256 246 359 246 Q422 246 480 235 Z" /><glyph glyph-name="uni307F" unicode="&#x307f;" d="M366 361 Q263 355 200 301 Q138 248 138 169 Q138 131 155 111 Q169 94 193 94 Q253 94 308 202 Q346 276 366 361 ZM61 158 Q61 283 156 358 Q243 427 382 436 Q416 603 423 681 L155 681 L155 756 L516 756 Q493 554 465 432 Q581 420 731 355 Q744 436 742 603 L827 603 Q829 425 810 319 Q917 259 966 225 L923 144 Q849 203 788 237 Q758 134 696 58 Q629 -24 520 -85 L451 -29 Q566 32 629 107 Q689 178 715 277 Q579 344 449 359 Q403 195 345 110 Q279 12 193 12 Q135 12 98 53 Q61 94 61 158 Z" /><glyph glyph-name="uni3080" unicode="&#x3080;" d="M235 178 Q317 178 317 290 Q317 397 239 397 Q198 397 173 364 Q149 332 149 281 Q149 230 173 203 Q195 178 235 178 ZM84 604 L84 678 L306 678 L306 794 L389 794 L389 678 L588 678 L588 604 L386 604 L386 369 Q394 337 394 286 Q394 175 319 127 Q319 108 318 90 Q316 38 381 20 Q420 9 509 9 Q632 9 704 41 Q778 74 778 132 Q778 218 734 322 L821 328 Q865 226 865 118 Q865 27 770 -22 Q676 -70 501 -70 Q231 -70 237 71 Q238 90 239 109 Q165 102 120 150 Q77 197 77 277 Q77 360 122 413 Q167 466 234 466 Q275 466 306 439 L306 604 L84 604 ZM668 659 L721 717 Q863 638 964 524 L908 462 Q803 585 668 659 Z" /><glyph glyph-name="uni3081" unicode="&#x3081;" d="M369 205 Q308 305 260 439 Q157 338 152 201 Q155 100 216 100 Q284 100 369 205 ZM421 274 Q507 401 557 561 Q419 563 321 494 Q363 365 421 274 ZM571 -62 L516 9 Q684 45 761 118 Q836 189 836 304 Q836 403 779 473 Q723 541 637 555 Q575 348 468 202 Q501 157 524 131 L464 75 Q450 90 413 140 Q301 16 210 16 Q149 16 113 62 Q75 111 75 196 Q75 288 118 374 Q159 457 232 518 Q205 610 184 718 L266 730 Q283 628 300 565 Q406 631 573 634 Q590 708 597 780 L685 771 Q671 683 656 624 Q778 599 849 512 Q921 424 921 298 Q921 156 834 67 Q748 -21 571 -62 Z" /><glyph glyph-name="uni3082" unicode="&#x3082;" d="M84 339 L84 412 L308 412 L325 577 L87 577 L87 650 L333 650 L349 801 L434 798 L417 650 L694 650 L694 577 L408 577 L392 412 L688 412 L688 339 L386 339 Q373 227 373 166 Q373 82 414 46 Q458 7 565 7 Q692 7 758 54 Q818 97 818 170 Q818 227 772 313 L859 315 Q906 240 906 159 Q906 54 820 -8 Q730 -73 566 -73 Q289 -73 289 146 Q289 215 302 339 L84 339 Z" /><glyph glyph-name="uni3083" unicode="&#x3083;" d="M145 285 L116 365 Q195 392 274 419 Q248 498 216 582 L297 608 Q331 519 355 446 Q448 480 535 500 Q471 588 461 599 L535 632 Q582 582 626 512 Q635 514 655 514 Q746 514 801 465 Q856 416 856 334 Q856 249 798 198 Q741 148 644 147 Q604 147 536 153 L513 239 Q570 231 636 231 Q698 231 734 259 Q770 287 770 336 Q770 382 737 410 Q703 438 648 438 Q567 438 381 374 Q448 175 523 -82 L436 -103 Q379 110 299 344 Q251 327 145 285 Z" /><glyph glyph-name="uni3084" unicode="&#x3084;" d="M514 -70 L426 -90 Q335 243 255 471 Q157 433 59 396 L32 475 Q124 508 229 544 Q193 645 156 747 L241 774 Q287 650 314 572 Q481 626 559 643 Q522 702 464 769 L535 804 Q597 736 651 655 Q678 658 709 656 Q818 652 879 593 Q937 537 937 445 Q937 341 861 280 Q791 224 681 224 Q605 224 545 230 L519 313 Q583 301 671 301 Q748 301 798 341 Q848 381 849 447 Q849 511 804 548 Q760 584 686 584 Q571 584 336 501 Q432 220 514 -70 Z" /><glyph glyph-name="uni3085" unicode="&#x3085;" d="M601 114 Q675 123 718 165 Q765 211 765 285 Q765 353 723 392 Q683 430 615 435 Q621 351 621 297 Q621 188 601 114 ZM271 55 L189 42 Q172 140 172 233 Q172 317 190 562 L278 562 Q259 407 256 301 Q283 376 358 433 Q434 490 526 504 Q512 592 506 617 L594 617 Q602 572 610 509 Q716 504 782 443 Q849 380 849 278 Q849 162 769 95 Q694 32 574 33 Q529 -56 397 -108 L334 -45 Q393 -25 428 -3 Q459 17 482 47 Q399 71 340 165 L394 225 Q442 137 516 118 Q538 185 538 296 Q538 345 532 431 Q428 407 348 328 Q268 248 262 143 Q262 105 271 55 Z" /><glyph glyph-name="uni3086" unicode="&#x3086;" d="M614 160 Q713 167 775 224 Q841 285 841 384 Q841 476 782 529 Q727 579 635 582 Q642 486 642 400 Q642 251 614 160 ZM202 104 L117 90 Q98 196 98 315 Q98 453 120 724 L210 724 Q181 492 181 370 Q216 477 314 555 Q413 632 542 651 Q531 721 520 792 L609 794 Q629 659 629 657 Q761 653 842 580 Q926 504 926 377 Q926 235 827 154 Q734 78 585 78 Q530 -31 363 -96 L300 -34 Q374 -8 421 24 Q463 53 491 91 Q374 118 304 248 L358 307 Q389 245 425 212 Q468 173 528 162 Q559 255 558 397 Q558 477 549 578 Q410 549 305 444 Q200 340 191 209 Q191 156 202 104 Z" /><glyph glyph-name="uni3087" unicode="&#x3087;" d="M261 49 Q261 -11 365 -11 Q412 -11 439 10 Q471 34 470 80 Q470 92 469 104 Q430 117 374 117 Q264 113 261 49 ZM468 183 L449 620 L536 620 L541 457 L794 473 L798 392 L544 378 L553 167 Q685 124 835 10 L779 -64 Q662 36 555 80 Q555 71 554 62 Q547 -14 495 -53 Q446 -90 365 -90 Q277 -90 227 -54 Q178 -18 178 44 Q178 110 233 151 Q289 193 381 193 Q427 193 468 183 Z" /><glyph glyph-name="uni3088" unicode="&#x3088;" d="M471 158 Q410 177 342 177 Q272 177 229 151 Q188 126 188 87 Q188 48 226 25 Q264 2 333 2 Q475 2 472 132 Q472 149 471 158 ZM470 235 L446 794 L531 794 L539 589 L850 608 L854 529 L542 510 L554 219 Q721 165 904 33 L849 -41 Q692 84 555 136 L555 112 Q551 20 490 -28 Q432 -74 331 -74 Q229 -74 169 -32 Q109 10 109 83 Q109 158 176 204 Q241 249 344 249 Q413 249 470 235 Z" /><glyph glyph-name="uni3089" unicode="&#x3089;" d="M297 -63 L273 23 Q346 12 421 12 Q594 12 695 67 Q794 121 794 213 Q794 277 751 317 Q703 362 612 362 Q513 362 412 305 Q314 250 240 156 L164 170 L207 606 L289 595 L252 268 Q423 436 611 436 Q738 436 812 369 Q880 307 880 210 Q880 80 761 7 Q640 -67 421 -67 Q356 -67 297 -63 ZM306 716 L336 789 Q537 772 714 710 L681 634 Q507 700 306 716 Z" /><glyph glyph-name="uni308A" unicode="&#x308a;" d="M323 -88 L276 -10 Q487 16 588 90 Q716 184 716 382 Q716 509 675 583 Q633 659 558 659 Q466 653 395 555 Q302 426 297 287 Q297 247 302 196 L220 187 Q207 274 207 366 Q208 553 248 798 L332 794 Q300 639 285 454 L288 454 Q323 572 395 649 Q474 734 567 734 Q675 734 739 637 Q803 540 803 371 Q803 158 665 44 Q550 -51 323 -88 Z" /><glyph glyph-name="uni308B" unicode="&#x308b;" d="M571 10 Q530 146 420 146 Q382 146 357 128 Q332 110 332 80 Q333 4 486 0 Q531 0 571 10 ZM129 163 L73 231 Q338 444 610 687 L201 670 L201 752 L719 765 L758 711 Q587 560 402 411 Q500 464 596 464 Q733 464 811 397 Q886 332 886 225 Q886 87 774 6 Q666 -72 489 -72 Q380 -72 319 -31 Q259 9 259 80 Q259 139 304 176 Q350 214 421 214 Q587 209 648 31 Q800 86 800 222 Q800 303 742 349 Q683 396 577 396 Q454 396 332 324 Q247 274 129 163 Z" /><glyph glyph-name="uni308C" unicode="&#x308c;" d="M97 77 L47 149 Q150 294 245 404 Q247 480 247 519 L56 519 L56 591 L249 591 Q251 693 253 796 L334 796 Q329 658 325 485 Q523 695 644 695 Q716 695 756 650 Q794 607 795 528 Q795 474 781 315 Q772 226 772 144 Q772 106 783 91 Q794 76 824 76 Q887 77 957 133 L979 48 Q892 -9 807 -8 Q690 -7 687 124 Q687 175 699 310 Q710 430 710 505 Q710 567 692 593 Q675 618 634 618 Q537 618 323 371 Q323 144 323 -82 L240 -82 Q240 149 243 281 Q160 173 97 77 Z" /><glyph glyph-name="uni308D" unicode="&#x308d;" d="M295 -60 L264 29 Q386 16 461 16 Q621 16 709 74 Q795 131 795 228 Q795 305 738 346 Q681 387 578 387 Q454 387 334 318 Q250 269 130 159 L76 229 Q277 393 615 684 L191 674 L191 752 L722 760 L761 701 Q580 552 398 403 Q510 457 606 457 Q737 457 811 394 Q883 333 883 229 Q883 88 774 11 Q665 -66 467 -66 Q415 -66 295 -60 Z" /><glyph glyph-name="uni308E" unicode="&#x308e;" d="M182 35 L130 106 Q241 247 293 302 Q293 366 294 392 L142 392 L142 468 L295 468 L299 622 L382 622 Q373 376 373 367 Q506 479 623 479 Q727 479 789 410 Q850 342 850 226 Q850 -34 521 -59 L479 21 Q625 25 692 72 Q763 122 763 229 Q763 311 725 356 Q687 401 616 401 Q556 401 495 366 Q442 335 371 267 L371 191 Q372 47 373 -96 L291 -96 L291 184 Q257 142 182 35 Z" /><glyph glyph-name="uni308F" unicode="&#x308f;" d="M99 91 L48 161 Q155 299 248 401 L250 528 L59 528 L59 603 L252 603 L255 796 L338 796 Q334 632 329 468 Q502 617 655 617 Q774 617 847 540 Q925 458 925 311 Q925 -6 528 -36 L486 41 Q663 51 746 111 Q838 177 838 314 Q838 429 784 488 Q735 542 647 542 Q569 542 485 493 Q414 451 327 366 Q325 104 329 -82 L246 -82 Q247 99 247 280 Q183 207 99 91 Z" /><glyph glyph-name="uni3090" unicode="&#x3090;" d="M204 684 L204 758 L598 765 Q582 665 553 543 Q709 548 803 475 Q907 394 907 233 Q907 100 833 15 Q756 -73 627 -73 Q549 -73 502 -26 Q455 21 468 85 Q475 135 518 167 Q559 198 612 198 Q713 198 795 109 Q823 161 823 236 Q823 366 743 427 Q669 483 537 477 Q460 220 377 88 Q338 21 296 -9 Q257 -37 211 -37 Q153 -37 119 10 Q84 58 84 142 Q84 294 195 402 Q299 503 465 536 Q488 621 498 689 L204 684 ZM451 460 Q325 430 247 351 Q162 264 162 144 Q162 49 218 48 Q255 48 297 107 Q367 206 443 436 Q447 448 451 460 ZM756 48 Q695 134 617 134 Q579 134 555 114 Q532 95 532 65 Q532 33 559 14 Q585 -4 625 -4 Q710 -4 756 48 Z" /><glyph glyph-name="uni3091" unicode="&#x3091;" d="M409 274 Q477 304 477 341 Q477 361 464 373 Q450 385 424 385 Q393 385 371 368 Q348 350 348 324 Q348 303 366 289 Q382 276 409 274 ZM101 -84 L44 -27 Q188 121 344 241 Q287 271 287 321 Q287 367 329 400 Q372 434 431 434 Q479 434 509 410 Q539 386 539 349 Q539 322 526 303 Q515 288 491 273 Q579 280 640 309 Q720 348 720 415 Q720 526 564 526 Q453 526 356 481 Q284 448 175 364 L126 433 Q364 583 590 714 L239 695 L237 767 L708 782 L740 722 Q591 632 468 559 Q526 582 594 582 Q695 582 752 534 Q806 488 806 413 Q806 323 716 267 Q624 210 474 210 Q445 210 419 215 Q344 164 287 113 Q332 139 374 139 Q475 139 508 24 Q535 86 580 122 Q630 162 693 162 Q851 160 951 -40 L877 -84 Q832 11 785 52 Q741 91 686 91 Q631 91 590 44 Q547 -5 540 -83 L463 -83 Q454 8 420 49 Q392 83 344 83 Q286 83 227 40 Q176 3 101 -84 Z" /><glyph glyph-name="uni3092" unicode="&#x3092;" d="M125 226 L70 293 Q235 442 335 606 L108 603 L106 677 L376 681 Q406 739 432 802 L516 788 Q488 723 465 682 L836 687 L838 614 L422 608 Q365 514 306 445 Q396 511 469 511 Q589 511 619 386 Q713 420 891 470 L911 390 Q742 350 633 312 Q642 238 645 119 L563 114 Q563 213 556 283 Q340 196 340 100 Q340 54 388 34 Q438 13 556 13 Q691 13 851 34 L853 -54 Q712 -65 575 -65 Q403 -65 330 -26 Q259 12 259 97 Q259 187 360 261 Q422 306 544 357 Q530 447 455 444 Q384 444 304 388 Q237 341 125 226 Z" /><glyph glyph-name="uni3093" unicode="&#x3093;" d="M134 -56 L55 -23 Q266 478 412 793 L499 763 Q379 519 299 341 Q374 414 460 419 Q525 419 561 380 Q599 339 601 254 L606 119 Q608 73 626 52 Q645 29 686 29 Q752 29 808 98 Q858 160 890 262 L956 195 Q916 72 845 6 Q775 -59 685 -59 Q607 -59 566 -17 Q526 24 524 102 L519 248 Q516 299 497 322 Q478 345 439 345 Q364 343 275 234 Q219 161 134 -56 Z" /><glyph glyph-name="uni30A1" unicode="&#x30a1;" d="M171 485 L171 561 L812 561 L847 518 Q801 420 758 361 Q716 303 647 243 L579 295 Q685 382 730 485 L171 485 ZM256 -87 L186 -29 Q339 35 391 139 Q444 242 439 415 L528 415 Q529 217 468 101 Q406 -15 256 -87 Z" /><glyph glyph-name="uni30A2" unicode="&#x30a2;" d="M96 643 L96 723 L885 723 L922 679 Q826 474 675 348 L599 401 Q667 453 716 513 Q760 566 804 643 L96 643 ZM194 -69 L122 -5 Q306 80 372 215 Q439 351 432 552 L524 552 Q524 320 450 175 Q372 22 194 -69 Z" /><glyph glyph-name="uni30A3" unicode="&#x30a3;" d="M198 219 L137 284 Q525 400 728 617 L800 565 Q685 454 578 392 L578 -80 L491 -80 L491 343 Q356 271 198 219 Z" /><glyph glyph-name="uni30A4" unicode="&#x30a4;" d="M128 312 L61 383 Q535 528 788 795 L864 740 Q728 610 589 524 L589 -61 L500 -61 L500 473 Q339 382 128 312 Z" /><glyph glyph-name="uni30A5" unicode="&#x30a5;" d="M366 -92 L303 -22 Q488 26 583 120 Q690 225 711 409 L286 409 L286 237 L202 237 L202 484 L449 484 L449 608 L534 608 L534 484 L776 484 L806 452 Q783 218 679 93 Q579 -28 366 -92 Z" /><glyph glyph-name="uni30A6" unicode="&#x30a6;" d="M334 -71 L269 2 Q494 59 617 187 Q747 323 775 552 L224 552 L224 339 L136 339 L136 631 L446 631 L446 786 L535 786 L535 631 L841 631 L873 596 Q844 320 719 164 Q592 5 334 -71 Z" /><glyph glyph-name="uni30A7" unicode="&#x30a7;" d="M152 -1 L152 70 L455 70 L455 436 L203 436 L203 507 L791 507 L791 436 L534 436 L534 70 L848 70 L848 -1 L152 -1 Z" /><glyph glyph-name="uni30A8" unicode="&#x30a8;" d="M70 47 L70 127 L450 127 L450 590 L136 590 L136 670 L859 670 L859 590 L536 590 L536 127 L931 127 L931 47 L70 47 Z" /><glyph glyph-name="uni30A9" unicode="&#x30a9;" d="M185 5 L129 63 Q379 193 513 390 L172 390 L172 461 L564 461 L562 609 L641 609 L644 461 L836 461 L836 390 L644 390 L651 27 Q652 -27 629 -53 Q606 -79 557 -79 L445 -79 L412 -3 L536 -3 Q556 -3 564 5 Q572 13 572 33 L569 344 Q491 234 396 152 Q309 76 185 5 Z" /><glyph glyph-name="uni30AA" unicode="&#x30aa;" d="M111 43 L48 109 Q188 179 315 287 Q450 401 530 525 L99 525 L99 603 L584 603 L581 786 L668 786 L671 603 L917 603 L917 525 L673 525 L682 69 Q683 1 656 -30 Q629 -61 570 -61 L440 -61 L405 26 L545 26 Q572 26 582 35 Q595 46 594 74 L587 467 Q501 335 378 228 Q269 133 111 43 Z" /><glyph glyph-name="uni30AB" unicode="&#x30ab;" d="M145 -64 L77 -4 Q395 160 418 525 L106 525 L106 602 L422 602 L425 786 L510 786 L506 602 L872 602 Q867 284 842 143 Q824 33 786 -6 Q748 -45 661 -46 Q642 -46 554 -44 L527 39 Q581 36 655 36 Q707 36 729 62 Q751 88 763 164 Q783 293 786 525 L502 525 Q485 322 404 185 Q319 42 145 -64 Z" /><glyph glyph-name="uni30AC" unicode="&#x30ac;" d="M137 -62 L70 -3 Q232 82 314 208 Q397 336 409 522 L98 522 L98 598 L415 598 L417 787 L503 787 L499 598 L865 598 Q859 279 835 140 Q817 30 779 -9 Q741 -48 653 -48 Q590 -48 545 -47 L519 36 Q582 33 646 33 Q698 33 720 59 Q743 86 755 162 Q776 298 779 522 L494 522 Q480 319 396 182 Q312 44 137 -62 ZM773 748 L809 776 Q867 722 914 654 L877 627 Q826 702 773 748 ZM865 806 L900 832 Q957 778 1004 714 L967 687 Q928 748 865 806 Z" /><glyph glyph-name="uni30AD" unicode="&#x30ad;" d="M97 221 L88 296 L460 338 L434 529 L113 496 L104 573 L424 604 L399 791 L484 796 L508 614 L825 647 L832 571 L518 540 L544 347 L907 389 L914 314 L555 273 L600 -70 L515 -78 L469 264 L97 221 Z" /><glyph glyph-name="uni30AE" unicode="&#x30ae;" d="M89 216 L80 290 L451 333 L426 524 L104 491 L96 568 L416 600 L391 786 L475 791 L500 609 L811 642 L817 565 L510 533 L536 343 L898 384 L906 309 L546 269 L593 -75 L507 -83 L461 259 L89 216 ZM769 761 L806 787 Q862 736 911 667 L873 639 Q824 713 769 761 ZM862 820 L897 844 Q957 789 1001 725 L965 699 Q925 760 862 820 Z" /><glyph glyph-name="uni30AF" unicode="&#x30af;" d="M224 -69 L160 -4 Q617 149 767 575 L418 575 Q315 429 159 315 L89 371 Q210 450 293 549 Q379 652 439 791 L528 769 Q501 709 467 652 L837 652 L875 612 Q794 353 634 186 Q474 19 224 -69 Z" /><glyph glyph-name="uni30B0" unicode="&#x30b0;" d="M218 -73 L154 -9 Q611 145 761 570 L410 570 Q307 425 153 310 L83 367 Q202 445 287 545 Q376 649 434 786 L523 764 Q499 714 460 648 L829 648 L869 608 Q788 349 628 182 Q468 15 218 -73 ZM778 778 L816 802 Q866 754 914 682 L875 657 Q815 741 778 778 ZM873 831 L911 853 Q967 797 1009 734 L970 711 Q932 772 873 831 Z" /><glyph glyph-name="uni30B1" unicode="&#x30b1;" d="M266 -75 L201 -11 Q390 59 482 190 Q572 319 583 525 L294 525 Q232 414 125 313 L57 361 Q246 524 308 791 L394 775 Q363 672 331 604 L931 604 L931 525 L672 525 Q661 306 565 160 Q465 8 266 -75 Z" /><glyph glyph-name="uni30B2" unicode="&#x30b2;" d="M263 -75 L197 -12 Q387 59 479 189 Q569 316 581 525 L290 525 Q227 413 122 312 L53 359 Q244 525 304 790 L390 774 Q356 664 328 604 L926 604 L926 525 L669 525 Q657 303 562 159 Q463 8 263 -75 ZM770 768 L806 795 Q855 750 910 675 L872 648 Q820 723 770 768 ZM867 820 L903 844 Q963 785 1004 725 L968 699 Q928 761 867 820 Z" /><glyph glyph-name="uni30B3" unicode="&#x30b3;" d="M129 48 L129 129 L752 129 L752 592 L138 592 L138 671 L841 671 L841 -21 L752 -21 L752 48 L129 48 Z" /><glyph glyph-name="uni30B4" unicode="&#x30b4;" d="M122 41 L122 122 L745 122 L745 585 L131 585 L131 663 L833 663 L833 -28 L745 -28 L745 41 L122 41 ZM768 778 L808 802 Q858 752 909 677 L870 653 Q817 733 768 778 ZM865 830 L901 853 Q958 797 1001 731 L962 708 Q926 771 865 830 Z" /><glyph glyph-name="uni30B5" unicode="&#x30b5;" d="M312 -67 L258 10 Q492 49 576 167 Q617 223 633 301 Q647 371 649 493 L349 493 L349 242 L263 242 L263 493 L62 493 L62 571 L263 571 L263 779 L349 779 L349 571 L650 571 L650 781 L736 781 L736 571 L938 571 L938 493 L736 493 Q736 226 642 110 Q539 -18 312 -67 Z" /><glyph glyph-name="uni30B6" unicode="&#x30b6;" d="M308 -74 L255 3 Q489 42 573 160 Q614 216 630 294 Q644 364 646 486 L344 486 L344 235 L260 235 L260 486 L58 486 L58 563 L260 563 L260 771 L344 771 L344 563 L646 563 L646 774 L733 774 L733 563 L935 563 L935 486 L732 486 Q733 220 640 105 Q588 37 506 -6 Q431 -45 308 -74 ZM900 680 L859 661 Q824 737 780 796 L820 815 Q859 762 900 680 ZM992 721 L955 703 Q927 772 877 837 L915 853 Q958 797 992 721 Z" /><glyph glyph-name="uni30B7" unicode="&#x30b7;" d="M108 434 L145 505 Q297 459 406 409 L370 335 Q259 389 108 434 ZM186 675 L222 748 Q359 708 476 651 L440 577 Q326 636 186 675 ZM155 -45 L129 39 Q408 86 582 210 Q768 343 862 584 L932 514 Q821 271 631 137 Q448 8 155 -45 Z" /><glyph glyph-name="uni30B8" unicode="&#x30b8;" d="M100 426 L136 497 Q282 455 399 403 L363 328 Q249 383 100 426 ZM179 667 L215 741 Q346 703 469 645 L433 570 Q313 631 179 667 ZM147 -52 L122 31 Q400 79 574 203 Q761 336 853 574 L922 503 Q813 262 621 128 Q437 -1 147 -52 ZM747 739 L784 766 Q835 720 890 647 L852 619 Q796 697 747 739 ZM839 797 L875 822 Q927 777 979 706 L942 680 Q897 745 839 797 Z" /><glyph glyph-name="uni30B9" unicode="&#x30b9;" d="M136 -55 L68 7 Q294 123 438 265 Q594 419 681 630 L161 630 L161 711 L758 711 L797 668 Q720 467 604 320 Q784 190 926 19 L858 -49 Q738 112 549 256 Q396 85 136 -55 Z" /></font>
</defs>
</svg>
